<svg width="1055" height="679" viewBox="0 0 1055 679" fill="none" xmlns="http://www.w3.org/2000/svg">
<path fill-rule="evenodd" clip-rule="evenodd" d="M939.862 0C981.358 0 1015 30.405 1015 67.9138V535.086C1015 572.593 981.358 603 939.862 603H336.155C307.277 603 283.045 580.041 257.073 568.631C249.624 565.363 241.449 563.672 233.169 563.685C224.589 563.685 216.474 565.464 209.265 568.631C183.293 580.041 159.061 603 130.183 603H75.1375C33.6391 603 0 572.593 0 535.086V67.9138C0 30.405 33.6391 0 75.1375 0H939.862Z" fill="#1C1C1C"/>
<path d="M231.576 652.707C254.538 652.707 273.153 635.76 273.153 614.854C273.153 593.948 254.538 577 231.576 577C208.614 577 190 593.948 190 614.854C190 635.76 208.614 652.707 231.576 652.707Z" fill="#1C1C1C"/>
<path d="M236.404 623.979C236.404 623.979 226.01 618.376 226.01 614.515C226.01 610.657 236.404 605.052 236.404 605.052" stroke="white" stroke-width="2" stroke-linecap="round" stroke-linejoin="round"/>
</svg>
