<svg width="1055" height="679" viewBox="0 0 1055 679" fill="none" xmlns="http://www.w3.org/2000/svg">
<path fill-rule="evenodd" clip-rule="evenodd" d="M680.59 0C710.639 0 735 26.5729 735 59.3542V467.646C735 500.425 710.639 527 680.59 527H243.423C222.511 527 204.964 506.934 186.156 496.963C180.762 494.107 174.843 492.629 168.847 492.64C162.633 492.64 156.757 494.195 151.537 496.963C132.729 506.934 115.182 527 94.2706 527H54.4099C24.3593 527 0 500.425 0 467.646V59.3542C0 26.5729 24.3593 0 54.4099 0H680.59Z" fill="#1C1C1C"/>
<path d="M167.576 574.707C190.538 574.707 209.153 557.76 209.153 536.854C209.153 515.948 190.538 499 167.576 499C144.614 499 126 515.948 126 536.854C126 557.76 144.614 574.707 167.576 574.707Z" fill="#1C1C1C"/>
<path d="M172.404 545.979C172.404 545.979 162.01 540.376 162.01 536.515C162.01 532.657 172.404 527.052 172.404 527.052" stroke="white" stroke-width="2" stroke-linecap="round" stroke-linejoin="round"/>
</svg>
