<svg width="1059" height="911" viewBox="0 0 1059 911" fill="none" xmlns="http://www.w3.org/2000/svg">
<path fill-rule="evenodd" clip-rule="evenodd" d="M964.644 0C1016.75 0 1059 38.1716 1059 85.2583V671.742C1059 718.827 1016.75 757 964.644 757H485.971C449.285 757 418.602 727.245 385.363 713.22C376.884 709.642 367.424 707.644 357.449 707.644C347.473 707.644 338.014 709.642 329.535 713.22C296.295 727.245 265.612 757 228.927 757H221.356C169.245 757 127 718.827 127 671.742V85.2583C127 38.1716 169.244 0 221.356 0H964.644Z" fill="#1C1C1C"/>
<path d="M361 854C395.794 854 424 825.57 424 790.5C424 755.43 395.794 727 361 727C326.206 727 298 755.43 298 790.5C298 825.57 326.206 854 361 854Z" fill="#1C1C1C"/>
<path d="M375.263 803.394C375.263 803.394 361 795.877 361 790.697C361 785.52 375.263 778 375.263 778" stroke="white" stroke-width="2" stroke-linecap="round" stroke-linejoin="round"/>
</svg>
