<svg width="19" height="19" viewBox="0 0 19 19" fill="none" xmlns="http://www.w3.org/2000/svg">
<path fill-rule="evenodd" clip-rule="evenodd" d="M9.34058 16.8913C9.17223 17.7024 8.3782 18.2235 7.56705 18.0551C6.75591 17.8868 6.23483 17.0928 6.40318 16.2816L7.63079 10.3669L1.71549 9.13913C0.904351 8.97078 0.383268 8.17675 0.55162 7.3656C0.719972 6.55446 1.51401 6.03338 2.32515 6.20173L8.24045 7.42945L9.46816 1.51418C9.63651 0.70304 10.4305 0.181956 11.2417 0.350308C12.0528 0.51866 12.5739 1.3127 12.4056 2.12384L11.1778 8.03911L17.0926 9.26671C17.9037 9.43506 18.4248 10.2291 18.2565 11.0402C18.0881 11.8514 17.2941 12.3725 16.4829 12.2041L10.5682 10.9765L9.34058 16.8913Z" fill="#007AFF"/>
</svg>
