<svg xmlns="http://www.w3.org/2000/svg" width="406" height="287" fill="none"><path fill="#1C1C1C" fill-rule="evenodd" d="M375.257 0c16.568 0 30 13.431 30 30v206.367c0 16.568-13.432 30-30 30H134.216c-11.53 0-21.205-10.142-31.575-15.182A21.774 21.774 0 0 0 93.097 249c-3.426 0-6.666.786-9.544 2.185-10.37 5.04-20.045 15.182-31.575 15.182H30c-16.569 0-30-13.432-30-30V30C0 13.431 13.431 0 30 0h345.257Z" clip-rule="evenodd"/><circle cx="92.986" cy="271" r="16" fill="#1C1C1C"/><path stroke="#fff" stroke-linecap="round" stroke-linejoin="round" stroke-width="2" d="M94.844 274.857s-4-2.368-4-4c0-1.631 4-4 4-4"/></svg>