<svg xmlns="http://www.w3.org/2000/svg" width="414" height="414" fill="none"><path fill="#007AFF" d="m45.54 249.998 7.162-4.636s3.478-18.473.894-34.776c-3.626-23.002-19.259-30.91-24.939-28.641-5.68 2.269-7.021 9.108 3.238 22.356 6.052 7.833 13.835 24.385 13.645 45.697"/><path fill="#fff" d="m45.54 249.998 7.162-4.636s3.478-18.473.894-34.776c-3.626-23.002-19.259-30.91-24.939-28.641-5.68 2.269-7.021 9.108 3.238 22.356 6.052 7.833 13.835 24.385 13.645 45.697" opacity=".3"/><path fill="#fff" d="M48.147 240.883h-.075a.525.525 0 0 1-.439-.58c2.973-21.528-5.671-45.06-15.392-54.557a.514.514 0 1 1 .72-.737c9.895 9.663 18.705 33.584 15.691 55.426a.518.518 0 0 1-.505.448"/><path fill="#007AFF" d="M27.506 261.648c-1.077.613-4.14-1.747-4.968-2.318a10.256 10.256 0 0 1-3.412-3.917 9.595 9.595 0 0 1-.828-5.796c.173-1.039.416-2.065.73-3.071.289-.994.57-1.988.827-2.981a7.455 7.455 0 0 0 .43-3.006c-.256-2.037-2.07-3.461-3.709-4.695-1.821-1.358-3.71-3.154-3.701-5.605.13-1.904.89-3.71 2.161-5.134 1.176-1.49 2.567-2.798 3.627-4.372a6.01 6.01 0 0 0 1.233-3.808 6.33 6.33 0 0 0-.828-2.377c-.828-1.598-2.003-3.063-2.6-4.777-.596-1.714-.513-3.851.829-5.076 1.093-1.01 2.732-1.151 4.214-1.052a9.679 9.679 0 0 1 3.925 1.383c3.891 2.161 6.119 6.773 10.25 8.438 1.629.513 3.288.922 4.968 1.225 1.656.439 3.354 1.292 4.14 2.823 1.516 3.031-1.3 6.765-.231 9.978.944 2.848 3.709 3.933 5.257 6.5a6.102 6.102 0 0 1 .729 3.726 17.818 17.818 0 0 1-1.573 6.292 55.82 55.82 0 0 1-3.436 5.97z"/><path fill="#fff" d="M27.506 261.648c-1.077.613-4.14-1.747-4.968-2.318a10.256 10.256 0 0 1-3.412-3.917 9.595 9.595 0 0 1-.828-5.796c.173-1.039.416-2.065.73-3.071.289-.994.57-1.988.827-2.981a7.455 7.455 0 0 0 .43-3.006c-.256-2.037-2.07-3.461-3.709-4.695-1.821-1.358-3.71-3.154-3.701-5.605.13-1.904.89-3.71 2.161-5.134 1.176-1.49 2.567-2.798 3.627-4.372a6.01 6.01 0 0 0 1.233-3.808 6.33 6.33 0 0 0-.828-2.377c-.828-1.598-2.003-3.063-2.6-4.777-.596-1.714-.513-3.851.829-5.076 1.093-1.01 2.732-1.151 4.214-1.052a9.679 9.679 0 0 1 3.925 1.383c3.891 2.161 6.119 6.773 10.25 8.438 1.629.513 3.288.922 4.968 1.225 1.656.439 3.354 1.292 4.14 2.823 1.516 3.031-1.3 6.765-.231 9.978.944 2.848 3.709 3.933 5.257 6.5a6.102 6.102 0 0 1 .729 3.726 17.818 17.818 0 0 1-1.573 6.292 55.82 55.82 0 0 1-3.436 5.97z" opacity=".65"/><path fill="#fff" d="M37.905 255.554a.49.49 0 0 1-.338-.155.479.479 0 0 1-.126-.35c.828-19.243-8.28-40.497-14.904-46.666a.49.49 0 0 1 .325-.811.489.489 0 0 1 .338.099c6.723 6.301 15.98 27.903 15.168 47.419a.491.491 0 0 1-.463.464"/><path fill="#fff" d="M34.775 232.031h-.141a65.454 65.454 0 0 0-13.935-2.277.49.49 0 0 1-.338-.155.48.48 0 0 1-.126-.35.474.474 0 0 1 .505-.464 66.903 66.903 0 0 1 14.217 2.294.499.499 0 0 1 .315.613.49.49 0 0 1-.497.339"/><path fill="#262626" d="M210.047 401.596c105.63 0 191.26-49.438 191.26-110.422 0-60.984-85.63-110.422-191.26-110.422S18.787 230.19 18.787 291.174c0 60.984 85.63 110.422 191.26 110.422"/><path fill="#3A3A3A" d="M108.403 244.102c40.514-23.382 106.191-23.382 146.696 0 34.337 19.823 39.554 50.086 15.683 73.096l89.134 50.806c5.431 3.139 5.431 8.222 0 11.361l-8.015 4.628c-5.432 3.138-14.076 2.89-19.342-.546l-77.832-54.433c-40.572 23.184-105.918 23.093-146.291-.215-40.54-23.391-40.54-61.306-.033-84.697"/><path fill="#373737" d="m124.82 38.502-7.021 4.057c.035-.308.054-.617.057-.927v-2.037c0-3.627-2.541-5.092-5.68-3.312a10.877 10.877 0 0 0-3.386 3.254c-.522-4.554-4.09-6.251-8.437-3.75-4.695 2.715-8.496 9.306-8.496 14.73v3.038a7.99 7.99 0 0 0 .72 3.536l-5.795 3.37a6.94 6.94 0 0 0-3.155 5.49c0 2.011 1.408 2.823 3.155 1.82l38.088-21.99a6.936 6.936 0 0 0 3.154-5.457c-.049-2.012-1.457-2.824-3.204-1.822M32.208 56.768l3.958-3.055v-8.727c0-6.922 5.523-14.954 11.51-18.407 5.994-3.46 10.854-.654 10.854 6.26v1.267a15.459 15.459 0 0 1 5.035-5.035c4.314-2.484 7.808-.472 7.808 4.505v.58l5.522-3.188c2.84-1.657 5.142-.315 5.142 2.964a11.368 11.368 0 0 1-5.142 8.909l-44.687 25.8c-2.84 1.656-5.142.307-5.142-2.972a11.353 11.353 0 0 1 5.142-8.901"/><path fill="#007AFF" d="M90.94 259.321v25.196c0 13.679 9.041 27.324 27.116 37.799 36.151 20.873 94.773 20.873 130.924 0 18.075-10.442 27.117-24.12 27.117-37.799v-25.196c0-13.678-9.042-27.324-27.117-37.79-36.151-20.873-94.773-20.873-130.924 0-18.075 10.433-27.117 24.112-27.117 37.79m176.198 0c0 10.946-8.04 21.611-22.638 30.04-16.146 9.323-37.798 14.457-60.982 14.457-23.184 0-44.836-5.134-60.982-14.457-14.598-8.429-22.638-19.094-22.638-30.04 0-10.946 8.04-21.61 22.638-30.04 16.146-9.323 37.798-14.456 60.982-14.456 23.184 0 44.845 5.133 60.982 14.456 14.606 8.43 22.638 19.119 22.638 30.04"/><path fill="#fff" d="M90.94 259.321v25.196c0 13.679 9.041 27.324 27.116 37.799 36.151 20.873 94.773 20.873 130.924 0 18.075-10.442 27.117-24.12 27.117-37.799v-25.196c0-13.678-9.042-27.324-27.117-37.79-36.151-20.873-94.773-20.873-130.924 0-18.075 10.433-27.117 24.112-27.117 37.79m176.198 0c0 10.946-8.04 21.611-22.638 30.04-16.146 9.323-37.798 14.457-60.982 14.457-23.184 0-44.836-5.134-60.982-14.457-14.598-8.429-22.638-19.094-22.638-30.04 0-10.946 8.04-21.61 22.638-30.04 16.146-9.323 37.798-14.456 60.982-14.456 23.184 0 44.845 5.133 60.982 14.456 14.606 8.43 22.638 19.119 22.638 30.04" opacity=".2"/><path fill="#007AFF" d="M276.006 286.869c-1.441 8.669-5.258 15.194-20.634 27.192-21.735 16.974-76.772 23.904-108.716 13.364-30.131-9.936-39.744-29.386-39.744-42.725l.082-7.841c-4.653-5.54-7.104-11.493-7.104-17.537 0-6.194 2.575-12.296 7.452-17.951l.108-11.046h-1.714c-9.862 8.802-14.797 18.895-14.797 28.98v25.196c0 13.679 9.042 27.324 27.117 37.798 36.151 20.874 94.773 20.874 130.924 0 17.04-9.82 26.049-22.563 27.026-35.43" opacity=".6"/><path fill="#007AFF" d="M248.989 221.531c-36.159-20.873-94.773-20.873-130.924 0-36.15 20.874-36.159 54.715 0 75.589 36.159 20.873 94.765 20.873 130.924 0 36.158-20.874 36.15-54.715 0-75.589m-4.48 67.83c-16.146 9.323-37.806 14.457-60.982 14.457-23.176 0-44.836-5.134-60.991-14.457-14.597-8.429-22.637-19.094-22.637-30.04 0-10.946 8.04-21.61 22.637-30.04 16.146-9.323 37.807-14.456 60.991-14.456 23.184 0 44.836 5.133 60.982 14.456 14.598 8.43 22.638 19.102 22.638 30.04 0 10.938-8.04 21.611-22.638 30.04"/><path fill="#fff" d="M248.989 221.531c-36.159-20.873-94.773-20.873-130.924 0-36.15 20.874-36.159 54.715 0 75.589 36.159 20.873 94.765 20.873 130.924 0 36.158-20.874 36.15-54.715 0-75.589m-4.48 67.83c-16.146 9.323-37.806 14.457-60.982 14.457-23.176 0-44.836-5.134-60.991-14.457-14.597-8.429-22.637-19.094-22.637-30.04 0-10.946 8.04-21.61 22.637-30.04 16.146-9.323 37.807-14.456 60.991-14.456 23.184 0 44.836 5.133 60.982 14.456 14.598 8.43 22.638 19.102 22.638 30.04 0 10.938-8.04 21.611-22.638 30.04" opacity=".5"/><path fill="#007AFF" d="M267.154 259.321a24.79 24.79 0 0 1-3.618 12.602c-3.668-6.351-10.135-12.312-19.044-17.438-16.129-9.331-37.798-14.465-60.982-14.465-23.184 0-44.836 5.134-60.974 14.465-8.901 5.126-15.359 11.087-19.044 17.438a25.004 25.004 0 0 1-3.594-12.602c0-10.938 8.04-21.611 22.646-30.048 16.138-9.307 37.798-14.449 60.974-14.449 23.176 0 44.853 5.142 60.982 14.449 14.615 8.437 22.654 19.127 22.654 30.048"/><path fill="#fff" d="M267.154 259.321a24.79 24.79 0 0 1-3.618 12.602c-3.668-6.351-10.135-12.312-19.044-17.438-16.129-9.331-37.798-14.465-60.982-14.465-23.184 0-44.836 5.134-60.974 14.465-8.901 5.126-15.359 11.087-19.044 17.438a25.004 25.004 0 0 1-3.594-12.602c0-10.938 8.04-21.611 22.646-30.048 16.138-9.307 37.798-14.449 60.974-14.449 23.176 0 44.853 5.142 60.982 14.449 14.615 8.437 22.654 19.127 22.654 30.048" opacity=".3"/><path fill="#007AFF" d="M122.544 229.273c-14.606 8.438-22.646 19.111-22.646 30.048a25.005 25.005 0 0 0 3.602 12.603c3.693-6.351 10.152-12.313 19.044-17.438a92.589 92.589 0 0 1 11.692-5.639c-3.528 1.366-14.358 4.852-10.408-5.473 4.694-12.262 27.605-25.544 44.438-27.746-17.313 1.714-33.186 6.417-45.722 13.645" opacity=".6"/><path fill="#3A3A3A" d="M244.51 240.691c-16.146-9.323-37.807-14.457-60.983-14.457-23.175 0-44.844 5.134-60.99 14.457-12.039 6.955-19.607 15.434-21.892 24.335 2.285 8.901 9.853 17.388 21.892 24.335 16.154 9.323 37.806 14.457 60.99 14.457 23.184 0 44.837-5.134 60.983-14.457 12.047-6.955 19.615-15.434 21.892-24.335-2.269-8.901-9.845-17.38-21.892-24.335" opacity=".4"/><path fill="#262626" d="M116.352 270.806c5.175 4.057 11.045 6.624 17.032 8.661a121.623 121.623 0 0 0 18.389 4.537 182.051 182.051 0 0 0 37.724 2.153 212.18 212.18 0 0 0 18.878-1.714 155.144 155.144 0 0 0 18.539-3.651 80.302 80.302 0 0 0 17.496-6.624 39.97 39.97 0 0 0 3.974-2.426 31.401 31.401 0 0 0 3.635-2.898 20.815 20.815 0 0 0 3.056-3.536 15.128 15.128 0 0 0 2.061-4.33 13.974 13.974 0 0 1-.828 4.968 21.669 21.669 0 0 1-2.368 4.537 27.2 27.2 0 0 1-3.245 3.974 40.44 40.44 0 0 1-3.801 3.437 67.988 67.988 0 0 1-17.744 9.737 113.49 113.49 0 0 1-19.35 5.39 145.526 145.526 0 0 1-19.872 2.36c-13.389.7-26.803-.728-39.744-4.231a89.12 89.12 0 0 1-18.639-7.452 57.87 57.87 0 0 1-8.362-5.581c-.655-.521-1.267-1.093-1.897-1.656a29.996 29.996 0 0 1-4.934-5.655"/><path fill="#37474F" d="M246.23 313.158a14.314 14.314 0 0 1 6.442-11.261c1.772-1.035 3.387-1.143 4.563-.48l20.633 11.799c1.168.67 1.896 2.119 1.905 4.14a14.338 14.338 0 0 1-6.442 11.26c-1.789 1.044-3.411 1.151-4.587.472l-20.626-11.79c-1.142-.613-1.879-2.062-1.888-4.14"/><path fill="#263238" d="M248.16 317.356c-1.184-.671-1.921-2.12-1.93-4.198.03-1.676.405-3.328 1.102-4.852l29.65 16.99a12.389 12.389 0 0 1-3.61 3.378c-1.788 1.044-3.411 1.151-4.587.472z"/><path fill="#455A64" d="m348.124 346.775-65.66-33.459-.083-.05c-1.524-.828-3.594-.679-5.871.646-4.653 2.716-8.404 9.273-8.379 14.655 0 2.7.969 4.588 2.484 5.465l61.711 39.744a15.63 15.63 0 0 0 5.833 2.219 15.637 15.637 0 0 0 11.884-2.891 15.653 15.653 0 0 0 2.867-22.333 15.653 15.653 0 0 0-4.794-3.996z"/><path fill="#37474F" d="m270.624 334.048 61.711 39.744a15.631 15.631 0 0 0 23.913-12.246c-1.184 5.142-9.68 9.514-20.212 3.627s-49.547-30.554-67.275-40.763a14.39 14.39 0 0 0-.646 4.14c.009 2.733.986 4.62 2.509 5.498"/><path fill="#007AFF" d="M270.625 334.048c-1.54-.878-2.484-2.765-2.484-5.465 0-5.382 3.726-11.939 8.379-14.655 2.277-1.325 4.347-1.466 5.87-.646l5.796 2.948c-1.564-.828-3.676-.696-6.019.662-4.769 2.782-8.62 9.514-8.595 15.037 0 2.765.953 4.744 2.526 5.638"/><path fill="#000" d="M276.088 337.567c-1.573-.894-2.484-2.873-2.526-5.639.009-1.463.235-2.917.671-4.313a513.964 513.964 0 0 0-5.473-3.205 16.407 16.407 0 0 0-.488 2.112c-.05.347-.092.695-.125 1.043 0 .348-.041.687 0 1.018 0 2.7.969 4.587 2.484 5.465z" opacity=".2"/><path fill="#007AFF" d="m113.61 372.401-49.68-24.848-19.79 8.76z"/><path fill="#fff" d="m113.61 372.401-49.68-24.848-19.79 8.76z" opacity=".15"/><path fill="#007AFF" d="m113.609 372.401-43.76-29.253 7.834-11.261z"/><path fill="#fff" d="m113.609 372.401-43.76-29.253 7.834-11.261z" opacity=".15"/><path fill="#007AFF" d="m69.85 343.147.82 7.775 42.939 21.479z"/><path fill="#000" d="m69.85 343.147.82 7.775 42.939 21.479z" opacity=".2"/><path fill="#455A64" d="M62.762 341.657a.49.49 0 0 0 .323-.132.581.581 0 0 0 .05-.77l-.952-1.276a.471.471 0 0 0-.333-.191.477.477 0 0 0-.195.023.478.478 0 0 0-.168.102.589.589 0 0 0-.058.77c.315.422.638.828.96 1.25a.488.488 0 0 0 .373.224M58.4 336.01a77.903 77.903 0 0 1-1.715-2.608.587.587 0 0 1 .124-.762.473.473 0 0 1 .37-.09.453.453 0 0 1 .31.223c.554.869 1.117 1.73 1.656 2.583a.573.573 0 0 1-.1.762.44.44 0 0 1-.29.108.5.5 0 0 1-.356-.216m-4.38-7.112a90.553 90.553 0 0 1-1.475-2.79.58.58 0 0 1 .19-.746.464.464 0 0 1 .671.216c.464.919.953 1.838 1.45 2.749a.578.578 0 0 1-.158.753.507.507 0 0 1-.257.075.496.496 0 0 1-.422-.257m-3.694-7.585c-.414-.985-.828-1.978-1.175-2.964a.57.57 0 0 1 .264-.712.483.483 0 0 1 .549.125c.044.05.077.109.097.173.356.969.745 1.946 1.16 2.915a.577.577 0 0 1-.24.728.453.453 0 0 1-.478-.04.496.496 0 0 1-.177-.225m-2.865-8.015a78.416 78.416 0 0 1-.828-3.105.546.546 0 0 1 .348-.67.493.493 0 0 1 .385.059.496.496 0 0 1 .22.322c.24 1.01.513 2.036.828 3.055a.562.562 0 0 1-.315.687h-.15a.508.508 0 0 1-.488-.348m-1.92-8.371a80.072 80.072 0 0 1-.44-3.196.53.53 0 0 1 .423-.612.52.52 0 0 1 .555.471c.115 1.052.265 2.112.43 3.147a.537.537 0 0 1-.389.629h-.091a.52.52 0 0 1-.489-.439m-.829-8.578c0-.828-.05-1.656-.05-2.542v-.695a.518.518 0 0 1 .295-.49.506.506 0 0 1 .194-.048.518.518 0 0 1 .48.554V296.291a.53.53 0 0 1-.471.572.515.515 0 0 1-.447-.514m.654-8.023a.537.537 0 0 1-.438-.596c.09-1.068.207-2.153.34-3.221a.495.495 0 0 1 .562-.456.529.529 0 0 1 .414.613 83.913 83.913 0 0 0-.34 3.163.521.521 0 0 1-.488.497zm1.16-8.462a.548.548 0 0 1-.365-.654c.216-1.052.464-2.103.737-3.138a.483.483 0 0 1 .407-.387.473.473 0 0 1 .198.014.56.56 0 0 1 .34.679 63.881 63.881 0 0 0-.73 3.08.497.497 0 0 1-.471.422zm2.235-8.189a.556.556 0 0 1-.273-.704c.356-.994.754-1.995 1.168-2.972a.477.477 0 0 1 .462-.311.471.471 0 0 1 .192.046.587.587 0 0 1 .24.728c-.414.961-.828 1.938-1.151 2.915a.487.487 0 0 1-.455.339.36.36 0 0 1-.183-.041m3.403-7.692a.58.58 0 0 1-.174-.754 73.034 73.034 0 0 1 1.574-2.724.461.461 0 0 1 .687-.149.598.598 0 0 1 .133.762 53.459 53.459 0 0 0-1.549 2.674.48.48 0 0 1-.422.265.456.456 0 0 1-.249-.074m4.397-7.03a.579.579 0 0 1-.058-.762 56.424 56.424 0 0 1 1.93-2.434.45.45 0 0 1 .347-.161.453.453 0 0 1 .348.161.58.58 0 0 1 0 .77 54.275 54.275 0 0 0-1.896 2.385.475.475 0 0 1-.381.198.444.444 0 0 1-.331-.157zm5.324-6.193a.583.583 0 0 1 0-.77 51.988 51.988 0 0 1 2.236-2.087.474.474 0 0 1 .368-.114.474.474 0 0 1 .327.205.595.595 0 0 1-.082.77 50.443 50.443 0 0 0-2.203 2.037.464.464 0 0 1-.323.141.485.485 0 0 1-.364-.182zm6.094-5.242a.597.597 0 0 1 .15-.753 39.245 39.245 0 0 1 2.483-1.656.453.453 0 0 1 .38-.042.464.464 0 0 1 .283.257.572.572 0 0 1-.19.737 30.79 30.79 0 0 0-2.485 1.656.457.457 0 0 1-.265.083.512.512 0 0 1-.397-.282zM75.265 241.941h.149a7.6 7.6 0 0 1 1.35-.372.542.542 0 0 0 .413-.621.51.51 0 0 0-.18-.349.496.496 0 0 0-.175-.095c-.065-.02-.132-.027-.2-.02a9.363 9.363 0 0 0-1.506.414.554.554 0 0 0-.145.942.509.509 0 0 0 .294.101"/><path fill="#007AFF" d="m307.768 51.46-50.922-15.608 39.23 26.952z"/><path fill="#fff" d="m307.768 51.46-50.922-15.608 39.23 26.952z" opacity=".15"/><path fill="#007AFF" d="m256.846 35.853 54.805 8.818 11.691-11.344z"/><path fill="#fff" d="m256.846 35.853 54.805 8.818 11.691-11.344z" opacity=".15"/><path fill="#007AFF" d="m311.651 44.67.05 13.547-3.933-6.757-50.922-15.608z"/><path fill="#000" d="m311.651 44.67.05 13.547-3.933-6.757-50.922-15.608z" opacity=".2"/><path fill="#007AFF" d="m311.7 58.216-7.833-2.972 3.9-3.784z"/><path fill="#000" d="m307.767 51.46-3.9 3.784 1.25.472z" opacity=".2"/><path fill="#455A64" d="M321.977 49.076a.449.449 0 0 0-.174.298.597.597 0 0 0 .431.646l1.507.405a.452.452 0 0 0 .52-.188.468.468 0 0 0 .068-.184.593.593 0 0 0-.414-.646l-1.524-.406a.474.474 0 0 0-.414.075M328.874 50.923c.985.33 1.971.678 2.939 1.035a.595.595 0 0 1 .373.678.464.464 0 0 1-.629.307 110.55 110.55 0 0 0-2.915-1.027.58.58 0 0 1-.381-.662.426.426 0 0 1 .166-.265.47.47 0 0 1 .447-.066m7.792 2.997c.968.43 1.92.828 2.864 1.333a.57.57 0 0 1 .298.704.46.46 0 0 1-.277.268.47.47 0 0 1-.385-.028 67.132 67.132 0 0 0-2.823-1.308.585.585 0 0 1-.323-.696.436.436 0 0 1 .157-.223.476.476 0 0 1 .489-.05m7.534 3.8c.928.53 1.838 1.085 2.733 1.656a.579.579 0 0 1 .223.73.478.478 0 0 1-.695.156c-.878-.554-1.78-1.093-2.691-1.656a.571.571 0 0 1-.249-.72.414.414 0 0 1 .133-.174.495.495 0 0 1 .546.008m7.138 4.645a69.35 69.35 0 0 1 2.542 1.963.554.554 0 0 1 .124.745.484.484 0 0 1-.542.162.484.484 0 0 1-.17-.104c-.828-.654-1.656-1.3-2.484-1.93a.566.566 0 0 1-.166-.744.304.304 0 0 1 .1-.108.51.51 0 0 1 .596.017m6.582 5.532a65.39 65.39 0 0 1 2.294 2.276.54.54 0 0 1 0 .746.521.521 0 0 1-.364.151.518.518 0 0 1-.365-.151 63.026 63.026 0 0 0-2.252-2.236.549.549 0 0 1-.066-.745l.066-.066a.512.512 0 0 1 .687.025m5.871 6.309c.538.654 1.06 1.316 1.581 1.995l.414.555a.518.518 0 0 1-.066.729.513.513 0 0 1-.72-.141l-.414-.546a69.663 69.663 0 0 0-1.549-1.963.533.533 0 0 1 0-.737.519.519 0 0 1 .393-.128.515.515 0 0 1 .361.203zm4.347 6.79a.537.537 0 0 1 .712.198c.571.911 1.134 1.838 1.656 2.774a.5.5 0 0 1-.018.569c-.04.054-.09.1-.148.135a.546.546 0 0 1-.704-.24 62.757 62.757 0 0 0-1.656-2.724.512.512 0 0 1 .092-.687zm4.198 7.452a.554.554 0 0 1 .695.298c.456.968.903 1.954 1.309 2.939a.49.49 0 0 1-.093.558.487.487 0 0 1-.164.113.563.563 0 0 1-.679-.34 52.606 52.606 0 0 0-1.284-2.881.5.5 0 0 1 .125-.63.327.327 0 0 1 .091-.115zm3.188 7.866a.561.561 0 0 1 .645.397c.315 1.01.613 2.045.87 3.072a.47.47 0 0 1-.365.604.565.565 0 0 1-.621-.43c-.256-1.01-.546-2.029-.828-3.014a.487.487 0 0 1 .15-.547.415.415 0 0 1 .149-.14zm1.987 8.155a.578.578 0 0 1 .588.497c.165 1.035.298 2.087.405 3.13a.458.458 0 0 1-.266.479.474.474 0 0 1-.189.043.57.57 0 0 1-.563-.522 55.336 55.336 0 0 0-.398-3.064.49.49 0 0 1 .174-.463.466.466 0 0 1 .249-.158z"/><path fill="#3A3A3A" d="M386.576 236.667c-2.219-1.324-5.349-1.142-8.827.828l-63.06 36.432c-6.732 3.884-12.197 13.124-12.197 20.634 0 3.668 1.308 6.235 3.428 7.452l6.765 3.9c2.211 1.259 5.299 1.06 8.727-.919l63.069-36.432c6.731-3.883 12.188-13.124 12.188-20.634 0-3.643-1.292-6.218-3.395-7.452-1.151-.629-5.589-3.146-6.698-3.809"/><path fill="#262626" d="M315.814 306.36c-3.809 0-6.177-3.014-6.177-7.858 0-7.361 5.373-16.461 11.981-20.269l63.069-36.432a11.075 11.075 0 0 1 5.39-1.656c3.809 0 6.177 3.013 6.177 7.857 0 7.369-5.374 16.461-11.981 20.278l-63.069 36.432a11.003 11.003 0 0 1-5.39 1.648"/><path fill="#050505" d="M390.079 240.526c3.552 0 5.796 2.856 5.796 7.452 0 7.236-5.283 16.171-11.774 19.872l-63.069 36.432a10.651 10.651 0 0 1-5.183 1.606 5.144 5.144 0 0 1-4.14-1.863 8.697 8.697 0 0 1-1.656-5.581c0-7.228 5.282-16.162 11.774-19.872l63.069-36.432a10.658 10.658 0 0 1 5.183-1.606m0-.828a11.362 11.362 0 0 0-5.597 1.722l-63.069 36.432c-6.732 3.892-12.188 13.124-12.188 20.634 0 5.258 2.674 8.28 6.624 8.28a11.452 11.452 0 0 0 5.597-1.714l63.069-36.432c6.731-3.883 12.188-13.124 12.188-20.634 0-5.257-2.675-8.28-6.624-8.28z"/><path fill="#007AFF" d="M331.298 285.958c.257-.48.215-.977 0-1.11l-2.111-1.217a.32.32 0 0 0-.29 0l-1.938.745-.637-1.358a.348.348 0 0 0-.149-.157l-2.112-1.225c-.265-.149-.703.19-.877.753l-1.317 4.314c-.072.26-.222.491-.43.662l-2.94 2.277c-.472.356-.654 1.234-.314 1.474l2.127 1.54a.636.636 0 0 1 .166.58l-.505 4.198c-.041.306.05.513.19.588l2.112 1.225c.165.091.414 0 .637-.273l2.633-3.362a.633.633 0 0 1 .53-.306l2.642.29c.414.058.902-.704.828-1.275l-.505-3.619a1.344 1.344 0 0 1 .165-.77z"/><path fill="#fff" d="M331.272 284.833a.345.345 0 0 0-.289 0l-2.948 1.126a.306.306 0 0 1-.248.01.3.3 0 0 1-.174-.176l-.679-1.441 1.937-.737a.332.332 0 0 1 .29 0zM323.952 287.912a1.35 1.35 0 0 1-.43.663l-2.94 2.269a1.059 1.059 0 0 0-.314.397l-2.112-1.225a1.22 1.22 0 0 1 .315-.398l2.939-2.269c.207-.169.357-.397.431-.654z" opacity=".15"/><path fill="#000" d="M326.164 282.853c-.265-.174-.712.165-.894.745l-1.317 4.314-2.111-1.226 1.316-4.313c.174-.563.613-.903.878-.754.058 0 1.846 1.076 2.12 1.226z" opacity=".1"/><path fill="#000" d="m322.397 293.866-2.095-1.209-2.128-1.54c-.248-.182-.215-.679 0-1.085l2.112 1.226c-.216.397-.249.902 0 1.084z" opacity=".25"/><path fill="#000" d="M322.092 298.643c0 .307.05.514.207.596l-2.12-1.225a.57.57 0 0 1-.182-.588l.505-4.198a.643.643 0 0 0-.149-.563l2.095 1.209a.616.616 0 0 1 .149.555z" opacity=".15"/><path fill="#007AFF" d="m326.296 283.002 1.317 2.799a.31.31 0 0 0 .068.107.318.318 0 0 0 .231.09.306.306 0 0 0 .123-.031l2.948-1.127c.463-.182.654.481.314 1.118l-2.128 3.991a1.344 1.344 0 0 0-.165.77l.505 3.619c.074.571-.414 1.333-.828 1.275l-2.633-.323a.63.63 0 0 0-.53.306l-2.6 3.362c-.422.538-.911.348-.828-.323l.505-4.198a.618.618 0 0 0-.165-.58l-2.128-1.531c-.34-.249-.149-1.118.314-1.483l2.94-2.268c.208-.171.358-.403.43-.663l1.317-4.314c.174-.687.778-1.035.993-.596"/><path fill="#fff" d="m326.296 283.002 1.317 2.799a.31.31 0 0 0 .068.107.318.318 0 0 0 .231.09.306.306 0 0 0 .123-.031l2.948-1.127c.463-.182.654.481.314 1.118l-2.128 3.991a1.344 1.344 0 0 0-.165.77l.505 3.619c.074.571-.414 1.333-.828 1.275l-2.633-.323a.63.63 0 0 0-.53.306l-2.6 3.362c-.422.538-.911.348-.828-.323l.505-4.198a.618.618 0 0 0-.165-.58l-2.128-1.531c-.34-.249-.149-1.118.314-1.483l2.94-2.268c.208-.171.358-.403.43-.663l1.317-4.314c.174-.687.778-1.035.993-.596" opacity=".5"/><path fill="#007AFF" d="M346.104 277.43c.257-.48.207-.969 0-1.101l-2.103-1.217a.324.324 0 0 0-.298 0l-1.93.745-.645-1.358a.301.301 0 0 0-.141-.157l-2.112-1.226c-.265-.149-.703.191-.877.754l-1.375 4.338a1.37 1.37 0 0 1-.43.663l-2.94 2.268c-.472.365-.654 1.242-.323 1.483l2.137 1.54a.614.614 0 0 1 .157.579l-.497 4.198c-.041.307.042.514.182.588l2.087 1.184c.165.091.406 0 .637-.273l2.633-3.362a.633.633 0 0 1 .53-.306l2.633.323c.414.049.903-.704.828-1.275l-.496-3.619a1.287 1.287 0 0 1 .165-.77z"/><path fill="#fff" d="M346.053 276.32a.363.363 0 0 0-.29 0l-2.972 1.126a.321.321 0 0 1-.252.011.316.316 0 0 1-.179-.177l-.671-1.44 1.93-.737a.333.333 0 0 1 .298 0zM338.734 279.392c-.074.259-.224.49-.431.662l-2.964 2.294a1.067 1.067 0 0 0-.314.397l-2.095-1.225c.081-.152.191-.287.323-.397l2.939-2.269c.206-.174.355-.404.431-.663z" opacity=".15"/><path fill="#000" d="M340.943 274.333c-.265-.174-.712.165-.894.745l-1.316 4.314-2.112-1.184 1.317-4.314c.174-.563.612-.902.877-.753.058 0 1.847 1.076 2.112 1.217z" opacity=".1"/><path fill="#000" d="m337.176 285.337-2.095-1.201-2.128-1.54c-.24-.182-.207-.679 0-1.084l2.12 1.225c-.216.398-.249.903 0 1.077z" opacity=".25"/><path fill="#000" d="M336.836 290.114c-.041.315.05.522.199.605l-2.112-1.226c-.14-.082-.223-.281-.182-.587l.505-4.198a.67.67 0 0 0-.149-.563l2.095 1.2a.624.624 0 0 1 .149.555z" opacity=".15"/><path fill="#007AFF" d="m341.07 274.483 1.316 2.798a.323.323 0 0 0 .179.177.317.317 0 0 0 .252-.011l2.947-1.126c.464-.182.655.48.315 1.109l-2.128 3.999a1.289 1.289 0 0 0-.165.771l.496 3.618c.083.571-.405 1.325-.828 1.275l-2.633-.323a.634.634 0 0 0-.53.306l-2.633 3.362c-.422.538-.91.348-.828-.323l.505-4.198a.626.626 0 0 0-.01-.31.628.628 0 0 0-.155-.269l-2.128-1.532c-.34-.249-.157-1.118.315-1.482l2.939-2.269c.208-.171.359-.403.43-.662l1.317-4.314c.215-.688.82-1.01 1.027-.596"/><path fill="#fff" d="m341.07 274.483 1.316 2.798a.323.323 0 0 0 .179.177.317.317 0 0 0 .252-.011l2.947-1.126c.464-.182.655.48.315 1.109l-2.128 3.999a1.289 1.289 0 0 0-.165.771l.496 3.618c.083.571-.405 1.325-.828 1.275l-2.633-.323a.634.634 0 0 0-.53.306l-2.633 3.362c-.422.538-.91.348-.828-.323l.505-4.198a.626.626 0 0 0-.01-.31.628.628 0 0 0-.155-.269l-2.128-1.532c-.34-.249-.157-1.118.315-1.482l2.939-2.269c.208-.171.359-.403.43-.662l1.317-4.314c.215-.688.82-1.01 1.027-.596" opacity=".5"/><path fill="#007AFF" d="M360.857 268.91c.248-.48.207-.969 0-1.101l-2.137-1.192a.363.363 0 0 0-.298 0l-1.937.745-.638-1.358a.299.299 0 0 0-.141-.158l-2.111-1.225c-.265-.149-.712.19-.878.754l-1.316 4.313a1.364 1.364 0 0 1-.431.663l-2.947 2.269c-.464.364-.655 1.233-.315 1.482l2.128 1.54a.597.597 0 0 1 .165.579l-.505 4.198c0 .307.05.505.191.588l2.111 1.226c.174.091.414 0 .646-.274l2.625-3.361a.63.63 0 0 1 .538-.307l2.625.323c.422.05.911-.704.828-1.275l-.497-3.618a1.338 1.338 0 0 1 .157-.77z"/><path fill="#fff" d="M360.831 267.8a.379.379 0 0 0-.298 0l-2.939 1.126a.317.317 0 0 1-.36-.058.333.333 0 0 1-.071-.107l-.679-1.441 1.938-.737a.329.329 0 0 1 .29 0zM353.554 270.864c-.075.26-.224.494-.43.67l-2.94 2.269a1.196 1.196 0 0 0-.323.397l-2.111-1.225c.082-.152.191-.286.323-.397l2.939-2.269c.206-.174.356-.404.431-.663z" opacity=".15"/><path fill="#000" d="M355.724 265.788c-.265-.174-.72.166-.894.737l-1.275 4.339-2.112-1.218 1.317-4.313c.174-.564.613-.903.878-.754.058 0 1.838 1.076 2.111 1.217z" opacity=".1"/><path fill="#000" d="m351.947 276.817-2.086-1.201-2.153-1.548c-.24-.182-.215-.679 0-1.085l2.111 1.226c-.207.397-.24.902 0 1.076z" opacity=".25"/><path fill="#000" d="M351.616 281.595c-.041.315.05.522.199.604l-2.111-1.225c-.141-.083-.224-.282-.191-.588l.505-4.206a.635.635 0 0 0-.141-.555l2.087 1.201a.66.66 0 0 1 .149.554z" opacity=".15"/><path fill="#007AFF" d="m355.849 265.962 1.316 2.799a.315.315 0 0 0 .431.166l2.939-1.127c.472-.182.654.481.323 1.11l-2.136 3.999a1.332 1.332 0 0 0-.157.77l.497 3.619c.082.571-.406 1.324-.828 1.275l-2.625-.323a.628.628 0 0 0-.538.306l-2.625 3.362c-.422.538-.911.348-.828-.323l.497-4.198a.626.626 0 0 0-.158-.58l-2.136-1.54c-.331-.24-.149-1.118.323-1.474l2.939-2.268c.206-.174.356-.404.431-.663l1.316-4.314c.207-.687.812-1.035 1.019-.596"/><path fill="#fff" d="m355.849 265.962 1.316 2.799a.315.315 0 0 0 .431.166l2.939-1.127c.472-.182.654.481.323 1.11l-2.136 3.999a1.332 1.332 0 0 0-.157.77l.497 3.619c.082.571-.406 1.324-.828 1.275l-2.625-.323a.628.628 0 0 0-.538.306l-2.625 3.362c-.422.538-.911.348-.828-.323l.497-4.198a.626.626 0 0 0-.158-.58l-2.136-1.54c-.331-.24-.149-1.118.323-1.474l2.939-2.268c.206-.174.356-.404.431-.663l1.316-4.314c.207-.687.812-1.035 1.019-.596" opacity=".5"/><path fill="#007AFF" d="M375.628 260.389c.257-.48.215-.968 0-1.101l-2.103-1.225a.366.366 0 0 0-.298 0l-1.938.745-.637-1.358a.352.352 0 0 0-.141-.166c-.265-.14-2.053-1.184-2.111-1.217-.265-.149-.712.191-.886.754l-1.317 4.314a1.354 1.354 0 0 1-.422.662l-2.948 2.269c-.463.364-.654 1.234-.314 1.482l2.128 1.54a.593.593 0 0 1 .165.571l-.505 4.198c0 .307.05.514.19.596l2.112 1.226c.165.091.414 0 .637-.273l2.633-3.362a.633.633 0 0 1 .53-.306l2.633.323c.423.049.911-.704.828-1.276l-.505-3.618a1.405 1.405 0 0 1 .166-.77z"/><path fill="#fff" d="M375.604 259.28a.344.344 0 0 0-.289 0l-2.948 1.126a.307.307 0 0 1-.354-.059.297.297 0 0 1-.068-.106l-.679-1.441 1.937-.737a.293.293 0 0 1 .29 0zM368.293 262.344a1.391 1.391 0 0 1-.431.671l-2.939 2.269a1.162 1.162 0 0 0-.323.397l-2.112-1.225a1.34 1.34 0 0 1 .315-.398l2.939-2.269a1.31 1.31 0 0 0 .439-.662z" opacity=".15"/><path fill="#000" d="M370.504 257.293c-.265-.174-.721.166-.894.737l-1.317 4.314-2.111-1.217 1.316-4.314c.166-.563.613-.903.878-.753.058 0 1.838 1.076 2.111 1.217z" opacity=".1"/><path fill="#000" d="m366.728 268.272-2.086-1.201-2.128-1.54c-.248-.182-.215-.679 0-1.085l2.111 1.226c-.215.397-.24.902 0 1.076z" opacity=".25"/><path fill="#000" d="M366.388 273.075c0 .314.058.521.207.604l-2.128-1.267c-.141-.082-.223-.281-.19-.588l.505-4.206a.659.659 0 0 0-.141-.555l2.087 1.201a.641.641 0 0 1 .14.555z" opacity=".15"/><path fill="#007AFF" d="m370.628 257.442 1.317 2.799a.318.318 0 0 0 .179.176.306.306 0 0 0 .251-.011l2.94-1.126c.472-.182.654.48.314 1.11l-2.128 3.999a1.402 1.402 0 0 0-.165.77l.505 3.618c.083.572-.406 1.325-.828 1.275l-2.633-.322a.619.619 0 0 0-.53.306l-2.633 3.362c-.414.538-.903.347-.828-.323l.505-4.198a.596.596 0 0 0-.166-.58l-2.128-1.54c-.339-.24-.149-1.118.315-1.474l2.948-2.269c.204-.174.353-.404.43-.662l1.317-4.322c.207-.679.811-1.027 1.018-.588"/><path fill="#fff" d="m370.628 257.442 1.317 2.799a.318.318 0 0 0 .179.176.306.306 0 0 0 .251-.011l2.94-1.126c.472-.182.654.48.314 1.11l-2.128 3.999a1.402 1.402 0 0 0-.165.77l.505 3.618c.083.572-.406 1.325-.828 1.275l-2.633-.322a.619.619 0 0 0-.53.306l-2.633 3.362c-.414.538-.903.347-.828-.323l.505-4.198a.596.596 0 0 0-.166-.58l-2.128-1.54c-.339-.24-.149-1.118.315-1.474l2.948-2.269c.204-.174.353-.404.43-.662l1.317-4.322c.207-.679.811-1.027 1.018-.588" opacity=".5"/><path fill="#007AFF" d="M390.41 251.87c.256-.481.215-.969 0-1.11l-2.112-1.217a.345.345 0 0 0-.289 0l-1.938.745-.638-1.358a.465.465 0 0 0-.14-.165 107.356 107.356 0 0 1-2.112-1.218c-.273-.149-.712.183-.886.754l-1.316 4.314c-.072.26-.222.491-.431.662l-2.981 2.261c-.471.364-.654 1.233-.314 1.482l2.128 1.54a.595.595 0 0 1 .165.571l-.488 4.173c0 .307.05.514.19.596l2.112 1.226c.165.091.414 0 .637-.273l2.633-3.362a.633.633 0 0 1 .53-.306l2.633.322c.414.05.903-.703.828-1.275l-.505-3.618a1.333 1.333 0 0 1 .166-.77z"/><path fill="#fff" d="M390.384 250.76a.32.32 0 0 0-.29 0l-2.948 1.126a.316.316 0 0 1-.248.011.3.3 0 0 1-.174-.177l-.679-1.44 1.937-.746a.32.32 0 0 1 .29 0zM383.072 253.824c-.078.261-.23.494-.439.67l-2.939 2.269a1.158 1.158 0 0 0-.315.397l-2.111-1.225c.075-.153.183-.288.314-.397l2.94-2.269c.208-.171.358-.403.43-.663z" opacity=".15"/><path fill="#000" d="M385.284 248.764c-.265-.165-.721.174-.895.746l-1.316 4.314-2.12-1.218 1.317-4.314c.174-.563.621-.902.886-.753.058 0 1.838 1.076 2.111 1.217z" opacity=".1"/><path fill="#000" d="m381.508 259.777-2.095-1.201-2.128-1.54c-.248-.182-.215-.679 0-1.085l2.112 1.226c-.215.397-.249.902 0 1.076z" opacity=".25"/><path fill="#000" d="M381.167 264.554c0 .315.05.522.207.596l-2.153-1.225c-.141-.083-.223-.281-.19-.596l.505-4.198a.64.64 0 0 0-.149-.555l2.095 1.201a.646.646 0 0 1 .137.26.64.64 0 0 1 .003.295z" opacity=".15"/><path fill="#007AFF" d="m385.408 248.922 1.316 2.798a.3.3 0 0 0 .071.107.309.309 0 0 0 .36.059l2.939-1.126c.464-.182.654.48.315 1.109l-2.128 3.983a1.335 1.335 0 0 0-.166.77l.505 3.618c.075.572-.414 1.325-.828 1.276l-2.633-.323a.619.619 0 0 0-.53.306l-2.633 3.362c-.414.538-.902.339-.828-.323l.505-4.198a.618.618 0 0 0-.165-.58l-2.128-1.54c-.34-.24-.149-1.118.314-1.474l2.948-2.268c.2-.178.346-.407.422-.663l1.317-4.322c.215-.662.82-1.018 1.027-.571"/><path fill="#fff" d="m385.408 248.922 1.316 2.798a.3.3 0 0 0 .071.107.309.309 0 0 0 .36.059l2.939-1.126c.464-.182.654.48.315 1.109l-2.128 3.983a1.335 1.335 0 0 0-.166.77l.505 3.618c.075.572-.414 1.325-.828 1.276l-2.633-.323a.619.619 0 0 0-.53.306l-2.633 3.362c-.414.538-.902.339-.828-.323l.505-4.198a.618.618 0 0 0-.165-.58l-2.128-1.54c-.34-.24-.149-1.118.314-1.474l2.948-2.268c.2-.178.346-.407.422-.663l1.317-4.322c.215-.662.82-1.018 1.027-.571" opacity=".5"/><path fill="#373737" d="m396.047 47.196-6.624 2.84-1.416 7.063a1.069 1.069 0 0 1-1.847.489l-4.744-5.424-7.162.828a1.06 1.06 0 0 1-1.027-1.656l3.685-6.185-2.998-6.55a1.06 1.06 0 0 1 1.168-1.448l7.021 1.598 5.299-4.877a1.065 1.065 0 0 1 1.106-.215 1.058 1.058 0 0 1 .675.902l.654 7.17 6.276 3.528a1.059 1.059 0 0 1-.066 1.937"/><path fill="#E0E0E0" d="M359.542 34.925a.95.95 0 0 1-.686.372.926.926 0 0 1-.498-.107l-3.685-1.937-3.693 1.937a.925.925 0 0 1-.977-.066.897.897 0 0 1-.316-.402.896.896 0 0 1-.048-.509l.704-4.14-2.989-2.906a.917.917 0 0 1-.232-.952.911.911 0 0 1 .745-.63l4.14-.596 1.847-3.742a.92.92 0 0 1 1.314-.373.94.94 0 0 1 .342.373l1.846 3.742 4.14.596a.927.927 0 0 1 .513 1.582l-2.989 2.906.712 4.14a.976.976 0 0 1-.19.712m-11.783-8.603-.049.108a.338.338 0 0 0 .091.356l3.196 3.122-.754 4.405a.36.36 0 0 0 .143.343.355.355 0 0 0 .371.03l3.958-2.08 3.949 2.08a.375.375 0 0 0 .373 0 .34.34 0 0 0 .141-.349l-.754-4.405 3.196-3.121a.356.356 0 0 0 .091-.356.334.334 0 0 0-.281-.24l-4.43-.646-2.02-4.04a.343.343 0 0 0-.315-.2.353.353 0 0 0-.282.2l-1.97 4.007-4.43.646a.375.375 0 0 0-.224.14"/><path fill="#37474F" d="M313.431 90.252c-6.235-3.61-14.805-3.121-24.277 2.344-19.044 11.012-34.519 37.98-34.519 60.245 0 11.203 3.924 19.044 10.242 22.712 1.466.828 7.195 4.14 7.195 4.14a15.79 15.79 0 0 1-8.039 12.138c-.365.207-.141.563.182.745l8.752 5.06c.118.07.252.11.389.115 8.619 0 18.597-5.796 21.379-17.835a42.863 42.863 0 0 0 3.163-1.656c19.044-11.004 34.519-37.98 34.519-60.237 0-11.211-3.916-19.044-10.234-22.736z"/><path fill="#455A64" d="M297.898 97.646c-19.044 11.004-34.519 37.98-34.519 60.237 0 15.111 7.112 24.153 17.645 24.981-.398 4.802-1.797 10.201-8.28 14.018-.514.306.157.877.587.877 8.62 0 18.597-5.796 21.379-17.835a43.046 43.046 0 0 0 3.163-1.656c19.044-11.004 34.52-37.98 34.52-60.237 0-22.257-15.434-31.39-34.495-20.385"/><path fill="#263238" d="M272.767 196.882c-.315.198-.174.488.091.687l-8.644-4.968c-.323-.199-.547-.538-.183-.754a15.778 15.778 0 0 0 8.04-12.171l.953.563.877.513a17.188 17.188 0 0 0 7.121 2.087c-.389 4.827-1.797 10.226-8.255 14.043"/><path fill="#FAFAFA" d="M294.254 161.369c-.919-.654-1.383-1.83-1.383-3.527.02-1.769.487-3.503 1.358-5.043a9.295 9.295 0 0 1 3.478-3.717c1.407-.812 2.564-.908 3.469-.29.902.612 1.358 1.772 1.358 3.469a10.82 10.82 0 0 1-1.383 5.134 9.24 9.24 0 0 1-3.444 3.767c-1.375.787-2.526.861-3.453.207m-1.234-45.01 9.365-5.407-1.565 31.564-6.235 3.601z"/><path fill="#000" d="M302.5 175.246c10.168-7.452 18.936-19.267 24.302-31.952-10.168 7.46-18.937 19.268-24.302 31.952" opacity=".2"/><path fill="#3A3A3A" d="M367.516 218.385c-3.528.042-6.152-2.426-7.8-5.531 10.565-12.991 17.711-30.296 17.711-45.432 0-11.22-3.933-19.102-10.267-22.745l-8.736-5.035c-6.235-3.601-14.796-3.105-24.26 2.352-19.044 11.012-34.519 37.98-34.519 60.245 0 11.203 3.916 19.044 10.234 22.729 1.473.828 7.278 4.189 8.71 5.026 6.243 3.635 14.83 3.154 24.319-2.327a52.473 52.473 0 0 0 7.211-5.051c6.409 5.076 14.225-.455 17.322-3.105.414-.347.464-1.126.075-1.126"/><path fill="#262626" d="M327.63 231.84c-11.542 0-18.704-9.398-18.704-24.517 0-22.058 15.367-48.852 34.246-59.773 5.282-3.048 10.333-4.596 15.011-4.596 11.535 0 18.705 9.39 18.705 24.517 0 14.465-6.74 31.746-17.587 45.085l-.223.281.165.315c1.946 3.668 4.77 5.721 7.966 5.796a.437.437 0 0 1-.116.182c-2.203 1.888-6.575 5.043-11.104 5.043a8.72 8.72 0 0 1-5.539-1.954l-.34-.265-.339.273a52.612 52.612 0 0 1-7.137 4.968c-5.275 3.055-10.326 4.645-15.004 4.645"/><path fill="#007AFF" d="M358.185 142.416v1.076c11.202 0 18.166 9.191 18.166 23.971 0 14.358-6.69 31.505-17.463 44.753l-.455.555.339.629c1.789 3.379 4.306 5.457 7.196 5.979-2.294 1.83-6.094 4.272-9.978 4.272a8.191 8.191 0 0 1-5.208-1.838l-.679-.538-.67.554a52.488 52.488 0 0 1-7.063 4.969c-5.2 2.997-10.16 4.52-14.739 4.52-11.203 0-18.166-9.19-18.166-24.012 0-21.884 15.243-48.487 33.948-59.309 5.2-2.998 10.16-4.521 14.738-4.521v-1.06m0 0c-4.603 0-9.787 1.499-15.276 4.67-19.044 11.004-34.52 37.972-34.52 60.237 0 15.856 7.842 25.055 19.243 25.055 4.604 0 9.787-1.498 15.277-4.67a52.624 52.624 0 0 0 7.212-5.05 9.187 9.187 0 0 0 5.87 2.07c4.736 0 9.266-3.313 11.451-5.176.414-.347.464-1.126.075-1.126h-.083c-3.477 0-6.077-2.442-7.717-5.531 10.565-12.991 17.711-30.296 17.711-45.432 0-15.856-7.841-25.047-19.243-25.047"/><path fill="#455A64" d="M341.135 191.144a63.081 63.081 0 0 1 3.453-7.021 52.843 52.843 0 0 0 2.434-4.794 9.058 9.058 0 0 0 .787-3.569c0-1.656-.497-2.674-1.491-3.072-.993-.397-2.302-.107-3.949.828a14.463 14.463 0 0 0-4.198 3.726 23.022 23.022 0 0 0-3.097 5.449l-6.086-1.251a35.986 35.986 0 0 1 5.714-9.936 30.63 30.63 0 0 1 8.528-7.278c3.864-2.208 6.958-2.898 9.282-2.07 2.324.828 3.488 3.196 3.494 7.104a19.528 19.528 0 0 1-.679 5.225 25.122 25.122 0 0 1-1.656 4.48c-.654 1.341-1.507 2.939-2.542 4.794a53.19 53.19 0 0 0-2.716 5.291 10.438 10.438 0 0 0-.828 4.14l-7.593 4.388a17.35 17.35 0 0 1 1.143-6.434m-.828 21.305c-.919-.654-1.383-1.83-1.383-3.536.02-1.768.487-3.503 1.358-5.042a9.345 9.345 0 0 1 3.47-3.718c1.415-.828 2.566-.911 3.477-.29s1.358 1.78 1.358 3.478a10.809 10.809 0 0 1-1.383 5.125 9.204 9.204 0 0 1-3.452 3.768c-1.334.794-2.476.861-3.404.215z"/><path fill="#007AFF" d="m166.244 153.429-38.088 22.058 15.128 25.717c.291.694.8 1.275 1.449 1.656 1.805 1.019 12.494 7.212 13.082 7.552a3.513 3.513 0 0 0 3.048.22 3.502 3.502 0 0 0 2.061-2.257l16.427-47.345z"/><path fill="#000" d="m166.244 153.429-38.088 22.058 15.128 25.717c.291.694.8 1.275 1.449 1.656 1.805 1.019 12.494 7.212 13.082 7.552a3.513 3.513 0 0 0 3.048.22 3.502 3.502 0 0 0 2.061-2.257l16.427-47.345z" opacity=".2"/><path fill="#007AFF" d="m141.266 183.055 15.127 25.718a3.482 3.482 0 0 0 3.417 2.067 3.489 3.489 0 0 0 3.116-2.498l16.428-47.345z"/><path fill="#007AFF" d="M208.738 21.528 65.105 104.436a7.282 7.282 0 0 0-3.312 5.713v99.683a7.197 7.197 0 0 0 3.312 5.68l11.816 6.624a7.368 7.368 0 0 0 6.623 0l143.642-82.957a7.314 7.314 0 0 0 3.312-5.713V33.783a7.206 7.206 0 0 0-3.312-5.68l-11.807-6.624a7.385 7.385 0 0 0-6.641.05"/><path fill="#fff" d="M230.44 33.178c-.265-1.656-1.615-2.252-3.263-1.308L83.553 114.803a6.619 6.619 0 0 0-2.327 2.484l-18.39-10.475a6.717 6.717 0 0 1 2.269-2.343l143.641-82.94a7.393 7.393 0 0 1 6.624 0l11.807 6.623a7.278 7.278 0 0 1 3.263 5.026" opacity=".3"/><path fill="#007AFF" d="M80.25 220.579v-99.691a7.272 7.272 0 0 1 3.312-5.705l143.625-82.89c1.813-1.052 3.312-.2 3.312 1.904v99.649a7.31 7.31 0 0 1-3.312 5.714L83.545 222.484c-1.821 1.076-3.295.198-3.295-1.905"/><path fill="#000" d="M83.544 222.103a7.544 7.544 0 0 1-6.624 0l-11.807-6.624a7.17 7.17 0 0 1-3.312-5.663v-99.692a6.824 6.824 0 0 1 1.051-3.312l18.374 10.458a6.499 6.499 0 0 0-.977 3.238v99.683c0 1.929 1.358 3.038 3.295 1.912" opacity=".2"/><path fill="#E0E0E0" d="m120.547 140.761-1.433-.828a3.623 3.623 0 0 0-3.602 0l-8.752 5.051v-11.957l16.204-9.348a5.049 5.049 0 0 0 2.484-4.363v-6.707a5.045 5.045 0 0 0-2.484-4.364 5.035 5.035 0 0 0-5.042 0L95.45 121.22a8.734 8.734 0 0 0-4.372 7.576v62.257a5.049 5.049 0 0 0 2.484 4.372 5.049 5.049 0 0 0 5.043 0l5.605-3.229a5.05 5.05 0 0 0 2.484-4.372v-24.426l13.795-7.965a3.614 3.614 0 0 0 1.796-3.122v-8.412a3.58 3.58 0 0 0-1.738-3.138"/><path fill="#000" d="m99.119 195.127-.48.281a5.044 5.044 0 0 1-5.04-.003 5.054 5.054 0 0 1-2.529-4.36v-62.258a8.73 8.73 0 0 1 1.052-4.14l5.042 2.907a8.653 8.653 0 0 0-1.051 4.14v61.677a2.024 2.024 0 0 0 1.001 1.737 2.018 2.018 0 0 0 2.004.019" opacity=".1"/><path fill="#FAFAFA" d="M106.761 133.027v17.786l13.77-7.941a1.213 1.213 0 0 1 1.217-.005 1.215 1.215 0 0 1 .604 1.057v8.429a3.596 3.596 0 0 1-1.788 3.105l-13.803 7.965v24.418a5.026 5.026 0 0 1-2.484 4.355l-5.1 2.948a2.007 2.007 0 0 1-2.018.002 2.02 2.02 0 0 1-1.005-1.749v-61.703a8.752 8.752 0 0 1 4.372-7.576l22.257-12.851a1.822 1.822 0 0 1 2.732 1.582v6.483a5.013 5.013 0 0 1-2.484 4.339z"/><path fill="#E0E0E0" d="M154.834 95.42a5.958 5.958 0 0 0-6.141-4.26 5.963 5.963 0 0 0-2.553.782l-5.572 3.22a5.943 5.943 0 0 0-2.84 3.884l-16.618 75.663a3.12 3.12 0 0 0 .208 1.894c.266.594.712 1.09 1.274 1.418l1.523.877a3.102 3.102 0 0 0 3.105 0l6.715-3.875a6.04 6.04 0 0 0 2.203-2.36 11.34 11.34 0 0 0 1.234-3.146l2.699-13.795 13.579-7.841 1.408 5.606a3.148 3.148 0 0 0 1.283 1.788c.563.332 4.48 2.575 5.043 2.915a2.193 2.193 0 0 0 2.227-.298l8.197-4.736zm-11.037 41.258 2.906-14.961.174-.828 3.08 12.229z"/><path fill="#000" d="M161.319 158.148c-.737-.438-4.43-2.55-4.968-2.873a3.148 3.148 0 0 1-1.283-1.788l-1.408-5.606 3.759-2.169 2.691 10.681c.199.702.624 1.32 1.209 1.755M155.002 136.024l-5.043-2.914-3.08-12.221v-.05c.265-1.192.53-2.55.828-4.057.356-1.88.687-3.884 1.002-6.028.359 1.722.715 3.309 1.068 4.761a75.468 75.468 0 0 0 1.002 3.734zM126.243 177.192a1.178 1.178 0 0 0 1.466 1.391v.066l-.472.265a3.102 3.102 0 0 1-3.105 0l-1.54-.894a3.118 3.118 0 0 1-1.274-1.418 3.12 3.12 0 0 1-.208-1.894l16.609-75.63c.153-.7.434-1.364.828-1.962l5.043 2.915a5.517 5.517 0 0 0-.828 1.954z" opacity=".1"/><path fill="#FAFAFA" d="m171.816 153.181-8.205 4.736c-.919.53-1.656.629-2.219.298a3.173 3.173 0 0 1-1.284-1.788l-2.691-10.698-17.388 10.01-2.691 13.795a11.747 11.747 0 0 1-1.242 3.154 5.954 5.954 0 0 1-2.202 2.352l-5.937 3.436a1.19 1.19 0 0 1-1.702-.61 1.182 1.182 0 0 1-.053-.673l16.518-75.232a5.952 5.952 0 0 1 2.84-3.875l5.357-3.097a2.91 2.91 0 0 1 4.24 1.697zm-16.817-17.14-4.222-16.808a73.206 73.206 0 0 1-1.002-3.735 132.11 132.11 0 0 1-1.068-4.761 151.11 151.11 0 0 1-.994 6.028 132.258 132.258 0 0 1-1.01 4.919l-4.19 21.528z"/><path fill="#E0E0E0" d="M211.063 124.2a61.564 61.564 0 0 0 3.801-7.733 68.473 68.473 0 0 0 2.815-8.429 72.321 72.321 0 0 0 1.739-8.81c.406-3 .611-6.023.613-9.05.088-4.45-.481-8.89-1.69-13.174a20.047 20.047 0 0 0-4.802-8.594 11.664 11.664 0 0 0-2.401-1.772l-4.968-2.882a11.326 11.326 0 0 0-5.159-1.515c-2.914-.165-6.143.776-9.687 2.824a35.87 35.87 0 0 0-9.704 8.346 55.556 55.556 0 0 0-7.485 11.873 70.061 70.061 0 0 0-6.525 29.312 45.13 45.13 0 0 0 1.706 13.19 19.926 19.926 0 0 0 4.819 8.611 11.322 11.322 0 0 0 2.409 1.822c.828.463 4.099 2.368 4.91 2.84a11.35 11.35 0 0 0 5.225 1.515c2.914.143 6.149-.809 9.704-2.857a31.535 31.535 0 0 0 4.297-2.981l2.054 2.36c.28.287.597.535.944.737.579.34 4.703 2.708 5.017 2.898.553.34 1.2.496 1.847.447a8.076 8.076 0 0 0 3.37-1.2l8.702-5.018zm-7.766-20.782a40.575 40.575 0 0 1-2.526 8.512 27.418 27.418 0 0 1-4.015 6.731 19.92 19.92 0 0 1-5.416 4.645 10.393 10.393 0 0 1-5.067 1.656 15.035 15.035 0 0 1-1.913-4.777 38.667 38.667 0 0 1-.877-8.91 53.3 53.3 0 0 1 .877-9.886 40.505 40.505 0 0 1 2.484-8.512 27.813 27.813 0 0 1 4.041-6.764 19.958 19.958 0 0 1 5.465-4.704c1.49-.952 3.202-1.5 4.968-1.59a15.198 15.198 0 0 1 1.937 4.82c.65 2.93.958 5.925.919 8.926a54.27 54.27 0 0 1-.877 9.886z"/><path fill="#000" d="M181.247 140.967c-1.051-.604-3.941-2.285-4.703-2.716a11.284 11.284 0 0 1-2.409-1.821 19.926 19.926 0 0 1-4.819-8.611 45.13 45.13 0 0 1-1.706-13.19c0-5.099.572-10.182 1.706-15.153a68.888 68.888 0 0 1 4.371-13.173l5.043 2.914a70.028 70.028 0 0 0-6.078 28.359 45.068 45.068 0 0 0 1.706 13.182 19.936 19.936 0 0 0 4.819 8.62c.63.604 1.324 1.137 2.07 1.589M205.814 81.973a5.647 5.647 0 0 0-4.016-2.112h-.43a15.224 15.224 0 0 1 1.929 4.811c.633 2.92.928 5.905.878 8.893a54.276 54.276 0 0 1-.878 9.936 40.513 40.513 0 0 1-2.525 8.512 27.421 27.421 0 0 1-4.016 6.731 19.916 19.916 0 0 1-5.415 4.645 10.397 10.397 0 0 1-5.068 1.656c.181.291.383.568.605.828a5.495 5.495 0 0 0 4.041 2.079 10.019 10.019 0 0 0 5.464-1.656 19.905 19.905 0 0 0 5.415-4.646 27.697 27.697 0 0 0 4.016-6.731 40.508 40.508 0 0 0 2.526-8.52c.597-3.278.891-6.604.877-9.936a38.92 38.92 0 0 0-.877-8.868 13.44 13.44 0 0 0-2.526-5.622M202.112 135.527c-.472.431-.944.828-1.432 1.242l2.053 2.36c.28.287.598.535.944.737.563.331 4.446 2.559 4.968 2.873a4.478 4.478 0 0 1-.878-.704z" opacity=".1"/><path fill="#FAFAFA" d="m222.613 136.993-8.702 5.026a8.173 8.173 0 0 1-3.362 1.193 3.464 3.464 0 0 1-2.774-1.176l-5.663-6.508a32.814 32.814 0 0 1-5.73 4.223c-3.555 2.048-6.789 3-9.704 2.856a11.216 11.216 0 0 1-7.502-3.262 20.01 20.01 0 0 1-4.819-8.62 45.318 45.318 0 0 1-1.705-13.148 70.075 70.075 0 0 1 6.524-29.311 55.606 55.606 0 0 1 7.502-11.899 36.001 36.001 0 0 1 9.704-8.346c3.544-2.053 6.773-2.995 9.688-2.823a11.262 11.262 0 0 1 7.452 3.312 19.955 19.955 0 0 1 4.802 8.602 44.87 44.87 0 0 1 1.706 13.133 67.637 67.637 0 0 1-.605 9.05 73.825 73.825 0 0 1-1.755 8.851 68.564 68.564 0 0 1-2.823 8.421 60.557 60.557 0 0 1-3.801 7.733zm-39.131-25.668a38.68 38.68 0 0 0 .878 8.918 13.572 13.572 0 0 0 2.484 5.605 5.557 5.557 0 0 0 4.04 2.079 10.03 10.03 0 0 0 5.465-1.656 19.933 19.933 0 0 0 5.415-4.645 27.764 27.764 0 0 0 4.024-6.732 40.453 40.453 0 0 0 2.484-8.52 53.4 53.4 0 0 0 .878-9.936 38.472 38.472 0 0 0-.878-8.868 13.529 13.529 0 0 0-2.484-5.605 5.653 5.653 0 0 0-4.024-2.112 9.746 9.746 0 0 0-5.415 1.59 19.78 19.78 0 0 0-5.465 4.695 28.068 28.068 0 0 0-4.04 6.764 40.965 40.965 0 0 0-2.484 8.512 53.301 53.301 0 0 0-.878 9.878z"/></svg>