<svg width="414" height="414" viewBox="0 0 414 414" fill="none" xmlns="http://www.w3.org/2000/svg">
<path d="M45.54 249.998L52.7022 245.362C52.7022 245.362 56.1798 226.889 53.5964 210.586C49.9698 187.584 34.3372 179.676 28.6571 181.945C22.977 184.214 21.6356 191.053 31.8946 204.301C37.9472 212.134 45.7304 228.686 45.54 249.998Z" fill="#007AFF"/>
<g opacity="0.3">
<path d="M45.54 249.998L52.7022 245.362C52.7022 245.362 56.1798 226.889 53.5964 210.586C49.9698 187.584 34.3372 179.676 28.6571 181.945C22.977 184.214 21.6356 191.053 31.8946 204.301C37.9472 212.134 45.7304 228.686 45.54 249.998Z" fill="white"/>
</g>
<path d="M48.1469 240.883H48.0724C47.9382 240.862 47.8173 240.79 47.7354 240.682C47.6534 240.574 47.6169 240.438 47.6335 240.303C50.6061 218.775 41.9617 195.243 32.241 185.746C32.1433 185.651 32.0875 185.52 32.086 185.383C32.0844 185.247 32.1372 185.115 32.2327 185.017C32.3283 184.92 32.4587 184.864 32.5953 184.862C32.732 184.861 32.8637 184.914 32.9614 185.009C42.856 194.672 51.6659 218.593 48.652 240.435C48.636 240.558 48.576 240.671 48.4832 240.754C48.3903 240.836 48.2709 240.882 48.1469 240.883Z" fill="white"/>
<path d="M27.5058 261.648C26.4294 262.261 23.3658 259.901 22.5378 259.33C21.0836 258.339 19.9088 256.99 19.1264 255.413C18.2534 253.615 17.9639 251.589 18.2984 249.617C18.4707 248.578 18.7141 247.552 19.0271 246.546C19.3169 245.552 19.5984 244.558 19.8551 243.565C20.2033 242.603 20.3499 241.58 20.2856 240.559C20.0289 238.522 18.2156 237.098 16.5762 235.864C14.7546 234.506 12.8667 232.71 12.875 230.259C13.0056 228.355 13.7659 226.549 15.0361 225.125C16.2119 223.635 17.6029 222.327 18.6627 220.753C19.4971 219.662 19.9325 218.318 19.8965 216.945C19.7824 216.105 19.5008 215.297 19.0685 214.568C18.2405 212.97 17.0647 211.505 16.4685 209.791C15.8724 208.077 15.9552 205.94 17.2965 204.715C18.3895 203.705 20.0289 203.564 21.5111 203.663C22.9042 203.834 24.2435 204.306 25.4358 205.046C29.3274 207.207 31.5547 211.819 35.6864 213.484C37.3149 213.997 38.9742 214.406 40.6544 214.709C42.3104 215.148 44.0078 216.001 44.7944 217.532C46.3097 220.563 43.4945 224.297 44.5626 227.51C45.5065 230.358 48.272 231.443 49.8204 234.01C50.4533 235.143 50.7085 236.448 50.549 237.736C50.4139 239.912 49.8806 242.045 48.9758 244.028C47.9542 246.087 46.8067 248.081 45.5396 249.998L27.5058 261.648Z" fill="#007AFF"/>
<g opacity="0.65">
<path d="M27.5058 261.648C26.4294 262.261 23.3658 259.901 22.5378 259.33C21.0836 258.339 19.9088 256.99 19.1264 255.413C18.2534 253.615 17.9639 251.589 18.2984 249.617C18.4707 248.578 18.7141 247.552 19.0271 246.546C19.3169 245.552 19.5984 244.558 19.8551 243.565C20.2033 242.603 20.3499 241.58 20.2856 240.559C20.0289 238.522 18.2156 237.098 16.5762 235.864C14.7546 234.506 12.8667 232.71 12.875 230.259C13.0056 228.355 13.7659 226.549 15.0361 225.125C16.2119 223.635 17.6029 222.327 18.6627 220.753C19.4971 219.662 19.9325 218.318 19.8965 216.945C19.7824 216.105 19.5008 215.297 19.0685 214.568C18.2405 212.97 17.0647 211.505 16.4685 209.791C15.8724 208.077 15.9552 205.94 17.2965 204.715C18.3895 203.705 20.0289 203.564 21.5111 203.663C22.9042 203.834 24.2435 204.306 25.4358 205.046C29.3274 207.207 31.5547 211.819 35.6864 213.484C37.3149 213.997 38.9742 214.406 40.6544 214.709C42.3104 215.148 44.0078 216.001 44.7944 217.532C46.3097 220.563 43.4945 224.297 44.5626 227.51C45.5065 230.358 48.272 231.443 49.8204 234.01C50.4533 235.143 50.7085 236.448 50.549 237.736C50.4139 239.912 49.8806 242.045 48.9758 244.028C47.9542 246.087 46.8067 248.081 45.5396 249.998L27.5058 261.648Z" fill="white"/>
</g>
<path d="M37.9048 255.554C37.841 255.552 37.7782 255.537 37.7202 255.511C37.6622 255.484 37.6101 255.446 37.5669 255.399C37.5237 255.352 37.4904 255.297 37.4688 255.237C37.4472 255.177 37.4378 255.113 37.4411 255.049C38.2691 235.806 29.1611 214.552 22.5371 208.383C22.4565 208.292 22.4127 208.174 22.4141 208.053C22.4155 207.932 22.4622 207.815 22.5449 207.726C22.6276 207.637 22.7405 207.582 22.8615 207.572C22.9826 207.562 23.103 207.597 23.1995 207.671C29.9228 213.972 39.1799 235.574 38.3684 255.09C38.3624 255.211 38.3117 255.326 38.226 255.412C38.1403 255.497 38.0258 255.548 37.9048 255.554Z" fill="white"/>
<path d="M34.7747 232.031H34.634C30.0846 230.772 25.4123 230.008 20.6987 229.754C20.6349 229.752 20.5722 229.737 20.5141 229.711C20.4561 229.684 20.404 229.646 20.3608 229.599C20.3177 229.552 20.2843 229.497 20.2627 229.437C20.2411 229.377 20.2317 229.313 20.235 229.249C20.236 229.185 20.25 229.122 20.2763 229.063C20.3026 229.004 20.3405 228.952 20.3878 228.908C20.435 228.865 20.4907 228.832 20.5513 228.811C20.6118 228.789 20.6761 228.781 20.7401 228.785C25.5478 229.036 30.3144 229.805 34.9569 231.079C35.0783 231.121 35.179 231.208 35.2376 231.322C35.2963 231.436 35.3084 231.569 35.2715 231.692C35.2385 231.796 35.1716 231.885 35.0816 231.947C34.9916 232.008 34.8835 232.038 34.7747 232.031Z" fill="white"/>
<path d="M210.047 401.596C315.677 401.596 401.307 352.158 401.307 291.174C401.307 230.19 315.677 180.752 210.047 180.752C104.417 180.752 18.7871 230.19 18.7871 291.174C18.7871 352.158 104.417 401.596 210.047 401.596Z" fill="#262626"/>
<path d="M108.403 244.102C148.917 220.72 214.594 220.72 255.099 244.102C289.436 263.925 294.653 294.188 270.782 317.198L359.916 368.004C365.347 371.143 365.347 376.226 359.916 379.365L351.901 383.993C346.469 387.131 337.825 386.883 332.559 383.447L254.727 329.014C214.155 352.198 148.809 352.107 108.436 328.799C67.8968 305.408 67.8968 267.493 108.403 244.102Z" fill="#3A3A3A"/>
<path d="M124.82 38.502L117.799 42.5592C117.834 42.2514 117.853 41.9418 117.856 41.6319V39.595C117.856 35.9684 115.315 34.5028 112.176 36.283C110.824 37.1082 109.668 38.2188 108.79 39.537C108.268 34.983 104.7 33.2857 100.353 35.7862C95.6578 38.5021 91.8573 45.0929 91.8573 50.5163V53.5551C91.8247 54.7731 92.0711 55.9825 92.5776 57.0906L86.7816 60.4606C85.858 61.0597 85.0902 61.8701 84.5416 62.8246C83.9931 63.7792 83.6796 64.8506 83.627 65.9502C83.627 67.9623 85.0346 68.7737 86.7816 67.7718L124.87 45.7802C125.789 45.1843 126.554 44.3792 127.102 43.4308C127.651 42.4824 127.967 41.4176 128.024 40.3236C127.975 38.3116 126.567 37.5002 124.82 38.502Z" fill="#373737"/>
<path d="M32.2083 56.768L36.1661 53.7127V44.9855C36.1661 38.0635 41.6889 30.0319 47.6753 26.5791C53.67 23.1181 58.5304 25.925 58.5304 32.8388V34.1056C59.794 32.0587 61.5177 30.3349 63.5646 29.0714C67.8785 26.5874 71.3727 28.5994 71.3727 33.5757V34.1553L76.8955 30.9675C79.7355 29.3115 82.0373 30.6529 82.0373 33.9317C81.9409 35.7164 81.4251 37.4532 80.5317 39.0012C79.6383 40.5492 78.3925 41.8647 76.8955 42.841L32.2083 68.6415C29.3682 70.2975 27.0664 68.9478 27.0664 65.669C27.1628 63.8854 27.6787 62.1498 28.5721 60.6031C29.4656 59.0565 30.7114 57.7425 32.2083 56.768Z" fill="#373737"/>
<path d="M90.9395 259.321V284.517C90.9395 298.196 99.9812 311.841 118.056 322.316C154.207 343.189 212.829 343.189 248.98 322.316C267.055 311.874 276.097 298.196 276.097 284.517V259.321C276.097 245.643 267.055 231.997 248.98 221.531C212.829 200.658 154.207 200.658 118.056 221.531C99.9812 231.964 90.9395 245.643 90.9395 259.321ZM267.138 259.321C267.138 270.267 259.098 280.932 244.5 289.361C228.354 298.684 206.702 303.818 183.518 303.818C160.334 303.818 138.682 298.684 122.536 289.361C107.938 280.932 99.8984 270.267 99.8984 259.321C99.8984 248.375 107.938 237.711 122.536 229.281C138.682 219.958 160.334 214.825 183.518 214.825C206.702 214.825 228.363 219.958 244.5 229.281C259.106 237.711 267.138 248.4 267.138 259.321Z" fill="#007AFF"/>
<path opacity="0.2" d="M90.9395 259.321V284.517C90.9395 298.196 99.9812 311.841 118.056 322.316C154.207 343.189 212.829 343.189 248.98 322.316C267.055 311.874 276.097 298.196 276.097 284.517V259.321C276.097 245.643 267.055 231.997 248.98 221.531C212.829 200.658 154.207 200.658 118.056 221.531C99.9812 231.964 90.9395 245.643 90.9395 259.321ZM267.138 259.321C267.138 270.267 259.098 280.932 244.5 289.361C228.354 298.684 206.702 303.818 183.518 303.818C160.334 303.818 138.682 298.684 122.536 289.361C107.938 280.932 99.8984 270.267 99.8984 259.321C99.8984 248.375 107.938 237.711 122.536 229.281C138.682 219.958 160.334 214.825 183.518 214.825C206.702 214.825 228.363 219.958 244.5 229.281C259.106 237.711 267.138 248.4 267.138 259.321Z" fill="white"/>
<path opacity="0.6" d="M276.006 286.869C274.565 295.538 270.748 302.063 255.372 314.061C233.637 331.035 178.6 337.965 146.656 327.425C116.525 317.489 106.912 298.039 106.912 284.7L106.994 276.859C102.341 271.319 99.8901 265.366 99.8901 259.322C99.8901 253.128 102.465 247.026 107.342 241.371L107.45 230.325H105.736C95.8743 239.127 90.9395 249.22 90.9395 259.305V284.501C90.9395 298.18 99.9812 311.825 118.056 322.299C154.207 343.173 212.829 343.173 248.98 322.299C266.02 312.479 275.029 299.736 276.006 286.869Z" fill="#007AFF"/>
<path d="M248.989 221.531C212.83 200.658 154.216 200.658 118.065 221.531C81.9147 242.405 81.9064 276.246 118.065 297.12C154.224 317.993 212.83 317.993 248.989 297.12C285.147 276.246 285.139 242.405 248.989 221.531ZM244.509 289.361C228.363 298.684 206.703 303.818 183.527 303.818C160.351 303.818 138.691 298.684 122.536 289.361C107.939 280.932 99.8989 270.267 99.8989 259.321C99.8989 248.375 107.939 237.711 122.536 229.281C138.682 219.958 160.343 214.825 183.527 214.825C206.711 214.825 228.363 219.958 244.509 229.281C259.107 237.711 267.147 248.383 267.147 259.321C267.147 270.259 259.107 280.932 244.509 289.361Z" fill="#007AFF"/>
<path opacity="0.5" d="M248.989 221.531C212.83 200.658 154.216 200.658 118.065 221.531C81.9147 242.405 81.9064 276.246 118.065 297.12C154.224 317.993 212.83 317.993 248.989 297.12C285.147 276.246 285.139 242.405 248.989 221.531ZM244.509 289.361C228.363 298.684 206.703 303.818 183.527 303.818C160.351 303.818 138.691 298.684 122.536 289.361C107.939 280.932 99.8989 270.267 99.8989 259.321C99.8989 248.375 107.939 237.711 122.536 229.281C138.682 219.958 160.343 214.825 183.527 214.825C206.711 214.825 228.363 219.958 244.509 229.281C259.107 237.711 267.147 248.383 267.147 259.321C267.147 270.259 259.107 280.932 244.509 289.361Z" fill="white"/>
<path d="M267.154 259.321C267.101 263.77 265.851 268.123 263.536 271.923C259.868 265.572 253.401 259.611 244.492 254.485C228.363 245.154 206.694 240.02 183.51 240.02C160.326 240.02 138.674 245.154 122.536 254.485C113.635 259.611 107.177 265.572 103.492 271.923C101.195 268.117 99.9547 263.766 99.8984 259.321C99.8984 248.383 107.938 237.71 122.544 229.273C138.682 219.966 160.342 214.824 183.518 214.824C206.694 214.824 228.371 219.966 244.5 229.273C259.115 237.71 267.154 248.4 267.154 259.321Z" fill="#007AFF"/>
<path opacity="0.3" d="M267.154 259.321C267.101 263.77 265.851 268.123 263.536 271.923C259.868 265.572 253.401 259.611 244.492 254.485C228.363 245.154 206.694 240.02 183.51 240.02C160.326 240.02 138.674 245.154 122.536 254.485C113.635 259.611 107.177 265.572 103.492 271.923C101.195 268.117 99.9547 263.766 99.8984 259.321C99.8984 248.383 107.938 237.71 122.544 229.273C138.682 219.966 160.342 214.824 183.518 214.824C206.694 214.824 228.371 219.966 244.5 229.273C259.115 237.71 267.154 248.4 267.154 259.321Z" fill="white"/>
<path opacity="0.6" d="M122.544 229.273C107.938 237.711 99.8984 248.384 99.8984 259.321C99.9572 263.768 101.2 268.118 103.5 271.924C107.193 265.573 113.652 259.611 122.544 254.486C126.305 252.335 130.211 250.451 134.236 248.847C130.708 250.213 119.878 253.699 123.828 243.374C128.522 231.112 151.433 217.83 168.266 215.628C150.953 217.342 135.08 222.045 122.544 229.273Z" fill="#007AFF"/>
<path opacity="0.4" d="M244.51 240.691C228.364 231.368 206.703 226.234 183.527 226.234C160.352 226.234 138.683 231.368 122.537 240.691C110.498 247.646 102.93 256.125 100.645 265.026C102.93 273.927 110.498 282.414 122.537 289.361C138.691 298.684 160.343 303.818 183.527 303.818C206.711 303.818 228.364 298.684 244.51 289.361C256.557 282.406 264.125 273.927 266.402 265.026C264.133 256.125 256.557 247.646 244.51 240.691Z" fill="#3A3A3A"/>
<path d="M116.352 270.806C121.527 274.863 127.397 277.43 133.384 279.467C139.386 281.455 145.535 282.972 151.773 284.004C164.239 286.028 176.882 286.75 189.497 286.157C195.798 285.876 202.108 285.288 208.375 284.443C214.624 283.604 220.815 282.384 226.914 280.792C232.985 279.273 238.856 277.05 244.41 274.168C245.781 273.437 247.108 272.627 248.384 271.742C249.666 270.867 250.881 269.898 252.019 268.844C253.167 267.784 254.192 266.598 255.075 265.308C255.988 263.983 256.684 262.521 257.136 260.978C257.163 262.67 256.883 264.353 256.308 265.946C255.701 267.546 254.906 269.069 253.94 270.483C252.986 271.907 251.899 273.238 250.695 274.457C249.502 275.682 248.232 276.83 246.894 277.894C241.498 282.007 235.517 285.289 229.15 287.631C222.872 289.996 216.396 291.8 209.8 293.021C203.238 294.263 196.598 295.051 189.928 295.381C176.539 296.081 163.125 294.653 150.184 291.15C143.71 289.376 137.458 286.876 131.545 283.698C128.601 282.084 125.803 280.216 123.183 278.117C122.528 277.596 121.916 277.024 121.286 276.461C120.657 275.898 120.061 275.327 119.49 274.722C118.336 273.507 117.287 272.196 116.352 270.806Z" fill="#262626"/>
<path d="M246.23 313.158C246.342 310.906 246.983 308.712 248.103 306.756C249.222 304.799 250.788 303.134 252.672 301.897C254.444 300.862 256.059 300.754 257.235 301.417L277.868 313.216C279.036 313.886 279.764 315.335 279.773 317.356C279.66 319.607 279.017 321.8 277.898 323.756C276.779 325.713 275.214 327.378 273.331 328.616C271.542 329.66 269.92 329.767 268.744 329.088L248.118 317.298C246.976 316.685 246.239 315.236 246.23 313.158Z" fill="#37474F"/>
<path d="M248.16 317.356C246.976 316.685 246.239 315.236 246.23 313.158C246.26 311.482 246.635 309.83 247.332 308.306L276.982 325.296C276.018 326.653 274.79 327.802 273.372 328.674C271.584 329.718 269.961 329.825 268.785 329.146L248.16 317.356Z" fill="#263238"/>
<path d="M348.124 346.775L282.464 313.316L282.381 313.266C280.857 312.438 278.787 312.587 276.51 313.912C271.857 316.628 268.106 323.185 268.131 328.567C268.131 331.267 269.1 333.155 270.615 334.032L332.326 373.776C334.101 374.9 336.085 375.655 338.159 375.995C340.232 376.336 342.353 376.256 344.395 375.759C346.437 375.262 348.358 374.359 350.043 373.104C351.728 371.849 353.143 370.267 354.204 368.453C355.265 366.639 355.95 364.63 356.217 362.546C356.485 360.462 356.33 358.345 355.762 356.322C355.193 354.299 354.224 352.411 352.91 350.771C351.596 349.13 349.966 347.772 348.116 346.775H348.124Z" fill="#455A64"/>
<path d="M270.624 334.048L332.335 373.792C334.629 375.232 337.258 376.052 339.964 376.17C342.671 376.288 345.361 375.701 347.772 374.466C350.183 373.232 352.232 371.391 353.718 369.126C355.204 366.862 356.075 364.249 356.248 361.546C355.064 366.688 346.568 371.06 336.036 365.173C325.504 359.286 286.489 334.619 268.761 324.41C268.345 325.751 268.127 327.146 268.115 328.55C268.124 331.283 269.101 333.17 270.624 334.048Z" fill="#37474F"/>
<path d="M270.625 334.048C269.085 333.17 268.141 331.283 268.141 328.583C268.141 323.201 271.867 316.644 276.52 313.928C278.797 312.603 280.867 312.462 282.39 313.282L288.186 316.23C286.622 315.402 284.51 315.534 282.167 316.892C277.398 319.674 273.547 326.406 273.572 331.929C273.572 334.694 274.525 336.673 276.098 337.567" fill="#007AFF"/>
<path opacity="0.2" d="M276.088 337.567C274.515 336.673 273.604 334.694 273.562 331.928C273.571 330.465 273.797 329.011 274.233 327.615C272.254 326.439 270.408 325.362 268.76 324.41C268.551 325.102 268.388 325.808 268.272 326.522C268.222 326.869 268.18 327.217 268.147 327.565C268.147 327.913 268.106 328.252 268.147 328.583C268.147 331.283 269.116 333.17 270.631 334.048L276.088 337.567Z" fill="black"/>
<path d="M113.61 372.401L63.9298 347.553L44.1406 356.313L113.61 372.401Z" fill="#007AFF"/>
<g opacity="0.15">
<path d="M113.61 372.401L63.9298 347.553L44.1406 356.313L113.61 372.401Z" fill="white"/>
</g>
<path d="M113.609 372.401L69.8496 343.148L77.6825 331.887L113.609 372.401Z" fill="#007AFF"/>
<g opacity="0.15">
<path d="M113.609 372.401L69.8496 343.148L77.6825 331.887L113.609 372.401Z" fill="white"/>
</g>
<path d="M69.8496 343.147L70.6693 350.922L113.609 372.401L69.8496 343.147Z" fill="#007AFF"/>
<g opacity="0.2">
<path d="M69.8496 343.147L70.6693 350.922L113.609 372.401L69.8496 343.147Z" fill="black"/>
</g>
<path d="M62.7624 341.657C62.8827 341.654 62.9977 341.607 63.0853 341.525C63.1867 341.425 63.2478 341.291 63.257 341.149C63.2661 341.007 63.2227 340.867 63.135 340.755L62.1828 339.479C62.1442 339.426 62.0946 339.381 62.0372 339.348C61.9798 339.315 61.916 339.294 61.8501 339.288C61.7842 339.282 61.7178 339.29 61.6552 339.311C61.5926 339.333 61.5354 339.368 61.4873 339.413C61.3863 339.513 61.3248 339.646 61.3142 339.787C61.3035 339.929 61.3444 340.069 61.4293 340.183C61.744 340.605 62.0669 341.011 62.3898 341.433C62.4305 341.497 62.4853 341.55 62.5499 341.589C62.6145 341.628 62.6873 341.651 62.7624 341.657Z" fill="#455A64"/>
<path d="M58.3993 336.01C57.8086 335.149 57.2373 334.28 56.6853 333.402C56.6106 333.282 56.5821 333.138 56.6049 332.998C56.6277 332.858 56.7004 332.731 56.8095 332.64C56.861 332.6 56.9208 332.571 56.9846 332.555C57.0485 332.539 57.115 332.538 57.1795 332.55C57.244 332.563 57.305 332.589 57.3583 332.628C57.4117 332.666 57.4561 332.716 57.4885 332.773C58.0432 333.642 58.6063 334.503 59.1445 335.356C59.2255 335.473 59.2603 335.616 59.2419 335.756C59.2236 335.897 59.1534 336.026 59.0451 336.118C58.9648 336.188 58.8618 336.226 58.7553 336.226C58.6838 336.218 58.6148 336.195 58.5532 336.158C58.4917 336.121 58.4391 336.07 58.3993 336.01ZM54.0191 328.898C53.5141 327.979 53.0173 327.043 52.5453 326.108C52.4804 325.982 52.464 325.836 52.4991 325.699C52.5342 325.562 52.6184 325.442 52.7357 325.362C52.7927 325.327 52.8566 325.305 52.9231 325.297C52.9895 325.289 53.0569 325.295 53.1206 325.316C53.1843 325.336 53.2429 325.37 53.2922 325.415C53.3415 325.461 53.3805 325.516 53.4064 325.578C53.8701 326.497 54.3586 327.416 54.8554 328.327C54.9259 328.45 54.9489 328.594 54.9199 328.733C54.8909 328.872 54.812 328.996 54.6981 329.08C54.6208 329.128 54.5321 329.153 54.4414 329.155C54.3546 329.153 54.2697 329.129 54.1954 329.084C54.1212 329.038 54.0603 328.974 54.0191 328.898ZM50.3263 321.313C49.9123 320.328 49.4983 319.335 49.1505 318.349C49.0997 318.219 49.0986 318.074 49.1475 317.943C49.1963 317.811 49.2917 317.703 49.4155 317.637C49.4771 317.611 49.5436 317.598 49.6106 317.599C49.6775 317.6 49.7436 317.615 49.8044 317.643C49.8652 317.671 49.9195 317.712 49.9637 317.762C50.008 317.812 50.0412 317.871 50.0613 317.935C50.4173 318.904 50.8065 319.881 51.2205 320.85C51.2762 320.98 51.2825 321.125 51.2382 321.259C51.194 321.394 51.1023 321.507 50.9804 321.578C50.9161 321.611 50.8453 321.628 50.7734 321.628C50.6762 321.625 50.5821 321.594 50.5026 321.538C50.4232 321.482 50.3618 321.404 50.3263 321.313ZM47.4614 313.298C47.1633 312.263 46.8818 311.212 46.6334 310.193C46.5938 310.058 46.6079 309.913 46.6727 309.788C46.7375 309.663 46.848 309.568 46.9811 309.523C47.0459 309.506 47.1135 309.502 47.1798 309.512C47.246 309.522 47.3095 309.546 47.3661 309.582C47.4228 309.618 47.4716 309.665 47.5093 309.72C47.5471 309.775 47.573 309.838 47.5856 309.904C47.8257 310.914 48.0989 311.94 48.4136 312.959C48.4557 313.092 48.4469 313.236 48.3887 313.363C48.3306 313.49 48.2273 313.591 48.0989 313.646H47.9499C47.842 313.648 47.7364 313.615 47.6484 313.553C47.5605 313.49 47.495 313.401 47.4614 313.298ZM45.5404 304.927C45.3748 303.876 45.2258 302.799 45.1016 301.731C45.0773 301.594 45.1081 301.453 45.1871 301.338C45.2661 301.224 45.3871 301.145 45.5239 301.119C45.6596 301.109 45.7936 301.153 45.8972 301.242C46.0009 301.33 46.066 301.455 46.0786 301.59C46.1945 302.642 46.3436 303.702 46.5092 304.737C46.5371 304.872 46.5123 305.012 46.4399 305.129C46.3675 305.246 46.253 305.331 46.12 305.366H46.0289C45.9096 305.36 45.7959 305.313 45.707 305.233C45.618 305.153 45.5592 305.045 45.5404 304.927ZM44.7124 296.349C44.7124 295.521 44.6627 294.693 44.6627 293.807V293.112C44.6594 293.044 44.6694 292.977 44.6921 292.913C44.7149 292.85 44.75 292.791 44.7954 292.741C44.8407 292.691 44.8955 292.651 44.9566 292.622C45.0177 292.593 45.0838 292.577 45.1513 292.574C45.2882 292.584 45.4155 292.648 45.5054 292.752C45.5953 292.856 45.6406 292.991 45.6315 293.128V293.807C45.6315 294.635 45.6315 295.463 45.6315 296.291C45.6431 296.429 45.6002 296.566 45.512 296.673C45.4238 296.78 45.2973 296.848 45.1595 296.863C45.0352 296.846 44.921 296.785 44.8386 296.691C44.7563 296.596 44.7114 296.475 44.7124 296.349ZM45.3665 288.326C45.231 288.302 45.11 288.226 45.0283 288.115C44.9467 288.004 44.9107 287.866 44.9277 287.73C45.0188 286.662 45.1347 285.577 45.2672 284.509C45.2722 284.441 45.291 284.375 45.3225 284.315C45.354 284.255 45.3974 284.202 45.4502 284.159C45.5029 284.117 45.5639 284.085 45.6292 284.067C45.6946 284.049 45.763 284.044 45.8302 284.053C45.9655 284.081 46.0844 284.161 46.1618 284.276C46.2391 284.39 46.2687 284.53 46.2442 284.666C46.1117 285.718 45.9958 286.786 45.9047 287.829C45.8989 287.958 45.8457 288.079 45.7556 288.171C45.6654 288.263 45.5446 288.318 45.4162 288.326H45.3665ZM46.5257 279.864C46.3932 279.822 46.2817 279.73 46.214 279.609C46.1463 279.487 46.1275 279.345 46.1614 279.21C46.3767 278.158 46.6251 277.107 46.8983 276.072C46.9107 276.006 46.9367 275.943 46.9745 275.888C47.0124 275.833 47.0614 275.787 47.1183 275.752C47.1752 275.717 47.2387 275.694 47.3049 275.685C47.3712 275.676 47.4385 275.68 47.5028 275.699C47.6338 275.749 47.7413 275.847 47.8041 275.973C47.867 276.098 47.8805 276.243 47.8423 276.378C47.5773 277.388 47.3289 278.431 47.1136 279.458C47.0964 279.572 47.0398 279.677 46.9536 279.754C46.8675 279.831 46.7572 279.876 46.6417 279.88L46.5257 279.864ZM48.7613 271.675C48.6354 271.614 48.5372 271.507 48.4865 271.377C48.4359 271.246 48.4364 271.101 48.4881 270.971C48.8441 269.977 49.2416 268.976 49.6556 267.999C49.679 267.937 49.715 267.88 49.7613 267.833C49.8076 267.785 49.8632 267.748 49.9246 267.723C49.9861 267.698 50.052 267.686 50.1183 267.688C50.1846 267.69 50.2497 267.705 50.3097 267.734C50.4303 267.806 50.5209 267.92 50.565 268.053C50.6091 268.187 50.6037 268.332 50.5498 268.462C50.1358 269.423 49.7218 270.4 49.3989 271.377C49.3678 271.474 49.3073 271.559 49.2256 271.619C49.144 271.68 49.0453 271.714 48.9435 271.716C48.8802 271.719 48.8174 271.704 48.7613 271.675ZM52.1644 263.983C52.0478 263.901 51.9655 263.778 51.9335 263.639C51.9014 263.5 51.9217 263.354 51.9905 263.229C52.4956 262.31 53.0255 261.391 53.5637 260.505C53.5956 260.446 53.6397 260.395 53.6931 260.355C53.7465 260.315 53.8079 260.287 53.8731 260.273C53.9384 260.259 54.0059 260.259 54.0712 260.273C54.1364 260.288 54.1977 260.316 54.251 260.356C54.36 260.447 54.4332 260.573 54.4575 260.713C54.4817 260.852 54.4555 260.996 54.3835 261.118C53.8453 261.987 53.3236 262.89 52.8351 263.792C52.7957 263.871 52.7355 263.937 52.661 263.984C52.5866 264.031 52.5007 264.056 52.4128 264.057C52.3245 264.057 52.2382 264.031 52.1644 263.983ZM56.5611 256.953C56.4607 256.855 56.3995 256.723 56.3889 256.583C56.3782 256.443 56.4188 256.304 56.5031 256.191C57.1241 255.363 57.7783 254.535 58.4324 253.757C58.4751 253.706 58.5284 253.666 58.5885 253.638C58.6485 253.61 58.7139 253.596 58.7801 253.596C58.8463 253.596 58.9118 253.61 58.9718 253.638C59.0319 253.666 59.0852 253.706 59.1279 253.757C59.2222 253.863 59.2743 254 59.2743 254.142C59.2743 254.284 59.2222 254.421 59.1279 254.527C58.4821 255.297 57.8445 256.092 57.2318 256.912C57.1885 256.973 57.1315 257.022 57.0653 257.057C56.999 257.091 56.9256 257.11 56.8509 257.11C56.7877 257.109 56.7255 257.094 56.6684 257.067C56.6113 257.04 56.5607 257.001 56.5197 256.953H56.5611ZM61.8851 250.76C61.7909 250.653 61.7388 250.516 61.7388 250.375C61.7388 250.233 61.7909 250.096 61.8851 249.99C62.6138 249.269 63.3673 248.565 64.1207 247.903C64.1704 247.859 64.2291 247.826 64.2927 247.806C64.3563 247.787 64.4233 247.781 64.4893 247.789C64.5553 247.798 64.6187 247.821 64.6751 247.856C64.7315 247.891 64.7796 247.938 64.8163 247.994C64.8964 248.111 64.9321 248.253 64.9169 248.394C64.9018 248.535 64.8367 248.667 64.7335 248.764C63.9883 249.41 63.2513 250.097 62.531 250.801C62.446 250.889 62.33 250.939 62.2081 250.942C62.1376 250.941 62.0683 250.924 62.0052 250.892C61.9422 250.86 61.887 250.815 61.8437 250.76H61.8851ZM67.9792 245.518C67.9113 245.395 67.889 245.252 67.9162 245.114C67.9435 244.977 68.0186 244.853 68.1283 244.765C68.9563 244.169 69.7843 243.614 70.6123 243.109C70.6689 243.075 70.7322 243.054 70.7977 243.047C70.8632 243.04 70.9295 243.046 70.9922 243.067C71.0548 243.087 71.1125 243.121 71.1612 243.165C71.2099 243.209 71.2486 243.264 71.2747 243.324C71.339 243.449 71.3552 243.593 71.32 243.729C71.2849 243.865 71.201 243.983 71.0842 244.061C70.2562 244.558 69.4282 245.104 68.6002 245.717C68.5227 245.772 68.43 245.8 68.3353 245.8C68.2507 245.79 68.1698 245.759 68.1004 245.71C68.0309 245.661 67.975 245.595 67.9378 245.518H67.9792Z" fill="#455A64"/>
<path d="M75.2648 241.941H75.4138C75.8512 241.776 76.303 241.651 76.7635 241.569C76.8994 241.539 77.0184 241.457 77.0956 241.342C77.1728 241.226 77.2021 241.085 77.1775 240.948C77.1723 240.881 77.1537 240.815 77.1229 240.755C77.092 240.695 77.0495 240.642 76.9978 240.599C76.9461 240.556 76.8863 240.523 76.8219 240.504C76.7575 240.484 76.6897 240.477 76.6227 240.484C76.1098 240.58 75.6057 240.718 75.1158 240.898C74.9846 240.95 74.8783 241.05 74.8183 241.178C74.7583 241.305 74.7492 241.451 74.7928 241.585C74.8241 241.687 74.8866 241.776 74.9713 241.84C75.056 241.903 75.1587 241.939 75.2648 241.941Z" fill="#455A64"/>
<path d="M307.768 51.4603L256.846 35.8525L296.076 62.8039L307.768 51.4603Z" fill="#007AFF"/>
<path opacity="0.15" d="M307.768 51.4603L256.846 35.8525L296.076 62.8039L307.768 51.4603Z" fill="white"/>
<path d="M256.846 35.8525L311.651 44.6707L323.342 33.3271L256.846 35.8525Z" fill="#007AFF"/>
<path opacity="0.15" d="M256.846 35.8525L311.651 44.6707L323.342 33.3271L256.846 35.8525Z" fill="white"/>
<path d="M311.651 44.6707L311.701 58.2168L307.768 51.4603L256.846 35.8525L311.651 44.6707Z" fill="#007AFF"/>
<path opacity="0.2" d="M311.651 44.6707L311.701 58.2168L307.768 51.4603L256.846 35.8525L311.651 44.6707Z" fill="black"/>
<path d="M311.7 58.2164L303.867 55.2439L307.767 51.46L311.7 58.2164Z" fill="#007AFF"/>
<path opacity="0.2" d="M307.767 51.46L303.867 55.2439L305.117 55.7159L307.767 51.46Z" fill="black"/>
<path d="M321.977 49.0758C321.929 49.1112 321.889 49.1558 321.86 49.2071C321.83 49.2583 321.811 49.315 321.803 49.3739C321.786 49.5152 321.82 49.658 321.899 49.7765C321.978 49.895 322.097 49.9812 322.234 50.0197L323.741 50.4255C323.804 50.4454 323.871 50.4512 323.936 50.4426C324.002 50.434 324.065 50.4112 324.121 50.3757C324.177 50.3402 324.225 50.293 324.261 50.2372C324.296 50.1814 324.32 50.1185 324.329 50.0529C324.348 49.9135 324.317 49.7716 324.241 49.6531C324.165 49.5346 324.05 49.4473 323.915 49.407L322.391 49.0013C322.321 48.9809 322.247 48.977 322.175 48.9899C322.103 49.0028 322.036 49.0322 321.977 49.0758Z" fill="#455A64"/>
<path d="M328.874 50.9225C329.859 51.2537 330.845 51.6015 331.813 51.9575C331.946 52.0078 332.057 52.1038 332.125 52.2283C332.193 52.3527 332.215 52.4975 332.186 52.6365C332.169 52.7006 332.138 52.7602 332.096 52.8114C332.054 52.8625 332.001 52.904 331.941 52.9331C331.882 52.9621 331.816 52.978 331.75 52.9797C331.684 52.9814 331.618 52.9688 331.557 52.9429C330.596 52.5868 329.619 52.2473 328.642 51.9161C328.509 51.8707 328.397 51.7784 328.327 51.6566C328.257 51.5347 328.234 51.3916 328.261 51.2537C328.281 51.1475 328.34 51.0527 328.427 50.9888C328.49 50.9412 328.564 50.9102 328.642 50.8987C328.72 50.8871 328.8 50.8953 328.874 50.9225ZM336.666 53.9199C337.634 54.3505 338.586 54.7479 339.53 55.253C339.658 55.3128 339.759 55.4177 339.814 55.5477C339.869 55.6776 339.874 55.8234 339.828 55.9568C339.804 56.0186 339.766 56.0744 339.718 56.1207C339.671 56.167 339.614 56.2026 339.551 56.2253C339.489 56.248 339.422 56.2571 339.356 56.2523C339.289 56.2474 339.225 56.2285 339.166 56.1969C338.239 55.7415 337.295 55.3027 336.343 54.8887C336.214 54.8306 336.111 54.7284 336.052 54.6008C335.993 54.4732 335.981 54.3285 336.02 54.1931C336.047 54.1038 336.102 54.0254 336.177 53.9696C336.246 53.9181 336.328 53.8863 336.414 53.8776C336.5 53.8688 336.587 53.8835 336.666 53.9199ZM344.2 57.7204C345.128 58.2503 346.038 58.8051 346.933 59.3764C347.052 59.4503 347.14 59.5649 347.181 59.6988C347.222 59.8328 347.213 59.9771 347.156 60.1051C347.123 60.1637 347.079 60.2147 347.025 60.2549C346.971 60.2951 346.909 60.3235 346.843 60.3383C346.778 60.3532 346.71 60.3541 346.644 60.341C346.578 60.3279 346.516 60.3011 346.461 60.2624C345.583 59.7076 344.681 59.1694 343.77 58.6064C343.647 58.5379 343.554 58.4266 343.508 58.2937C343.462 58.1608 343.467 58.0156 343.521 57.886C343.549 57.817 343.595 57.7569 343.654 57.7121C343.736 57.6599 343.831 57.6329 343.928 57.6344C344.025 57.6358 344.12 57.6658 344.2 57.7204ZM351.338 62.3655C352.207 63.0031 353.06 63.6655 353.88 64.3279C353.991 64.4134 354.065 64.5378 354.088 64.676C354.111 64.8143 354.081 64.9561 354.004 65.0731C353.963 65.1267 353.911 65.1711 353.852 65.2034C353.793 65.2358 353.728 65.2553 353.661 65.2608C353.594 65.2662 353.526 65.2575 353.462 65.2352C353.399 65.2128 353.341 65.1773 353.292 65.131C352.464 64.4769 351.636 63.8311 350.808 63.2018C350.692 63.1211 350.61 62.9996 350.579 62.8615C350.549 62.7234 350.571 62.5789 350.642 62.4566C350.666 62.4132 350.7 62.3763 350.742 62.3489C350.83 62.2893 350.935 62.2588 351.042 62.2618C351.149 62.2647 351.252 62.301 351.338 62.3655ZM357.92 67.8965C358.699 68.6335 359.469 69.3952 360.214 70.1735C360.31 70.2738 360.364 70.4073 360.364 70.5461C360.364 70.685 360.31 70.8185 360.214 70.9187C360.166 70.9668 360.109 71.005 360.047 71.031C359.984 71.057 359.917 71.0704 359.85 71.0704C359.782 71.0704 359.715 71.057 359.652 71.031C359.59 71.005 359.533 70.9668 359.485 70.9187C358.757 70.157 357.995 69.4035 357.233 68.6831C357.129 68.5906 357.065 68.4621 357.052 68.3237C357.04 68.1852 357.081 68.0473 357.167 67.9379L357.233 67.8717C357.33 67.7901 357.454 67.7474 357.581 67.752C357.708 67.7566 357.829 67.8081 357.92 67.8965ZM363.791 74.2059C364.329 74.86 364.851 75.5224 365.372 76.2014L365.786 76.7561C365.873 76.862 365.915 76.9977 365.902 77.134C365.89 77.2703 365.824 77.3963 365.72 77.4848C365.664 77.5236 365.6 77.5507 365.533 77.5647C365.466 77.5786 365.397 77.579 365.33 77.5659C365.263 77.5528 365.199 77.5264 365.143 77.4883C365.086 77.4502 365.037 77.4012 365 77.344L364.586 76.7975C364.081 76.1351 363.567 75.481 363.037 74.8352C362.942 74.7363 362.888 74.6042 362.888 74.4667C362.888 74.3292 362.942 74.1971 363.037 74.0983C363.09 74.0507 363.153 74.0148 363.22 73.9926C363.288 73.9705 363.36 73.9627 363.43 73.9697C363.501 73.9767 363.57 73.9984 363.632 74.0333C363.694 74.0683 363.748 74.1158 363.791 74.1728V74.2059ZM368.138 80.9955C368.259 80.9314 368.401 80.9163 368.533 80.9532C368.666 80.9902 368.779 81.0764 368.85 81.1942C369.421 82.105 369.984 83.0324 370.506 83.968C370.542 84.0249 370.566 84.0884 370.578 84.1548C370.589 84.2212 370.587 84.2892 370.571 84.3548C370.556 84.4204 370.528 84.4822 370.488 84.5367C370.448 84.5911 370.398 84.6371 370.34 84.6718C370.214 84.728 370.072 84.7345 369.941 84.6899C369.811 84.6454 369.702 84.5531 369.636 84.4317C369.107 83.5126 368.552 82.5935 367.98 81.7076C367.907 81.6024 367.876 81.4735 367.892 81.3463C367.909 81.2191 367.973 81.1028 368.072 81.0203L368.138 80.9955ZM372.336 88.4475C372.468 88.3999 372.613 88.4042 372.742 88.4595C372.871 88.5149 372.975 88.6171 373.031 88.7456C373.487 89.7143 373.934 90.6997 374.34 91.685C374.368 91.7456 374.384 91.8115 374.387 91.8785C374.39 91.9456 374.378 92.0125 374.354 92.0752C374.33 92.1378 374.294 92.195 374.247 92.2432C374.201 92.2914 374.145 92.3297 374.083 92.3557C373.948 92.3939 373.803 92.3803 373.678 92.3175C373.552 92.2547 373.454 92.1472 373.404 92.0162C373.006 91.0474 372.576 90.0787 372.12 89.1347C372.063 89.0321 372.045 88.9126 372.067 88.7974C372.09 88.6822 372.153 88.5788 372.245 88.5055C372.266 88.4606 372.297 88.421 372.336 88.3895V88.4475ZM375.524 96.3135C375.661 96.2874 375.804 96.3137 375.923 96.3872C376.043 96.4607 376.131 96.5761 376.169 96.7109C376.484 97.7211 376.782 98.7561 377.039 99.7828C377.059 99.8465 377.065 99.9136 377.057 99.9798C377.049 100.046 377.027 100.11 376.992 100.167C376.958 100.224 376.912 100.273 376.857 100.311C376.802 100.349 376.74 100.375 376.674 100.387C376.536 100.405 376.396 100.371 376.281 100.292C376.166 100.212 376.085 100.093 376.053 99.9567C375.797 98.9465 375.507 97.9281 375.225 96.9428C375.19 96.8475 375.186 96.7437 375.213 96.6457C375.239 96.5478 375.296 96.4606 375.375 96.3963C375.412 96.3378 375.463 96.2895 375.524 96.2555V96.3135ZM377.511 104.469C377.653 104.466 377.791 104.514 377.899 104.606C378.007 104.698 378.078 104.826 378.099 104.966C378.264 106.001 378.397 107.053 378.504 108.096C378.513 108.161 378.507 108.227 378.488 108.289C378.469 108.352 378.437 108.41 378.394 108.459C378.351 108.508 378.298 108.548 378.238 108.575C378.179 108.602 378.114 108.617 378.049 108.618C377.907 108.616 377.771 108.562 377.667 108.465C377.563 108.369 377.498 108.237 377.486 108.096C377.378 107.077 377.254 106.051 377.088 105.032C377.074 104.947 377.082 104.858 377.112 104.777C377.143 104.695 377.195 104.623 377.262 104.569C377.326 104.491 377.413 104.435 377.511 104.411V104.469Z" fill="#455A64"/>
<path d="M386.576 236.667C384.357 235.343 381.227 235.525 377.749 237.495L314.689 273.927C307.957 277.811 302.492 287.051 302.492 294.561C302.492 298.229 303.8 300.796 305.92 302.013L312.685 305.913C314.896 307.172 317.984 306.973 321.412 304.994L384.481 268.562C391.212 264.679 396.669 255.438 396.669 247.928C396.669 244.285 395.377 241.71 393.274 240.476C392.123 239.847 387.685 237.33 386.576 236.667Z" fill="#3A3A3A"/>
<path d="M315.814 306.36C312.005 306.36 309.637 303.346 309.637 298.502C309.637 291.141 315.01 282.041 321.618 278.233L384.687 241.801C386.311 240.793 388.167 240.223 390.077 240.145C393.886 240.145 396.254 243.158 396.254 248.002C396.254 255.371 390.88 264.463 384.273 268.28L321.204 304.712C319.581 305.72 317.723 306.288 315.814 306.36Z" fill="#262626"/>
<path d="M390.079 240.526C393.631 240.526 395.875 243.382 395.875 247.978C395.875 255.214 390.592 264.149 384.101 267.85L321.032 304.282C319.472 305.256 317.686 305.809 315.849 305.888C315.062 305.915 314.28 305.76 313.562 305.437C312.845 305.114 312.21 304.631 311.709 304.025C310.532 302.41 309.948 300.44 310.053 298.444C310.053 291.216 315.335 282.282 321.827 278.572L384.896 242.14C386.456 241.167 388.241 240.613 390.079 240.534M390.079 239.706C388.095 239.781 386.165 240.375 384.482 241.428L321.413 277.86C314.681 281.752 309.225 290.984 309.225 298.494C309.225 303.752 311.899 306.774 315.849 306.774C317.831 306.697 319.76 306.107 321.446 305.06L384.515 268.628C391.246 264.745 396.703 255.504 396.703 247.994C396.703 242.737 394.028 239.714 390.079 239.714V239.706Z" fill="#050505"/>
<path d="M331.298 285.958C331.555 285.478 331.513 284.981 331.298 284.848L329.187 283.631C329.142 283.608 329.092 283.596 329.042 283.596C328.991 283.596 328.942 283.608 328.897 283.631L326.959 284.376L326.322 283.018C326.29 282.951 326.238 282.896 326.173 282.861L324.061 281.636C323.796 281.487 323.358 281.826 323.184 282.389L321.867 286.703C321.795 286.963 321.645 287.194 321.437 287.365L318.497 289.642C318.025 289.998 317.843 290.876 318.183 291.116L320.31 292.656C320.384 292.732 320.437 292.824 320.466 292.925C320.495 293.026 320.498 293.133 320.476 293.236L319.971 297.434C319.93 297.74 320.021 297.947 320.161 298.022L322.273 299.247C322.438 299.338 322.687 299.247 322.91 298.974L325.543 295.612C325.598 295.52 325.676 295.444 325.769 295.39C325.861 295.337 325.966 295.308 326.073 295.306L328.715 295.596C329.129 295.654 329.617 294.892 329.543 294.321L329.038 290.702C329.015 290.435 329.072 290.167 329.203 289.932L331.298 285.958Z" fill="#007AFF"/>
<path opacity="0.15" d="M331.272 284.833C331.227 284.812 331.177 284.801 331.127 284.801C331.077 284.801 331.028 284.812 330.983 284.833L328.035 285.959C327.997 285.978 327.955 285.988 327.912 285.99C327.869 285.992 327.827 285.985 327.787 285.969C327.747 285.954 327.711 285.93 327.681 285.9C327.651 285.869 327.628 285.833 327.613 285.793L326.934 284.352L328.871 283.615C328.916 283.593 328.966 283.581 329.016 283.581C329.066 283.581 329.116 283.593 329.161 283.615L331.272 284.833Z" fill="white"/>
<path opacity="0.15" d="M323.952 287.912C323.878 288.171 323.728 288.402 323.522 288.575L320.582 290.844C320.447 290.949 320.339 291.085 320.268 291.241L318.156 290.016C318.232 289.863 318.339 289.727 318.471 289.618L321.41 287.349C321.617 287.18 321.767 286.952 321.841 286.695L323.952 287.912Z" fill="white"/>
<path opacity="0.1" d="M326.164 282.853C325.899 282.679 325.452 283.018 325.27 283.598L323.953 287.912L321.842 286.686L323.158 282.373C323.332 281.81 323.771 281.47 324.036 281.619C324.094 281.619 325.882 282.695 326.156 282.845L326.164 282.853Z" fill="black"/>
<path opacity="0.25" d="M322.397 293.866L320.302 292.657L318.174 291.117C317.926 290.935 317.959 290.438 318.174 290.032L320.286 291.258C320.07 291.655 320.037 292.16 320.286 292.342L322.397 293.866Z" fill="black"/>
<path opacity="0.15" d="M322.092 298.643C322.092 298.95 322.142 299.157 322.299 299.239L320.179 298.014C320.096 297.944 320.034 297.851 320.002 297.747C319.97 297.642 319.968 297.531 319.997 297.426L320.502 293.228C320.523 293.129 320.521 293.027 320.495 292.929C320.469 292.831 320.42 292.741 320.353 292.665L322.448 293.874C322.516 293.948 322.564 294.036 322.59 294.133C322.616 294.23 322.619 294.331 322.597 294.429L322.092 298.643Z" fill="black"/>
<path d="M326.296 283.002L327.613 285.801C327.628 285.841 327.651 285.877 327.681 285.908C327.712 285.938 327.748 285.962 327.787 285.977C327.827 285.993 327.87 286 327.912 285.998C327.955 285.996 327.997 285.986 328.035 285.967L330.983 284.84C331.446 284.658 331.637 285.321 331.297 285.958L329.169 289.949C329.038 290.184 328.981 290.452 329.004 290.719L329.509 294.338C329.583 294.909 329.095 295.671 328.681 295.613L326.048 295.29C325.941 295.292 325.836 295.321 325.743 295.374C325.65 295.428 325.573 295.504 325.518 295.596L322.918 298.958C322.496 299.496 322.007 299.306 322.09 298.635L322.595 294.437C322.619 294.334 322.616 294.227 322.587 294.126C322.558 294.024 322.504 293.932 322.43 293.857L320.302 292.326C319.962 292.077 320.153 291.208 320.616 290.843L323.556 288.575C323.764 288.404 323.914 288.172 323.986 287.912L325.303 283.598C325.477 282.911 326.081 282.563 326.296 283.002Z" fill="#007AFF"/>
<path opacity="0.5" d="M326.296 283.002L327.613 285.801C327.628 285.841 327.651 285.877 327.681 285.908C327.712 285.938 327.748 285.962 327.787 285.977C327.827 285.993 327.87 286 327.912 285.998C327.955 285.996 327.997 285.986 328.035 285.967L330.983 284.84C331.446 284.658 331.637 285.321 331.297 285.958L329.169 289.949C329.038 290.184 328.981 290.452 329.004 290.719L329.509 294.338C329.583 294.909 329.095 295.671 328.681 295.613L326.048 295.29C325.941 295.292 325.836 295.321 325.743 295.374C325.65 295.428 325.573 295.504 325.518 295.596L322.918 298.958C322.496 299.496 322.007 299.306 322.09 298.635L322.595 294.437C322.619 294.334 322.616 294.227 322.587 294.126C322.558 294.024 322.504 293.932 322.43 293.857L320.302 292.326C319.962 292.077 320.153 291.208 320.616 290.843L323.556 288.575C323.764 288.404 323.914 288.172 323.986 287.912L325.303 283.598C325.477 282.911 326.081 282.563 326.296 283.002Z" fill="white"/>
<path d="M346.104 277.43C346.361 276.95 346.311 276.461 346.104 276.329L344.001 275.112C343.955 275.088 343.903 275.076 343.852 275.076C343.8 275.076 343.749 275.088 343.703 275.112L341.773 275.857L341.128 274.499C341.101 274.431 341.051 274.375 340.987 274.342L338.875 273.116C338.61 272.967 338.172 273.307 337.998 273.87L336.623 278.208C336.548 278.467 336.398 278.697 336.193 278.871L333.253 281.139C332.781 281.504 332.599 282.381 332.93 282.622L335.067 284.162C335.14 284.237 335.193 284.33 335.22 284.431C335.248 284.533 335.249 284.639 335.224 284.741L334.727 288.939C334.686 289.246 334.769 289.453 334.909 289.527L336.996 290.711C337.161 290.802 337.402 290.711 337.633 290.438L340.266 287.076C340.321 286.984 340.399 286.908 340.492 286.854C340.584 286.801 340.689 286.772 340.796 286.77L343.429 287.093C343.843 287.142 344.332 286.389 344.257 285.818L343.761 282.199C343.734 281.932 343.792 281.662 343.926 281.429L346.104 277.43Z" fill="#007AFF"/>
<path opacity="0.15" d="M346.053 276.32C346.007 276.3 345.958 276.289 345.908 276.289C345.858 276.289 345.809 276.3 345.763 276.32L342.791 277.446C342.752 277.465 342.709 277.476 342.666 277.478C342.623 277.48 342.58 277.473 342.539 277.457C342.499 277.442 342.462 277.418 342.431 277.388C342.4 277.357 342.376 277.321 342.36 277.28L341.689 275.84L343.619 275.103C343.665 275.08 343.716 275.068 343.768 275.068C343.819 275.068 343.87 275.08 343.917 275.103L346.053 276.32Z" fill="white"/>
<path opacity="0.15" d="M338.734 279.392C338.66 279.651 338.51 279.882 338.303 280.054L335.339 282.348C335.204 282.453 335.096 282.59 335.025 282.745L332.93 281.52C333.011 281.368 333.121 281.233 333.253 281.123L336.192 278.854C336.398 278.68 336.547 278.45 336.623 278.191L338.734 279.392Z" fill="white"/>
<path opacity="0.1" d="M340.943 274.333C340.678 274.159 340.231 274.498 340.049 275.078L338.733 279.392L336.621 278.208L337.938 273.894C338.112 273.331 338.55 272.992 338.815 273.141C338.873 273.141 340.662 274.217 340.927 274.358L340.943 274.333Z" fill="black"/>
<path opacity="0.25" d="M337.176 285.337L335.081 284.136L332.953 282.596C332.713 282.414 332.746 281.917 332.953 281.512L335.073 282.737C334.857 283.135 334.824 283.64 335.073 283.814L337.176 285.337Z" fill="black"/>
<path opacity="0.15" d="M336.836 290.114C336.795 290.429 336.886 290.636 337.035 290.719L334.923 289.493C334.783 289.411 334.7 289.212 334.741 288.906L335.246 284.708C335.265 284.609 335.262 284.506 335.236 284.409C335.21 284.312 335.163 284.221 335.097 284.145L337.192 285.345C337.26 285.419 337.309 285.508 337.335 285.604C337.361 285.701 337.363 285.802 337.341 285.9L336.836 290.114Z" fill="black"/>
<path d="M341.07 274.483L342.386 277.281C342.402 277.321 342.427 277.358 342.457 277.388C342.488 277.419 342.525 277.442 342.565 277.458C342.606 277.473 342.649 277.481 342.692 277.479C342.736 277.477 342.778 277.466 342.817 277.447L345.764 276.321C346.228 276.139 346.419 276.801 346.079 277.43L343.951 281.429C343.817 281.662 343.759 281.932 343.786 282.2L344.282 285.818C344.365 286.389 343.877 287.143 343.454 287.093L340.821 286.77C340.714 286.772 340.609 286.801 340.517 286.854C340.424 286.908 340.346 286.984 340.291 287.076L337.658 290.438C337.236 290.976 336.748 290.786 336.83 290.115L337.335 285.917C337.358 285.814 337.354 285.708 337.325 285.607C337.297 285.506 337.243 285.413 337.17 285.338L335.042 283.806C334.702 283.557 334.885 282.688 335.357 282.324L338.296 280.055C338.504 279.884 338.655 279.652 338.726 279.393L340.043 275.079C340.258 274.391 340.863 274.069 341.07 274.483Z" fill="#007AFF"/>
<path opacity="0.5" d="M341.07 274.483L342.386 277.281C342.402 277.321 342.427 277.358 342.457 277.388C342.488 277.419 342.525 277.442 342.565 277.458C342.606 277.473 342.649 277.481 342.692 277.479C342.736 277.477 342.778 277.466 342.817 277.447L345.764 276.321C346.228 276.139 346.419 276.801 346.079 277.43L343.951 281.429C343.817 281.662 343.759 281.932 343.786 282.2L344.282 285.818C344.365 286.389 343.877 287.143 343.454 287.093L340.821 286.77C340.714 286.772 340.609 286.801 340.517 286.854C340.424 286.908 340.346 286.984 340.291 287.076L337.658 290.438C337.236 290.976 336.748 290.786 336.83 290.115L337.335 285.917C337.358 285.814 337.354 285.708 337.325 285.607C337.297 285.506 337.243 285.413 337.17 285.338L335.042 283.806C334.702 283.557 334.885 282.688 335.357 282.324L338.296 280.055C338.504 279.884 338.655 279.652 338.726 279.393L340.043 275.079C340.258 274.391 340.863 274.069 341.07 274.483Z" fill="white"/>
<path d="M360.857 268.91C361.105 268.43 361.064 267.941 360.857 267.809L358.72 266.617C358.673 266.596 358.623 266.585 358.571 266.585C358.52 266.585 358.469 266.596 358.422 266.617L356.485 267.362L355.847 266.004C355.821 265.936 355.771 265.88 355.706 265.846L353.595 264.621C353.33 264.472 352.883 264.811 352.717 265.375L351.401 269.688C351.326 269.947 351.176 270.177 350.97 270.351L348.023 272.62C347.559 272.984 347.368 273.853 347.708 274.102L349.836 275.642C349.912 275.715 349.968 275.807 349.997 275.909C350.026 276.011 350.028 276.119 350.001 276.221L349.496 280.419C349.496 280.726 349.546 280.924 349.687 281.007L351.798 282.233C351.972 282.324 352.212 282.233 352.444 281.959L355.069 278.598C355.124 278.505 355.203 278.427 355.298 278.374C355.392 278.32 355.498 278.292 355.607 278.291L358.232 278.614C358.654 278.664 359.143 277.91 359.06 277.339L358.563 273.721C358.537 273.454 358.592 273.186 358.72 272.951L360.857 268.91Z" fill="#007AFF"/>
<path opacity="0.15" d="M360.831 267.8C360.784 267.78 360.734 267.769 360.682 267.769C360.631 267.769 360.58 267.78 360.533 267.8L357.594 268.926C357.555 268.945 357.513 268.956 357.469 268.958C357.426 268.96 357.383 268.953 357.342 268.938C357.302 268.922 357.265 268.898 357.234 268.868C357.204 268.837 357.179 268.801 357.163 268.761L356.484 267.32L358.422 266.583C358.467 266.561 358.516 266.549 358.567 266.549C358.617 266.549 358.667 266.561 358.712 266.583L360.831 267.8Z" fill="white"/>
<path opacity="0.15" d="M353.554 270.864C353.479 271.124 353.33 271.358 353.124 271.534L350.184 273.803C350.049 273.91 349.939 274.046 349.861 274.2L347.75 272.975C347.832 272.823 347.941 272.689 348.073 272.578L351.012 270.309C351.218 270.135 351.368 269.905 351.443 269.646L353.554 270.864Z" fill="white"/>
<path opacity="0.1" d="M355.724 265.788C355.459 265.614 355.004 265.954 354.83 266.525L353.555 270.864L351.443 269.646L352.76 265.333C352.934 264.769 353.373 264.43 353.638 264.579C353.696 264.579 355.476 265.655 355.749 265.796L355.724 265.788Z" fill="black"/>
<path opacity="0.25" d="M351.947 276.817L349.861 275.616L347.708 274.068C347.468 273.886 347.493 273.389 347.708 272.983L349.819 274.209C349.612 274.606 349.579 275.111 349.819 275.285L351.947 276.817Z" fill="black"/>
<path opacity="0.15" d="M351.616 281.595C351.575 281.91 351.666 282.117 351.815 282.199L349.704 280.974C349.563 280.891 349.48 280.692 349.513 280.386L350.018 276.18C350.04 276.083 350.038 275.982 350.014 275.886C349.989 275.789 349.943 275.7 349.877 275.625L351.964 276.826C352.029 276.901 352.076 276.99 352.102 277.086C352.128 277.182 352.131 277.283 352.113 277.38L351.616 281.595Z" fill="black"/>
<path d="M355.849 265.962L357.165 268.761C357.181 268.801 357.206 268.838 357.237 268.868C357.267 268.898 357.304 268.922 357.345 268.938C357.385 268.953 357.428 268.96 357.471 268.958C357.515 268.956 357.557 268.946 357.596 268.927L360.535 267.8C361.007 267.618 361.189 268.281 360.858 268.91L358.722 272.909C358.593 273.144 358.539 273.413 358.565 273.679L359.062 277.298C359.144 277.869 358.656 278.622 358.234 278.573L355.609 278.25C355.5 278.25 355.394 278.279 355.299 278.332C355.205 278.386 355.126 278.463 355.071 278.556L352.446 281.918C352.024 282.456 351.535 282.266 351.618 281.595L352.115 277.397C352.14 277.295 352.138 277.188 352.111 277.087C352.083 276.986 352.03 276.893 351.957 276.817L349.821 275.277C349.49 275.037 349.672 274.159 350.144 273.803L353.083 271.535C353.289 271.361 353.439 271.131 353.514 270.872L354.83 266.558C355.037 265.871 355.642 265.523 355.849 265.962Z" fill="#007AFF"/>
<path opacity="0.5" d="M355.849 265.962L357.165 268.761C357.181 268.801 357.206 268.838 357.237 268.868C357.267 268.898 357.304 268.922 357.345 268.938C357.385 268.953 357.428 268.96 357.471 268.958C357.515 268.956 357.557 268.946 357.596 268.927L360.535 267.8C361.007 267.618 361.189 268.281 360.858 268.91L358.722 272.909C358.593 273.144 358.539 273.413 358.565 273.679L359.062 277.298C359.144 277.869 358.656 278.622 358.234 278.573L355.609 278.25C355.5 278.25 355.394 278.279 355.299 278.332C355.205 278.386 355.126 278.463 355.071 278.556L352.446 281.918C352.024 282.456 351.535 282.266 351.618 281.595L352.115 277.397C352.14 277.295 352.138 277.188 352.111 277.087C352.083 276.986 352.03 276.893 351.957 276.817L349.821 275.277C349.49 275.037 349.672 274.159 350.144 273.803L353.083 271.535C353.289 271.361 353.439 271.131 353.514 270.872L354.83 266.558C355.037 265.871 355.642 265.523 355.849 265.962Z" fill="white"/>
<path d="M375.628 260.389C375.885 259.909 375.843 259.421 375.628 259.288L373.525 258.063C373.478 258.042 373.427 258.031 373.376 258.031C373.325 258.031 373.274 258.042 373.227 258.063L371.289 258.808L370.652 257.45C370.624 257.381 370.574 257.323 370.511 257.284C370.246 257.144 368.458 256.1 368.4 256.067C368.135 255.918 367.688 256.258 367.514 256.821L366.197 261.135C366.125 261.392 365.978 261.623 365.775 261.797L362.827 264.066C362.364 264.43 362.173 265.3 362.513 265.548L364.641 267.088C364.716 267.16 364.771 267.251 364.8 267.352C364.829 267.452 364.831 267.558 364.806 267.659L364.301 271.857C364.301 272.164 364.351 272.371 364.491 272.453L366.603 273.679C366.768 273.77 367.017 273.679 367.24 273.406L369.873 270.044C369.928 269.952 370.006 269.876 370.099 269.822C370.191 269.768 370.296 269.739 370.403 269.738L373.036 270.061C373.459 270.11 373.947 269.357 373.864 268.785L373.359 265.167C373.34 264.9 373.397 264.633 373.525 264.397L375.628 260.389Z" fill="#007AFF"/>
<path opacity="0.15" d="M375.604 259.28C375.559 259.259 375.509 259.249 375.459 259.249C375.409 259.249 375.36 259.259 375.315 259.28L372.367 260.406C372.329 260.425 372.287 260.436 372.244 260.438C372.201 260.44 372.159 260.432 372.119 260.417C372.079 260.401 372.043 260.378 372.013 260.347C371.983 260.317 371.96 260.281 371.945 260.241L371.266 258.8L373.203 258.063C373.247 258.038 373.297 258.025 373.348 258.025C373.399 258.025 373.449 258.038 373.493 258.063L375.604 259.28Z" fill="white"/>
<path opacity="0.15" d="M368.293 262.344C368.218 262.605 368.068 262.838 367.862 263.015L364.923 265.284C364.787 265.391 364.677 265.526 364.6 265.681L362.488 264.456C362.567 264.304 362.674 264.169 362.803 264.058L365.742 261.789C365.953 261.619 366.107 261.388 366.181 261.127L368.293 262.344Z" fill="white"/>
<path opacity="0.1" d="M370.504 257.293C370.239 257.119 369.783 257.459 369.61 258.03L368.293 262.344L366.182 261.127L367.498 256.813C367.664 256.25 368.111 255.91 368.376 256.06C368.434 256.06 370.214 257.136 370.487 257.277L370.504 257.293Z" fill="black"/>
<path opacity="0.25" d="M366.728 268.272L364.642 267.071L362.514 265.531C362.266 265.349 362.299 264.852 362.514 264.446L364.625 265.672C364.41 266.069 364.385 266.574 364.625 266.748L366.728 268.272Z" fill="black"/>
<path opacity="0.15" d="M366.388 273.075C366.388 273.389 366.446 273.596 366.595 273.679L364.467 272.412C364.326 272.33 364.244 272.131 364.277 271.824L364.782 267.618C364.801 267.521 364.799 267.421 364.774 267.325C364.75 267.229 364.705 267.14 364.641 267.063L366.728 268.264C366.793 268.339 366.839 268.428 366.864 268.525C366.888 268.621 366.89 268.722 366.868 268.819L366.388 273.075Z" fill="black"/>
<path d="M370.628 257.442L371.945 260.241C371.961 260.281 371.985 260.317 372.016 260.348C372.047 260.378 372.084 260.402 372.124 260.417C372.164 260.433 372.208 260.44 372.251 260.438C372.294 260.436 372.336 260.425 372.375 260.406L375.315 259.28C375.787 259.098 375.969 259.76 375.629 260.39L373.501 264.389C373.374 264.624 373.316 264.892 373.336 265.159L373.841 268.777C373.924 269.349 373.435 270.102 373.013 270.052L370.38 269.73C370.273 269.731 370.168 269.76 370.075 269.814C369.982 269.868 369.905 269.944 369.85 270.036L367.217 273.398C366.803 273.936 366.314 273.745 366.389 273.075L366.894 268.877C366.92 268.774 366.919 268.666 366.89 268.564C366.861 268.463 366.805 268.37 366.728 268.297L364.6 266.757C364.261 266.517 364.451 265.639 364.915 265.283L367.863 263.014C368.067 262.84 368.216 262.61 368.293 262.352L369.61 258.03C369.817 257.351 370.421 257.003 370.628 257.442Z" fill="#007AFF"/>
<path opacity="0.5" d="M370.628 257.442L371.945 260.241C371.961 260.281 371.985 260.317 372.016 260.348C372.047 260.378 372.084 260.402 372.124 260.417C372.164 260.433 372.208 260.44 372.251 260.438C372.294 260.436 372.336 260.425 372.375 260.406L375.315 259.28C375.787 259.098 375.969 259.76 375.629 260.39L373.501 264.389C373.374 264.624 373.316 264.892 373.336 265.159L373.841 268.777C373.924 269.349 373.435 270.102 373.013 270.052L370.38 269.73C370.273 269.731 370.168 269.76 370.075 269.814C369.982 269.868 369.905 269.944 369.85 270.036L367.217 273.398C366.803 273.936 366.314 273.745 366.389 273.075L366.894 268.877C366.92 268.774 366.919 268.666 366.89 268.564C366.861 268.463 366.805 268.37 366.728 268.297L364.6 266.757C364.261 266.517 364.451 265.639 364.915 265.283L367.863 263.014C368.067 262.84 368.216 262.61 368.293 262.352L369.61 258.03C369.817 257.351 370.421 257.003 370.628 257.442Z" fill="white"/>
<path d="M390.41 251.87C390.666 251.389 390.625 250.901 390.41 250.76L388.298 249.543C388.253 249.522 388.203 249.511 388.153 249.511C388.103 249.511 388.054 249.522 388.009 249.543L386.071 250.288L385.433 248.93C385.4 248.865 385.352 248.808 385.293 248.765C385.019 248.624 383.231 247.58 383.181 247.547C382.908 247.398 382.469 247.73 382.295 248.301L380.979 252.615C380.907 252.875 380.757 253.106 380.548 253.277L377.567 255.538C377.096 255.902 376.913 256.771 377.253 257.02L379.381 258.56C379.456 258.632 379.511 258.723 379.54 258.823C379.569 258.924 379.571 259.03 379.546 259.131L379.058 263.304C379.058 263.611 379.108 263.818 379.248 263.9L381.36 265.126C381.525 265.217 381.774 265.126 381.997 264.853L384.63 261.491C384.685 261.399 384.763 261.323 384.856 261.269C384.948 261.215 385.053 261.186 385.16 261.185L387.793 261.507C388.207 261.557 388.696 260.804 388.621 260.232L388.116 256.614C388.093 256.346 388.15 256.078 388.282 255.844L390.41 251.87Z" fill="#007AFF"/>
<path opacity="0.15" d="M390.384 250.76C390.339 250.737 390.289 250.725 390.239 250.725C390.188 250.725 390.139 250.737 390.094 250.76L387.146 251.886C387.108 251.905 387.066 251.916 387.023 251.917C386.981 251.919 386.938 251.912 386.898 251.897C386.859 251.881 386.823 251.857 386.792 251.827C386.762 251.797 386.739 251.76 386.724 251.72L386.045 250.28L387.982 249.534C388.027 249.511 388.077 249.499 388.127 249.499C388.178 249.499 388.227 249.511 388.272 249.534L390.384 250.76Z" fill="white"/>
<path opacity="0.15" d="M383.072 253.824C382.994 254.085 382.842 254.318 382.633 254.494L379.694 256.763C379.561 256.871 379.453 257.006 379.379 257.16L377.268 255.935C377.343 255.782 377.451 255.647 377.582 255.538L380.522 253.269C380.73 253.098 380.88 252.866 380.952 252.606L383.072 253.824Z" fill="white"/>
<path opacity="0.1" d="M385.284 248.764C385.019 248.599 384.563 248.938 384.389 249.51L383.073 253.824L380.953 252.606L382.27 248.292C382.444 247.729 382.891 247.39 383.156 247.539C383.214 247.539 384.994 248.615 385.267 248.756L385.284 248.764Z" fill="black"/>
<path opacity="0.25" d="M381.508 259.777L379.413 258.576L377.285 257.036C377.037 256.854 377.07 256.357 377.285 255.951L379.397 257.177C379.182 257.574 379.148 258.079 379.397 258.253L381.508 259.777Z" fill="black"/>
<path opacity="0.15" d="M381.167 264.554C381.167 264.869 381.217 265.076 381.374 265.15L379.221 263.925C379.08 263.842 378.998 263.644 379.031 263.329L379.536 259.131C379.556 259.033 379.553 258.932 379.527 258.836C379.501 258.739 379.453 258.651 379.387 258.576L381.482 259.777C381.547 259.852 381.594 259.941 381.619 260.037C381.643 260.134 381.644 260.235 381.622 260.332L381.167 264.554Z" fill="black"/>
<path d="M385.408 248.922L386.724 251.72C386.74 251.761 386.764 251.797 386.795 251.827C386.826 251.858 386.863 251.882 386.903 251.897C386.944 251.913 386.987 251.92 387.03 251.918C387.073 251.916 387.116 251.905 387.155 251.886L390.094 250.76C390.558 250.578 390.748 251.24 390.409 251.869L388.281 255.852C388.149 256.086 388.092 256.355 388.115 256.622L388.62 260.24C388.695 260.812 388.206 261.565 387.792 261.516L385.159 261.193C385.052 261.194 384.947 261.223 384.854 261.277C384.762 261.331 384.684 261.407 384.629 261.499L381.996 264.861C381.582 265.399 381.094 265.2 381.168 264.538L381.673 260.34C381.697 260.237 381.695 260.13 381.666 260.029C381.637 259.927 381.582 259.835 381.508 259.76L379.38 258.22C379.04 257.98 379.231 257.102 379.694 256.746L382.642 254.478C382.842 254.3 382.988 254.071 383.064 253.815L384.381 249.493C384.596 248.831 385.201 248.475 385.408 248.922Z" fill="#007AFF"/>
<path opacity="0.5" d="M385.408 248.922L386.724 251.72C386.74 251.761 386.764 251.797 386.795 251.827C386.826 251.858 386.863 251.882 386.903 251.897C386.944 251.913 386.987 251.92 387.03 251.918C387.073 251.916 387.116 251.905 387.155 251.886L390.094 250.76C390.558 250.578 390.748 251.24 390.409 251.869L388.281 255.852C388.149 256.086 388.092 256.355 388.115 256.622L388.62 260.24C388.695 260.812 388.206 261.565 387.792 261.516L385.159 261.193C385.052 261.194 384.947 261.223 384.854 261.277C384.762 261.331 384.684 261.407 384.629 261.499L381.996 264.861C381.582 265.399 381.094 265.2 381.168 264.538L381.673 260.34C381.697 260.237 381.695 260.13 381.666 260.029C381.637 259.927 381.582 259.835 381.508 259.76L379.38 258.22C379.04 257.98 379.231 257.102 379.694 256.746L382.642 254.478C382.842 254.3 382.988 254.071 383.064 253.815L384.381 249.493C384.596 248.831 385.201 248.475 385.408 248.922Z" fill="white"/>
<path d="M396.047 47.1962L389.423 50.0362L388.007 57.0991C387.966 57.2931 387.873 57.472 387.736 57.6159C387.6 57.7597 387.426 57.8627 387.234 57.9134C387.043 57.9641 386.841 57.9605 386.651 57.9029C386.461 57.8454 386.292 57.7362 386.16 57.5876L381.416 52.1642L374.254 52.9922C374.049 53.0232 373.839 52.9934 373.651 52.9064C373.462 52.8194 373.304 52.6791 373.194 52.5028C373.085 52.3264 373.03 52.1219 373.036 51.9146C373.041 51.7072 373.108 51.5061 373.227 51.3362L376.912 45.151L373.914 38.6015C373.841 38.4257 373.817 38.2334 373.844 38.0449C373.871 37.8565 373.948 37.6788 374.068 37.5305C374.187 37.3823 374.345 37.2689 374.523 37.2024C374.701 37.1359 374.894 37.1187 375.082 37.1525L382.103 38.7506L387.402 33.8737C387.548 33.7376 387.729 33.6453 387.924 33.6073C388.12 33.5694 388.322 33.5873 388.508 33.659C388.694 33.7308 388.856 33.8534 388.975 34.0129C389.094 34.1724 389.166 34.3624 389.183 34.5609L389.837 41.7314L396.113 45.2587C396.298 45.3481 396.453 45.4893 396.559 45.6651C396.665 45.8409 396.718 46.0437 396.711 46.249C396.704 46.4542 396.637 46.653 396.519 46.8212C396.401 46.9893 396.237 47.1196 396.047 47.1962Z" fill="#373737"/>
<path d="M359.542 34.9253C359.483 35.0017 359.414 35.0687 359.335 35.124C359.194 35.2252 359.029 35.2849 358.856 35.2966C358.683 35.3084 358.511 35.2715 358.358 35.1903L354.673 33.2528L350.98 35.1903C350.828 35.2715 350.655 35.3084 350.482 35.2966C350.31 35.2849 350.144 35.2252 350.003 35.124C349.861 35.0235 349.751 34.8841 349.687 34.7225C349.622 34.5609 349.605 34.384 349.639 34.2132L350.343 30.0732L347.354 27.167C347.229 27.0463 347.141 26.8928 347.1 26.7243C347.059 26.5558 347.067 26.3792 347.122 26.2148C347.174 26.05 347.271 25.9034 347.403 25.792C347.535 25.6805 347.696 25.6089 347.867 25.5855L352.007 24.9893L353.854 21.2468C353.93 21.0922 354.048 20.9621 354.194 20.8713C354.34 20.7806 354.509 20.7328 354.682 20.7334C354.853 20.7347 355.022 20.7833 355.168 20.8738C355.314 20.9644 355.432 21.0934 355.51 21.2468L357.356 24.9893L361.496 25.5855C361.667 25.6105 361.828 25.6829 361.96 25.7944C362.092 25.906 362.19 26.0523 362.244 26.2168C362.297 26.3813 362.304 26.5574 362.262 26.7253C362.221 26.8932 362.133 27.0462 362.009 27.167L359.02 30.0732L359.732 34.2132C359.764 34.4664 359.696 34.7219 359.542 34.9253ZM347.759 26.3224L347.71 26.43C347.689 26.4919 347.687 26.5583 347.703 26.6215C347.719 26.6846 347.753 26.7417 347.801 26.7861L350.997 29.9076L350.243 34.3126C350.233 34.3774 350.241 34.4438 350.266 34.5045C350.291 34.5651 350.333 34.6176 350.386 34.6561C350.439 34.6947 350.502 34.7178 350.567 34.7229C350.633 34.7281 350.698 34.715 350.757 34.6852L354.715 32.6069L358.664 34.6852C358.721 34.7179 358.785 34.7351 358.851 34.7351C358.916 34.7351 358.98 34.7179 359.037 34.6852C359.092 34.6475 359.135 34.5944 359.16 34.5325C359.185 34.4707 359.191 34.4028 359.178 34.3374L358.424 29.9325L361.62 26.8109C361.666 26.7655 361.699 26.7083 361.715 26.6456C361.731 26.5828 361.73 26.5169 361.711 26.4549C361.693 26.3919 361.656 26.3357 361.606 26.2931C361.556 26.2505 361.495 26.2233 361.43 26.2148L357 25.5689L354.98 21.5283C354.952 21.4681 354.908 21.4173 354.852 21.382C354.796 21.3467 354.731 21.3285 354.665 21.3296C354.605 21.3362 354.548 21.3578 354.499 21.3926C354.449 21.4274 354.41 21.474 354.383 21.5283L352.413 25.5358L347.983 26.1816C347.894 26.1997 347.814 26.2498 347.759 26.3224Z" fill="#E0E0E0"/>
<path d="M313.431 90.2522C307.196 86.6421 298.626 87.1307 289.154 92.5955C270.11 103.608 254.635 130.576 254.635 152.841C254.635 164.044 258.559 171.885 264.877 175.553C266.343 176.381 272.072 179.693 272.072 179.693C271.804 182.213 270.933 184.631 269.534 186.743C268.135 188.856 266.248 190.601 264.033 191.831C263.668 192.038 263.892 192.394 264.215 192.576L272.967 197.636C273.085 197.706 273.219 197.746 273.356 197.751C281.975 197.751 291.953 191.955 294.735 179.916C295.778 179.42 296.83 178.881 297.898 178.26C316.942 167.256 332.417 140.28 332.417 118.023C332.417 106.812 328.501 98.9793 322.183 95.2865L313.431 90.2522Z" fill="#37474F"/>
<path d="M297.898 97.6458C278.854 108.65 263.379 135.626 263.379 157.883C263.379 172.994 270.491 182.036 281.024 182.864C280.626 187.666 279.227 193.065 272.744 196.882C272.23 197.188 272.901 197.759 273.331 197.759C281.951 197.759 291.928 191.963 294.71 179.924C295.754 179.427 296.805 178.889 297.873 178.268C316.917 167.264 332.393 140.288 332.393 118.031C332.393 95.7745 316.959 86.6417 297.898 97.6458Z" fill="#455A64"/>
<path d="M272.767 196.882C272.452 197.08 272.593 197.37 272.858 197.569L264.214 192.601C263.891 192.402 263.667 192.063 264.031 191.847C266.252 190.615 268.142 188.865 269.541 186.746C270.941 184.627 271.809 182.202 272.071 179.676L273.024 180.239L273.901 180.752C276.094 181.958 278.525 182.67 281.022 182.839C280.633 187.666 279.225 193.065 272.767 196.882Z" fill="#263238"/>
<path d="M294.254 161.369C293.335 160.715 292.871 159.539 292.871 157.842C292.891 156.073 293.358 154.339 294.229 152.799C295.02 151.261 296.224 149.973 297.707 149.082C299.114 148.27 300.271 148.174 301.176 148.792C302.078 149.404 302.534 150.564 302.534 152.261C302.507 154.061 302.032 155.825 301.151 157.395C300.379 158.949 299.186 160.255 297.707 161.162C296.332 161.949 295.181 162.023 294.254 161.369ZM293.02 116.359L302.385 110.952L300.82 142.516L294.585 146.117L293.02 116.359Z" fill="#FAFAFA"/>
<path opacity="0.2" d="M302.5 175.246C312.668 167.794 321.436 155.979 326.802 143.294C316.634 150.754 307.865 162.562 302.5 175.246Z" fill="black"/>
<path d="M367.516 218.385C363.988 218.427 361.364 215.959 359.716 212.854C370.281 199.863 377.427 182.558 377.427 167.422C377.427 156.202 373.494 148.32 367.16 144.677L358.424 139.642C352.189 136.041 343.628 136.537 334.164 141.994C315.12 153.006 299.645 179.974 299.645 202.239C299.645 213.442 303.561 221.283 309.879 224.968C311.352 225.796 317.157 229.157 318.589 229.994C324.832 233.629 333.419 233.148 342.908 227.667C345.449 226.188 347.861 224.499 350.119 222.616C356.528 227.692 364.344 222.161 367.441 219.511C367.855 219.164 367.905 218.385 367.516 218.385Z" fill="#3A3A3A"/>
<path d="M327.63 231.84C316.088 231.84 308.926 222.442 308.926 207.323C308.926 185.265 324.293 158.471 343.172 147.55C348.454 144.502 353.505 142.954 358.183 142.954C369.718 142.954 376.888 152.344 376.888 167.471C376.888 181.936 370.148 199.217 359.301 212.556L359.078 212.837L359.243 213.152C361.189 216.82 364.013 218.873 367.209 218.948C367.186 219.018 367.146 219.08 367.093 219.13C364.89 221.018 360.518 224.173 355.989 224.173C353.972 224.182 352.015 223.491 350.45 222.219L350.11 221.954L349.771 222.227C347.533 224.077 345.146 225.739 342.634 227.195C337.359 230.25 332.308 231.84 327.63 231.84Z" fill="#262626"/>
<path d="M358.185 142.416V143.492C369.387 143.492 376.351 152.683 376.351 167.463C376.351 181.821 369.661 198.968 358.888 212.216L358.433 212.771L358.772 213.4C360.561 216.779 363.078 218.857 365.968 219.379C363.674 221.209 359.874 223.651 355.99 223.651C354.094 223.66 352.253 223.01 350.782 221.813L350.103 221.275L349.433 221.829C347.219 223.677 344.857 225.338 342.37 226.798C337.17 229.795 332.21 231.318 327.631 231.318C316.428 231.318 309.465 222.128 309.465 207.306C309.465 185.422 324.708 158.819 343.413 147.997C348.613 144.999 353.573 143.476 358.151 143.476V142.416M358.151 142.416C353.548 142.416 348.364 143.915 342.875 147.086C323.831 158.09 308.355 185.058 308.355 207.323C308.355 223.179 316.197 232.378 327.598 232.378C332.202 232.378 337.385 230.88 342.875 227.708C345.416 226.229 347.828 224.54 350.087 222.658C351.743 224.01 353.819 224.742 355.957 224.728C360.693 224.728 365.223 221.415 367.408 219.552C367.822 219.205 367.872 218.426 367.483 218.426H367.4C363.923 218.426 361.323 215.984 359.683 212.895C370.248 199.904 377.394 182.599 377.394 167.463C377.394 151.607 369.553 142.416 358.151 142.416Z" fill="#007AFF"/>
<path d="M341.135 191.144C342.139 188.735 343.293 186.39 344.588 184.123C345.48 182.567 346.293 180.967 347.022 179.329C347.524 178.205 347.792 176.991 347.809 175.76C347.809 174.104 347.312 173.086 346.318 172.688C345.325 172.291 344.016 172.581 342.369 173.516C340.74 174.472 339.313 175.738 338.171 177.242C336.895 178.909 335.853 180.742 335.074 182.691L328.988 181.44C330.35 177.844 332.278 174.49 334.702 171.504C337.072 168.574 339.964 166.107 343.23 164.226C347.094 162.018 350.188 161.328 352.512 162.156C354.836 162.984 356 165.352 356.006 169.26C356.017 171.025 355.788 172.782 355.327 174.485C354.919 176.027 354.364 177.527 353.671 178.965C353.017 180.306 352.164 181.904 351.129 183.759C350.126 185.47 349.219 187.237 348.413 189.05C347.858 190.359 347.576 191.768 347.585 193.19L339.992 197.578C339.962 195.38 340.35 193.197 341.135 191.144ZM340.307 212.449C339.388 211.795 338.924 210.619 338.924 208.913C338.944 207.145 339.411 205.41 340.282 203.871C341.073 202.334 342.274 201.048 343.752 200.153C345.167 199.325 346.318 199.242 347.229 199.863C348.14 200.484 348.587 201.643 348.587 203.341C348.559 205.138 348.084 206.899 347.204 208.466C346.432 210.023 345.235 211.329 343.752 212.234C342.418 213.028 341.276 213.095 340.348 212.449H340.307Z" fill="#455A64"/>
<path d="M166.244 153.429L128.156 175.487L143.284 201.204C143.575 201.898 144.084 202.479 144.733 202.86C146.538 203.879 157.227 210.072 157.815 210.412C158.274 210.676 158.786 210.834 159.314 210.872C159.842 210.91 160.372 210.828 160.863 210.632C161.355 210.436 161.796 210.131 162.153 209.74C162.51 209.349 162.773 208.882 162.924 208.375L179.351 161.03L166.244 153.429Z" fill="#007AFF"/>
<path opacity="0.2" d="M166.244 153.429L128.156 175.487L143.284 201.204C143.575 201.898 144.084 202.479 144.733 202.86C146.538 203.879 157.227 210.072 157.815 210.412C158.274 210.676 158.786 210.834 159.314 210.872C159.842 210.91 160.372 210.828 160.863 210.632C161.355 210.436 161.796 210.131 162.153 209.74C162.51 209.349 162.773 208.882 162.924 208.375L179.351 161.03L166.244 153.429Z" fill="black"/>
<path d="M141.266 183.055L156.393 208.773C156.682 209.426 157.165 209.975 157.776 210.344C158.387 210.714 159.097 210.887 159.81 210.84C160.523 210.793 161.204 210.528 161.761 210.082C162.319 209.635 162.725 209.028 162.926 208.342L179.354 160.997L141.266 183.055Z" fill="#007AFF"/>
<path d="M208.738 21.5283L65.105 104.436C64.142 105.06 63.3401 105.903 62.7646 106.896C62.189 107.889 61.8561 109.003 61.793 110.149V209.832C61.854 210.974 62.1862 212.085 62.7622 213.073C63.3382 214.06 64.1413 214.897 65.105 215.512L76.9205 222.136C77.948 222.653 79.0823 222.922 80.2325 222.922C81.3828 222.922 82.517 222.653 83.5445 222.136L227.186 139.179C228.148 138.553 228.948 137.71 229.524 136.717C230.099 135.725 230.433 134.611 230.498 133.466V33.7827C230.436 32.641 230.104 31.5304 229.528 30.5428C228.952 29.5551 228.149 28.7186 227.186 28.1026L215.379 21.4786C214.345 20.9679 213.206 20.7064 212.053 20.7151C210.899 20.7237 209.764 21.0022 208.738 21.5283Z" fill="#007AFF"/>
<path opacity="0.3" d="M230.44 33.1783C230.175 31.5223 228.825 30.9262 227.177 31.8701L83.5525 114.803C82.5738 115.414 81.7718 116.27 81.2258 117.287L62.8359 106.812C63.3878 105.857 64.1671 105.052 65.1047 104.469L208.746 21.5284C209.774 21.0133 210.908 20.7451 212.058 20.7451C213.208 20.7451 214.342 21.0133 215.37 21.5284L227.177 28.1524C228.047 28.7106 228.787 29.4475 229.35 30.3141C229.912 31.1806 230.284 32.157 230.44 33.1783Z" fill="white"/>
<path d="M80.25 220.579V120.888C80.3131 119.743 80.6461 118.63 81.2217 117.638C81.7973 116.647 82.5992 115.806 83.562 115.183L227.187 32.2921C229 31.2406 230.499 32.0934 230.499 34.1965V133.846C230.434 134.992 230.1 136.106 229.525 137.098C228.949 138.091 228.148 138.934 227.187 139.56L83.5454 222.484C81.7238 223.56 80.25 222.682 80.25 220.579Z" fill="#007AFF"/>
<path opacity="0.2" d="M83.5441 222.103C82.5127 222.607 81.38 222.869 80.2321 222.869C79.0842 222.869 77.9514 222.607 76.9201 222.103L65.1128 215.479C64.1499 214.867 63.3471 214.034 62.771 213.048C62.195 212.063 61.8624 210.955 61.8008 209.816V110.124C61.8596 108.948 62.2218 107.807 62.8523 106.812L81.2257 117.27C80.62 118.244 80.2829 119.361 80.2486 120.508V220.191C80.2486 222.12 81.6065 223.229 83.5441 222.103Z" fill="black"/>
<path d="M120.547 140.761L119.114 139.933C118.566 139.619 117.945 139.454 117.313 139.454C116.682 139.454 116.061 139.619 115.512 139.933L106.76 144.984V133.027L122.964 123.679C123.723 123.232 124.351 122.593 124.787 121.828C125.223 121.062 125.451 120.196 125.448 119.316V112.609C125.451 111.728 125.223 110.862 124.787 110.096C124.351 109.331 123.723 108.693 122.964 108.245C122.198 107.802 121.329 107.568 120.443 107.568C119.558 107.568 118.688 107.802 117.922 108.245L95.45 121.22C94.1197 121.987 93.015 123.091 92.2475 124.421C91.48 125.752 91.0766 127.26 91.0782 128.796V191.053C91.0744 191.936 91.3017 192.803 91.7375 193.57C92.1733 194.338 92.8024 194.977 93.5622 195.425C94.329 195.867 95.1985 196.1 96.0834 196.1C96.9684 196.1 97.8379 195.867 98.6047 195.425L104.21 192.196C104.97 191.748 105.599 191.108 106.035 190.341C106.471 189.574 106.698 188.706 106.694 187.824V163.398L120.489 155.433C121.035 155.115 121.489 154.66 121.804 154.112C122.12 153.564 122.285 152.943 122.285 152.311V143.899C122.297 143.269 122.142 142.648 121.837 142.097C121.532 141.546 121.087 141.085 120.547 140.761Z" fill="#E0E0E0"/>
<path opacity="0.1" d="M99.1185 195.127L98.6382 195.408C97.8714 195.849 97.0023 196.081 96.1178 196.08C95.2333 196.08 94.3644 195.847 93.5982 195.405C92.832 194.963 92.1952 194.328 91.7515 193.563C91.3079 192.798 91.073 191.929 91.0703 191.045V128.787C91.0725 127.342 91.4338 125.919 92.1219 124.647L97.1644 127.554C96.4734 128.824 96.1119 130.248 96.1128 131.694V193.371C96.1143 193.723 96.2074 194.068 96.3831 194.373C96.5587 194.677 96.8107 194.93 97.1143 195.108C97.4178 195.285 97.7623 195.38 98.1138 195.383C98.4653 195.387 98.8116 195.298 99.1185 195.127Z" fill="black"/>
<path d="M106.761 133.027V150.813L120.531 142.872C120.715 142.764 120.925 142.706 121.139 142.705C121.352 142.705 121.563 142.76 121.748 142.867C121.933 142.974 122.086 143.128 122.193 143.314C122.299 143.5 122.354 143.71 122.352 143.924V152.353C122.352 152.982 122.186 153.599 121.873 154.144C121.559 154.689 121.107 155.142 120.564 155.458L106.761 163.423V187.841C106.764 188.721 106.537 189.586 106.101 190.35C105.665 191.115 105.036 191.751 104.277 192.196L99.1765 195.144C98.8702 195.322 98.5224 195.416 98.1682 195.416C97.814 195.416 97.466 195.323 97.1594 195.146C96.8527 194.968 96.5983 194.713 96.4218 194.406C96.2454 194.099 96.1531 193.751 96.1543 193.397V131.694C96.1545 130.159 96.5585 128.651 97.3259 127.321C98.0932 125.991 99.1969 124.886 100.526 124.118L122.783 111.267C123.06 111.107 123.374 111.023 123.695 111.023C124.015 111.024 124.329 111.108 124.606 111.268C124.883 111.429 125.113 111.659 125.273 111.937C125.432 112.214 125.516 112.529 125.515 112.849V119.332C125.517 120.21 125.289 121.072 124.853 121.834C124.417 122.595 123.789 123.229 123.031 123.671L106.761 133.027Z" fill="#FAFAFA"/>
<path d="M154.834 95.4192C154.579 94.5548 154.131 93.7595 153.524 93.0931C152.917 92.4268 152.167 91.9066 151.331 91.5719C150.494 91.2372 149.592 91.0965 148.693 91.1606C147.794 91.2246 146.921 91.4917 146.14 91.9416L140.568 95.1626C139.85 95.5762 139.226 96.1353 138.737 96.8041C138.248 97.4728 137.904 98.2364 137.728 99.0459L121.11 174.709C120.98 175.346 121.053 176.009 121.318 176.603C121.584 177.197 122.03 177.693 122.592 178.021L124.115 178.898C124.587 179.171 125.123 179.314 125.668 179.314C126.213 179.314 126.748 179.171 127.22 178.898L133.935 175.023C134.87 174.451 135.631 173.635 136.138 172.663C136.704 171.682 137.12 170.622 137.372 169.517L140.071 155.722L153.65 147.881L155.058 153.487C155.257 154.218 155.712 154.853 156.341 155.275C156.904 155.607 160.821 157.85 161.384 158.19C161.747 158.346 162.146 158.4 162.538 158.348C162.93 158.295 163.301 158.138 163.611 157.892L171.808 153.156L154.834 95.4192ZM143.797 136.678L146.703 121.717L146.877 120.889L149.957 133.118L143.797 136.678Z" fill="#E0E0E0"/>
<path opacity="0.1" d="M161.319 158.148C160.582 157.71 156.889 155.598 156.351 155.275C155.722 154.853 155.267 154.218 155.068 153.487L153.66 147.881L157.419 145.712L160.11 156.393C160.309 157.095 160.734 157.713 161.319 158.148Z" fill="black"/>
<path opacity="0.1" d="M155.002 136.024L149.959 133.11L146.879 120.889C146.879 120.889 146.879 120.889 146.879 120.839C147.144 119.647 147.409 118.289 147.707 116.782C148.063 114.902 148.394 112.898 148.709 110.754C149.068 112.476 149.424 114.063 149.777 115.515C150.133 116.964 150.464 118.206 150.779 119.249L155.002 136.024Z" fill="black"/>
<path opacity="0.1" d="M126.243 177.192C126.198 177.391 126.206 177.598 126.265 177.793C126.324 177.988 126.433 178.164 126.581 178.304C126.729 178.444 126.91 178.544 127.108 178.593C127.306 178.642 127.513 178.638 127.709 178.583V178.649L127.237 178.914C126.765 179.187 126.229 179.33 125.684 179.33C125.139 179.33 124.604 179.187 124.132 178.914L122.592 178.02C122.03 177.692 121.584 177.196 121.318 176.602C121.053 176.008 120.98 175.346 121.11 174.708L137.719 99.0786C137.872 98.3789 138.153 97.7136 138.547 97.1162L143.59 100.031C143.19 100.623 142.909 101.286 142.762 101.985L126.243 177.192Z" fill="black"/>
<path d="M171.816 153.181L163.611 157.917C162.692 158.447 161.955 158.546 161.392 158.215C160.764 157.791 160.309 157.157 160.108 156.427L157.417 145.729L140.029 155.739L137.338 169.534C137.079 170.64 136.66 171.702 136.096 172.688C135.592 173.66 134.83 174.473 133.894 175.04L127.957 178.476C127.757 178.59 127.529 178.643 127.3 178.63C127.07 178.617 126.85 178.537 126.664 178.402C126.479 178.266 126.337 178.08 126.255 177.866C126.172 177.651 126.154 177.417 126.202 177.193L142.72 101.961C142.898 101.153 143.242 100.391 143.731 99.7235C144.22 99.0562 144.843 98.4984 145.56 98.0856L150.917 94.9889C151.298 94.7694 151.724 94.6391 152.162 94.6079C152.601 94.5767 153.041 94.6454 153.449 94.8088C153.857 94.9722 154.223 95.2261 154.519 95.5513C154.814 95.8765 155.033 96.2646 155.157 96.6863L171.816 153.181ZM154.999 136.041L150.777 119.233C150.462 118.198 150.131 116.947 149.775 115.498C149.419 114.049 149.063 112.46 148.707 110.737C148.4 112.882 148.061 114.877 147.713 116.765C147.365 118.653 147.017 120.276 146.703 121.684L142.513 143.212L154.999 136.041Z" fill="#FAFAFA"/>
<path d="M211.063 124.2C212.509 121.715 213.779 119.13 214.864 116.467C215.984 113.721 216.924 110.906 217.679 108.038C218.441 105.14 219.021 102.198 219.418 99.228C219.824 96.2284 220.029 93.2049 220.031 90.178C220.119 85.7276 219.55 81.2886 218.341 77.0045C217.48 73.7851 215.829 70.8312 213.539 68.4098C212.818 67.7189 212.011 67.1234 211.138 66.6379L206.17 63.7565C204.597 62.8447 202.828 62.325 201.011 62.2412C198.097 62.0756 194.868 63.0168 191.324 65.0647C187.615 67.2426 184.328 70.0697 181.62 73.411C178.633 77.0365 176.118 81.0262 174.135 85.2845C169.867 94.4685 167.641 104.469 167.61 114.596C167.524 119.052 168.099 123.497 169.316 127.786C170.175 131.015 171.832 133.976 174.135 136.397C174.853 137.109 175.663 137.722 176.544 138.219C177.372 138.682 180.643 140.587 181.454 141.059C183.047 141.98 184.84 142.5 186.679 142.574C189.593 142.717 192.828 141.765 196.383 139.717C197.895 138.844 199.333 137.847 200.68 136.736L202.734 139.096C203.014 139.383 203.331 139.631 203.678 139.833C204.257 140.173 208.381 142.541 208.695 142.731C209.248 143.071 209.895 143.227 210.542 143.178C211.741 143.035 212.892 142.625 213.912 141.978L222.614 136.96L211.063 124.2ZM203.297 103.418C202.769 106.339 201.922 109.193 200.771 111.93C199.762 114.354 198.41 116.621 196.756 118.661C195.245 120.523 193.41 122.096 191.34 123.306C189.824 124.289 188.077 124.86 186.273 124.962C185.366 123.492 184.718 121.875 184.36 120.185C183.724 117.259 183.429 114.269 183.483 111.275C183.467 107.96 183.761 104.65 184.36 101.389C184.874 98.4694 185.707 95.6151 186.844 92.8772C187.863 90.4419 189.224 88.1641 190.885 86.1125C192.406 84.226 194.258 82.6323 196.35 81.4094C197.84 80.4569 199.552 79.909 201.318 79.8197C202.235 81.303 202.891 82.9331 203.255 84.6386C203.905 87.5685 204.213 90.5637 204.174 93.5645C204.184 96.8798 203.891 100.189 203.297 103.451V103.418Z" fill="#E0E0E0"/>
<path opacity="0.1" d="M181.247 140.967C180.196 140.363 177.306 138.682 176.544 138.251C175.663 137.755 174.853 137.142 174.135 136.43C171.832 134.009 170.175 131.048 169.316 127.819C168.099 123.53 167.524 119.085 167.61 114.629C167.61 109.53 168.182 104.447 169.316 99.4762C170.326 94.9491 171.79 90.5355 173.687 86.3027L178.73 89.2173C174.747 98.1426 172.677 107.803 172.652 117.576C172.566 122.03 173.141 126.473 174.358 130.758C175.216 133.99 176.873 136.954 179.177 139.378C179.807 139.982 180.501 140.515 181.247 140.967Z" fill="black"/>
<path opacity="0.1" d="M205.814 81.9727C205.327 81.3622 204.719 80.8594 204.028 80.496C203.336 80.1326 202.577 79.9165 201.798 79.8613C201.658 79.8613 201.509 79.8613 201.368 79.8613C202.281 81.3429 202.934 82.97 203.297 84.672C203.93 87.5927 204.225 90.5766 204.175 93.5647C204.188 96.8966 203.894 100.223 203.297 103.501C202.77 106.422 201.923 109.276 200.772 112.013C199.763 114.437 198.41 116.704 196.756 118.744C195.245 120.606 193.411 122.179 191.341 123.389C189.824 124.372 188.078 124.943 186.273 125.045C186.454 125.336 186.656 125.613 186.878 125.873C187.364 126.488 187.976 126.992 188.673 127.351C189.37 127.709 190.136 127.914 190.919 127.952C192.862 127.942 194.761 127.366 196.383 126.296C198.453 125.086 200.288 123.512 201.798 121.65C203.449 119.608 204.801 117.342 205.814 114.919C206.966 112.18 207.813 109.323 208.34 106.399C208.937 103.121 209.231 99.7947 209.217 96.4627C209.265 93.4829 208.971 90.5075 208.34 87.5949C207.945 85.5504 207.08 83.6257 205.814 81.9727Z" fill="black"/>
<path opacity="0.1" d="M202.112 135.527C201.64 135.958 201.168 136.355 200.68 136.769L202.733 139.129C203.013 139.416 203.331 139.664 203.677 139.866C204.24 140.197 208.123 142.425 208.645 142.739C208.324 142.542 208.029 142.306 207.767 142.035L202.112 135.527Z" fill="black"/>
<path d="M222.613 136.993L213.911 142.019C212.892 142.659 211.744 143.067 210.549 143.212C210.028 143.237 209.508 143.145 209.028 142.941C208.547 142.738 208.119 142.428 207.775 142.036L202.112 135.528C200.361 137.139 198.44 138.555 196.382 139.751C192.827 141.799 189.593 142.751 186.678 142.607C183.856 142.503 181.177 141.338 179.176 139.345C176.875 136.92 175.218 133.956 174.357 130.725C173.147 126.45 172.573 122.02 172.652 117.577C172.683 107.45 174.909 97.4496 179.176 88.2656C181.163 83.9977 183.684 79.9995 186.678 76.3672C189.388 73.0278 192.675 70.2011 196.382 68.021C199.926 65.9675 203.155 65.0264 206.07 65.1975C208.88 65.3317 211.539 66.5132 213.522 68.5095C215.816 70.9306 217.468 73.8884 218.324 77.1124C219.539 81.3812 220.114 85.8068 220.03 90.2445C220.031 93.2713 219.829 96.2947 219.425 99.2945C219.021 102.278 218.435 105.234 217.67 108.146C216.912 111.011 215.969 113.824 214.847 116.567C213.765 119.232 212.495 121.816 211.046 124.3L222.613 136.993ZM183.482 111.325C183.428 114.322 183.723 117.314 184.36 120.243C184.75 122.276 185.599 124.194 186.844 125.848C187.333 126.46 187.945 126.961 188.642 127.32C189.338 127.678 190.102 127.885 190.884 127.927C192.828 127.916 194.726 127.341 196.349 126.271C198.419 125.061 200.253 123.487 201.764 121.626C203.417 119.584 204.772 117.317 205.788 114.894C206.926 112.154 207.759 109.296 208.272 106.374C208.874 103.097 209.168 99.77 209.15 96.4379C209.202 93.4579 208.907 90.482 208.272 87.57C207.884 85.5361 207.034 83.6183 205.788 81.9645C205.3 81.3538 204.69 80.8509 203.997 80.4875C203.305 80.1241 202.544 79.9081 201.764 79.8531C199.842 79.8373 197.958 80.3904 196.349 81.4428C194.255 82.66 192.403 84.2514 190.884 86.1376C189.226 88.1912 187.866 90.4686 186.844 92.9024C185.71 95.6415 184.878 98.4955 184.36 101.414C183.761 104.673 183.467 107.979 183.482 111.292V111.325Z" fill="#FAFAFA"/>
</svg>
