<svg width="1070" height="105" viewBox="0 0 1070 105" fill="none" xmlns="http://www.w3.org/2000/svg">
<path d="M0 18.3406C0 8.21137 6.96302 0 15.5523 0H1054.45C1063.04 0 1070 8.21137 1070 18.3406V86.6594C1070 96.7889 1063.04 105 1054.45 105H912.75C899.974 105 888.761 94.9741 885.316 80.4694C881.871 65.9646 870.658 55.9389 857.882 55.9389H535.778H216.321C204.202 55.9389 193.246 64.4477 188.46 77.5778L186.351 83.3611C181.565 96.4909 170.609 105 158.49 105H15.5523C6.96302 105 0 96.7889 0 86.6594V18.3406Z" fill="#1C1C1C"/>
</svg>
