<svg xmlns="http://www.w3.org/2000/svg" width="101" height="101" fill="none"><g fill="#007AFF" clip-path="url(#a)"><path d="M67.544 5.236a.823.823 0 0 0 .825.722h5.827l.09-.005a.818.818 0 0 0 .74-.806v-1.88l-.006-.088a.823.823 0 0 0-.824-.722h-2.673V1.399l-.005-.088a.823.823 0 0 0-.825-.723h-2.324l-.09.005a.818.818 0 0 0-.74.806v3.748zM98.121 23.728a.822.822 0 0 0-.824-.722h-5.828l-.09.005a.818.818 0 0 0-.738.805v1.88l.004.089a.823.823 0 0 0 .825.722h2.672l.001 1.058.005.088a.823.823 0 0 0 .825.723h2.324l.09-.005a.817.817 0 0 0 .739-.806v-3.749zM85.9 23.026c.414 0 .719.27.76.656l.005.091v2.243a.722.722 0 0 1-.672.743l-.093.005h-6.12c-.413 0-.718-.27-.76-.656l-.004-.092v-2.242c0-.405.275-.703.671-.743l.094-.005zM50.32 2.747c-.042-.387-.347-.657-.76-.657h-2.678l-.093.005a.722.722 0 0 0-.672.743V5.08l.005.091c.041.387.346.656.76.656h2.677l.094-.004a.722.722 0 0 0 .671-.743V2.838zM8.626 5.832c3.172 0 5.266 1.981 5.351 5.036l.003.197v4.485c0 3.1-2.027 5.147-5.153 5.23l-.201.003H1.74c-.413 0-.718-.27-.76-.656l-.004-.091v-2.243c0-.404.275-.703.671-.743l.093-.005h6.885c.997 0 1.486-.436 1.527-1.365l.003-.13v-4.485c0-.975-.446-1.453-1.397-1.493l-.133-.003H1.74c-.413 0-.718-.27-.76-.656l-.004-.091V6.579c0-.404.275-.702.671-.743l.093-.004z"/><path fill-rule="evenodd" d="M23.932 12.605v4.505h-1.53c-1.268 0-2.296-1.008-2.296-2.252V2.09a.758.758 0 0 0-.764-.75h-2.296a.758.758 0 0 0-.765.75v12.768c0 3.318 2.74 6.008 6.12 6.008h16.45a5.78 5.78 0 0 0 3.652-1.289l.68.965a.77.77 0 0 0 .63.323h4.572a6.158 6.158 0 0 0 4.427-1.859l1.082 1.536a.77.77 0 0 0 .63.323h4.572a6.164 6.164 0 0 0 3.964-1.43l.78 1.107a.77.77 0 0 0 .63.323h3.03a6.164 6.164 0 0 0 3.978-1.441l.789 1.118a.77.77 0 0 0 .63.323h.735a6.162 6.162 0 0 0 4.136-1.579l.65 1.185a.767.767 0 0 0 .673.395h5.281a5.389 5.389 0 0 0 3.846-1.599l.9 1.275a.767.767 0 0 0 .628.323h4.572c3.38 0 6.12-2.69 6.12-6.007V10.35a.758.758 0 0 0-.765-.75H97.38a.758.758 0 0 0-.766.75v4.506c0 1.245-1.028 2.253-2.295 2.253h-4.812c.144-.476.222-.98.222-1.502v-5.257a.758.758 0 0 0-.766-.75h-2.295a.758.758 0 0 0-.765.75v5.257c0 .83-.685 1.502-1.53 1.502h-4.59v-6.759a.758.758 0 0 0-.765-.75h-2.325a.758.758 0 0 0-.765.75v4.506c0 1.245-1.028 2.253-2.295 2.253h-.456a5.897 5.897 0 0 0 .445-2.252V10.35a.758.758 0 0 0-.765-.75H70.56a.758.758 0 0 0-.766.75v4.506c0 1.245-1.027 2.253-2.295 2.253h-2.729a5.894 5.894 0 0 0 .445-2.252V10.35a.758.758 0 0 0-.765-.75h-2.295a.758.758 0 0 0-.765.75v4.506c0 1.245-1.028 2.253-2.295 2.253H54.06a5.894 5.894 0 0 0 .445-2.252V10.35a.758.758 0 0 0-.765-.75h-2.295a.758.758 0 0 0-.765.75v4.506c0 1.245-1.028 2.253-2.295 2.253h-4.123c.212-.587.327-1.219.327-1.877 0-3.11-2.57-5.633-5.738-5.633h-3.497a6.14 6.14 0 0 0-5.302-3.004c-3.38 0-6.12 2.69-6.12 6.009m6.12-2.254c-1.267 0-2.295 1.01-2.295 2.253v4.506h4.59v-4.505c0-1.245-1.027-2.254-2.295-2.254m6.121 6.76v-3.756h2.678c1.056 0 1.912.841 1.912 1.878s-.856 1.877-1.912 1.877z" clip-rule="evenodd"/><path d="M8.647 83.75c-.445 0-.765.314-.765.75V95c0 1.023-.487 1.5-1.53 1.5H1.766c-.445 0-.765.314-.765.75v2.25c0 .437.32.751.765.751h4.588c3.44 0 5.353-1.876 5.353-5.251v-1.587l.892 1.264a.769.769 0 0 0 .63.323h19.41a6.166 6.166 0 0 0 4.01-1.468L37.821 95h23.056c2.276 0 4.25-.861 5.622-2.292l1.39 1.969a.77.77 0 0 0 .63.323H88.19c3.38 0 6.119-2.686 6.119-6v-4.5a.758.758 0 0 0-.765-.75H91.25a.758.758 0 0 0-.764.75V89c0 1.243-1.028 2.25-2.295 2.25H67.577c.497-.889.814-1.902.914-3h.034v-.75c0-4.3-3.263-7.5-7.648-7.5h-1.912l3.862-4.878c.377-.447.053-1.122-.538-1.122H59.35c-.468 0-.912.205-1.21.558l-6.44 8.067c-.44.52-.307 1.125.382 1.125h8.794c2.189 0 3.824 1.604 3.824 3.75 0 2.147-1.635 3.75-3.824 3.75H38.312a5.882 5.882 0 0 0 .445-2.25v-4.5a.758.758 0 0 0-.765-.75h-2.295a.758.758 0 0 0-.765.75V89c0 1.243-1.027 2.25-2.295 2.25H11.706V84.5c0-.436-.32-.75-.765-.75z"/><path d="M27.658 97.813c-.041-.386-.346-.655-.76-.655H20.78l-.093.004a.721.721 0 0 0-.671.742v2.24l.004.091c.042.387.347.655.76.655h6.118l.094-.004a.722.722 0 0 0 .671-.742v-2.24zM10.943 76.25c.413 0 .718.269.76.655l.004.091v2.24a.722.722 0 0 1-.671.742l-.093.005H8.648c-.414 0-.719-.269-.76-.655l-.005-.092v-2.24c0-.403.275-.7.671-.741l.094-.005zM88.602 76.25c.414 0 .718.269.76.655l.005.091v2.24a.722.722 0 0 1-.672.742l-.093.005h-2.677c-.414 0-.719-.269-.76-.655l-.005-.092v-2.24c0-.403.276-.7.671-.741l.094-.005zM55.9 74a.77.77 0 0 0-.604.29l-4.884 6.157a.187.187 0 0 0 .15.303h.765a.77.77 0 0 0 .604-.29l4.885-6.157a.187.187 0 0 0-.151-.303zM96.633 76.25c0-.414.342-.75.765-.75h2.294c.423 0 .765.336.765.75v18c0 .415-.342.75-.765.75h-2.294a.757.757 0 0 1-.765-.75zM87.278 42.754a.838.838 0 0 0 .838.74h5.921l.091-.005a.834.834 0 0 0 .751-.825V40.74l-.005-.09a.838.838 0 0 0-.837-.739h-2.715l-.001-1.082-.006-.09a.837.837 0 0 0-.837-.739h-2.362l-.091.005a.834.834 0 0 0-.751.824v3.835zM21.564 44.818c-.042-.396-.352-.671-.772-.671h-6.218l-.095.004a.737.737 0 0 0-.682.76v2.295l.005.093c.042.396.352.672.772.672h6.218l.095-.005a.737.737 0 0 0 .682-.76V44.91zM47.306 38c.42 0 .73.276.772.671l.005.094v2.294c0 .414-.28.719-.682.76l-.095.005h-2.72c-.42 0-.73-.275-.772-.671l-.005-.094v-2.294c0-.414.28-.719.682-.76l.095-.005zM59.076 38a.78.78 0 0 0-.614.297l-4.964 6.308c-.099.126-.008.31.154.31h.777a.78.78 0 0 0 .613-.297l4.965-6.308a.192.192 0 0 0-.154-.31z"/><path fill-rule="evenodd" d="M51.906 55.671h12.228c2.224 0 3.886-1.643 3.886-3.841 0-2.2-1.662-3.842-3.886-3.842h-8.938c-.7 0-.834-.62-.389-1.152l6.546-8.264a1.604 1.604 0 0 1 1.23-.572h2.985c.6 0 .93.691.547 1.149l-3.924 4.997h1.943c4.193 0 7.376 2.902 7.737 6.915h.035v1.537h-.035a7.747 7.747 0 0 1-.928 3.073h8.527c1.288 0 2.332-1.032 2.332-2.305v-4.61c0-.424.348-.768.777-.768h2.333c.429 0 .777.344.777.768v4.61c0 .815-.16 1.593-.452 2.305h2.773c1.287 0 2.332-1.032 2.332-2.305v-4.61c0-.424.348-.768.777-.768h2.332c.429 0 .777.344.777.768v4.61c0 .815-.16 1.593-.451 2.305h.462c1.288 0 2.333-1.032 2.333-2.305v-4.61c0-.424.348-.768.777-.768h2.332c.429 0 .777.344.777.768v4.61c0 3.395-2.784 6.147-6.219 6.147h-.747a.782.782 0 0 1-.64-.331l-.8-1.145a6.239 6.239 0 0 1-4.042 1.476h-3.08a.78.78 0 0 1-.639-.331l-.793-1.133a6.237 6.237 0 0 1-4.028 1.464h-9.125a.78.78 0 0 1-.64-.331l-.82-1.17c-1.292.95-2.926 1.5-4.751 1.5H33.572a.78.78 0 0 1-.64-.33l-.792-1.133a6.237 6.237 0 0 1-4.028 1.464H7.219C3.784 59.513 1 56.76 1 53.366v-4.61c0-.424.348-.768.777-.768H4.11c.43 0 .778.344.778.768v4.61c0 1.273 1.044 2.305 2.332 2.305h20.893c1.288 0 2.332-1.032 2.332-2.305v-4.61c0-.424.348-.768.777-.768h2.332c.43 0 .778.344.778.768v4.61c0 .815-.161 1.593-.453 2.305h6.495a6.07 6.07 0 0 1-.452-2.305v-2.305c0-3.394 2.784-6.146 6.218-6.146 3.435 0 6.22 2.752 6.22 6.146v2.305c0 .815-.161 1.593-.453 2.305m-3.435-4.61v2.305c0 1.273-1.044 2.305-2.332 2.305-1.288 0-2.332-1.032-2.332-2.305v-2.305c0-1.273 1.044-2.305 2.332-2.305 1.288 0 2.332 1.032 2.332 2.305" clip-rule="evenodd"/></g><defs><clipPath id="a"><path fill="#fff" d="M0 0h101v101H0z"/></clipPath></defs></svg>