<svg width="20" height="20" viewBox="0 0 20 20" fill="none" xmlns="http://www.w3.org/2000/svg">
<path d="M5.83203 18.3327C5.3737 18.3327 4.98134 18.1695 4.65495 17.8431C4.32856 17.5167 4.16536 17.1243 4.16536 16.666C4.16536 16.2077 4.32856 15.8153 4.65495 15.4889C4.98134 15.1625 5.3737 14.9993 5.83203 14.9993C6.29036 14.9993 6.68273 15.1625 7.00911 15.4889C7.3355 15.8153 7.4987 16.2077 7.4987 16.666C7.4987 17.1243 7.3355 17.5167 7.00911 17.8431C6.68273 18.1695 6.29036 18.3327 5.83203 18.3327ZM14.1654 18.3327C13.707 18.3327 13.3147 18.1695 12.9883 17.8431C12.6619 17.5167 12.4987 17.1243 12.4987 16.666C12.4987 16.2077 12.6619 15.8153 12.9883 15.4889C13.3147 15.1625 13.707 14.9993 14.1654 14.9993C14.6237 14.9993 15.0161 15.1625 15.3424 15.4889C15.6688 15.8153 15.832 16.2077 15.832 16.666C15.832 17.1243 15.6688 17.5167 15.3424 17.8431C15.0161 18.1695 14.6237 18.3327 14.1654 18.3327ZM4.33203 3.33268H16.6237C16.9431 3.33268 17.1862 3.47504 17.3529 3.75977C17.5195 4.04449 17.5265 4.33268 17.3737 4.62435L14.4154 9.95768C14.2626 10.2355 14.0577 10.4507 13.8008 10.6035C13.5438 10.7563 13.2626 10.8327 12.957 10.8327H6.7487L5.83203 12.4993H15.832V14.166H5.83203C5.20703 14.166 4.73481 13.8917 4.41536 13.3431C4.09592 12.7945 4.08203 12.2493 4.3737 11.7077L5.4987 9.66602L2.4987 3.33268H0.832031V1.66602H3.54036L4.33203 3.33268Z" fill="#636363"/>
</svg>
