<svg width="20" height="20" viewBox="0 0 20 20" fill="none" xmlns="http://www.w3.org/2000/svg">
<path d="M17.9183 16.4927L17.0253 5.2384C16.9698 4.51328 16.3564 3.94551 15.6293 3.94551H13.8651V6.55945C13.8651 6.88316 13.603 7.1452 13.2793 7.1452C12.956 7.1452 12.6936 6.88316 12.6936 6.55945V3.94551H7.30487V6.55945C7.30487 6.88316 7.04245 7.1452 6.71913 7.1452C6.39542 7.1452 6.13338 6.88316 6.13338 6.55945V3.94551H4.36917C3.64209 3.94551 3.02862 4.51328 2.97319 5.23684L2.07975 16.4942C2.01065 17.3959 2.32342 18.2932 2.93764 18.9562C3.5519 19.6193 4.42268 20 5.32667 20H14.6718C15.5758 20 16.4466 19.6193 17.0608 18.9562C17.6751 18.2932 17.9878 17.3958 17.9183 16.4927ZM12.6381 10.7614L9.60874 13.7909C9.5544 13.8454 9.48983 13.8886 9.41873 13.9181C9.34763 13.9476 9.27141 13.9627 9.19444 13.9627C9.11747 13.9627 9.04125 13.9476 8.97015 13.9181C8.89905 13.8886 8.83448 13.8454 8.78014 13.7909L7.36034 12.3711C7.13151 12.1422 7.13151 11.7716 7.36034 11.5428C7.58916 11.314 7.96014 11.314 8.18858 11.5428L9.19448 12.5483L11.8099 9.93285C12.0384 9.70441 12.4094 9.70441 12.6382 9.93285C12.867 10.1617 12.867 10.5326 12.6381 10.7614ZM9.99924 0C7.86756 0 6.13342 1.73453 6.13342 3.86621V3.94547H7.30491V3.86621C7.30491 2.38039 8.51346 1.17145 9.99928 1.17145C11.4851 1.17145 12.6937 2.38039 12.6937 3.86621V3.94547H13.8651V3.86621C13.8651 1.73453 12.1309 0 9.99924 0Z" fill="#636363"/>
</svg>
