<svg width="20" height="20" viewBox="0 0 20 20"  xmlns="http://www.w3.org/2000/svg">
<path d="M9.9987 10.0007C9.08203 10.0007 8.29731 9.67426 7.64453 9.02148C6.99175 8.36871 6.66536 7.58398 6.66536 6.66732C6.66536 5.75065 6.99175 4.96593 7.64453 4.31315C8.29731 3.66037 9.08203 3.33398 9.9987 3.33398C10.9154 3.33398 11.7001 3.66037 12.3529 4.31315C13.0056 4.96593 13.332 5.75065 13.332 6.66732C13.332 7.58398 13.0056 8.36871 12.3529 9.02148C11.7001 9.67426 10.9154 10.0007 9.9987 10.0007ZM3.33203 16.6673V14.334C3.33203 13.8618 3.45356 13.4277 3.69661 13.0319C3.93967 12.6361 4.26259 12.334 4.66536 12.1257C5.52648 11.6951 6.40148 11.3722 7.29036 11.1569C8.17925 10.9416 9.08203 10.834 9.9987 10.834C10.9154 10.834 11.8181 10.9416 12.707 11.1569C13.5959 11.3722 14.4709 11.6951 15.332 12.1257C15.7348 12.334 16.0577 12.6361 16.3008 13.0319C16.5438 13.4277 16.6654 13.8618 16.6654 14.334V16.6673H3.33203Z" />
</svg>
