<svg width="20" height="20" viewBox="0 0 20 20" fill="none" xmlns="http://www.w3.org/2000/svg">
<g id="Discount 1" clip-path="url(#clip0_302_10217)">
<g id="Group">
<path id="Vector" d="M18.6717 10.2591C18.632 10.1785 18.6114 10.0899 18.6114 10.0001C18.6114 9.91024 18.632 9.82161 18.6717 9.74103L19.4177 8.21506C19.833 7.36542 19.5039 6.35273 18.6685 5.90949L17.1681 5.1134C17.0887 5.07155 17.0199 5.01199 16.9671 4.93932C16.9143 4.86666 16.8789 4.78282 16.8636 4.6943L16.5702 3.02131C16.4068 2.08983 15.5451 1.46389 14.6089 1.59635L12.9272 1.83424C12.8383 1.84709 12.7476 1.83934 12.6622 1.81158C12.5768 1.78381 12.4989 1.73679 12.4345 1.67413L11.2138 0.493195C10.534 -0.164379 9.4692 -0.164418 8.78952 0.493195L7.56875 1.67424C7.50438 1.73689 7.42647 1.78391 7.34104 1.81167C7.25562 1.83943 7.16496 1.84719 7.07606 1.83436L5.39431 1.59647C4.45779 1.46393 3.59647 2.08994 3.43307 3.02142L3.13963 4.69434C3.12438 4.78286 3.08899 4.8667 3.0362 4.93937C2.9834 5.01204 2.91461 5.07161 2.83514 5.11348L1.33476 5.90957C0.499375 6.35277 0.170314 7.36554 0.585624 8.21518L1.33152 9.74111C1.37122 9.82169 1.39187 9.91032 1.39187 10.0002C1.39187 10.09 1.37122 10.1786 1.33152 10.2592L0.585585 11.7851C0.170275 12.6348 0.499336 13.6475 1.33472 14.0907L2.8351 14.8868C2.91458 14.9286 2.98338 14.9882 3.03618 15.0609C3.08899 15.1335 3.12438 15.2174 3.13963 15.3059L3.43307 16.9789C3.58182 17.8268 4.30892 18.4215 5.14458 18.4214C5.22689 18.4214 5.3104 18.4157 5.39435 18.4038L7.07609 18.1659C7.165 18.153 7.25567 18.1608 7.3411 18.1886C7.42653 18.2163 7.50443 18.2634 7.56879 18.326L8.78952 19.507C9.12944 19.8358 9.56546 20.0002 10.0016 20.0001C10.4377 20.0001 10.874 19.8357 11.2137 19.507L12.4345 18.326C12.5662 18.1986 12.7457 18.1404 12.9272 18.1659L14.6089 18.4038C15.5456 18.5363 16.4068 17.9103 16.5702 16.9788L16.8637 15.3059C16.8789 15.2174 16.9143 15.1336 16.9671 15.0609C17.0199 14.9882 17.0887 14.9286 17.1681 14.8868L18.6685 14.0907C19.5039 13.6475 19.833 12.6347 19.4177 11.7851L18.6717 10.2591ZM7.69457 4.80926C8.86065 4.80926 9.80936 5.75797 9.80936 6.92406C9.80936 8.09014 8.86065 9.03885 7.69457 9.03885C6.52848 9.03885 5.57977 8.09014 5.57977 6.92406C5.57977 5.75797 6.52848 4.80926 7.69457 4.80926ZM6.60301 14.2143C6.49039 14.3269 6.34278 14.3832 6.1952 14.3832C6.04762 14.3832 5.89997 14.3269 5.78739 14.2143C5.56216 13.9891 5.56216 13.6239 5.78739 13.3986L13.4002 5.78582C13.6254 5.56059 13.9906 5.56059 14.2159 5.78582C14.4411 6.01105 14.4411 6.37625 14.2159 6.60148L6.60301 14.2143ZM12.3086 15.1909C11.1425 15.1909 10.1938 14.2422 10.1938 13.0761C10.1938 11.91 11.1425 10.9613 12.3086 10.9613C13.4747 10.9613 14.4234 11.91 14.4234 13.0761C14.4234 14.2422 13.4747 15.1909 12.3086 15.1909Z" fill="#636363"/>
<path id="Vector_2" d="M12.3097 12.115C11.7796 12.115 11.3484 12.5462 11.3484 13.0762C11.3484 13.6063 11.7796 14.0375 12.3097 14.0375C12.8397 14.0375 13.2709 13.6063 13.2709 13.0762C13.2709 12.5462 12.8397 12.115 12.3097 12.115ZM7.69562 5.96289C7.16558 5.96289 6.73438 6.3941 6.73438 6.92414C6.73438 7.45417 7.16558 7.88542 7.69562 7.88542C8.22566 7.88542 8.6569 7.45421 8.6569 6.92414C8.65686 6.39414 8.22566 5.96289 7.69562 5.96289Z" fill="#636363"/>
</g>
</g>
<defs>
<clipPath id="clip0_302_10217">
<rect width="20" height="20" fill="white"/>
</clipPath>
</defs>
</svg>
