<svg width="20" height="20" viewBox="0 0 20 20" fill="none" xmlns="http://www.w3.org/2000/svg">
<g clip-path="url(#clip0_302_10235)">
<path d="M18.6672 2.38785C18.4272 0.937148 17.2662 0 15.713 0H4.28439C2.73119 0 1.57009 0.937148 1.33009 2.38785C0.0197428 10.2539 0.0193912 10.2568 0.0186881 10.2604C-0.0168069 10.4911 -0.00161546 10.7268 0.063206 10.951C0.128027 11.1753 0.240923 11.3827 0.39404 11.5589C0.543297 11.7394 0.73014 11.8852 0.941533 11.986C1.15293 12.0869 1.38378 12.1404 1.61799 12.1429C2.02094 12.1427 2.41501 12.0244 2.75144 11.8026C3.08786 11.5808 3.35189 11.2653 3.51084 10.895L4.54013 8.4918C4.69435 8.13256 4.9407 7.82043 5.25426 7.58695C5.56782 7.35347 5.93747 7.20693 6.32584 7.16215C6.56549 6.54012 6.9607 5.98997 7.47369 5.5643C7.60073 5.45611 7.75633 5.38693 7.92176 5.36507C8.08718 5.34321 8.25541 5.36961 8.40619 5.44109C8.56195 5.51112 8.69407 5.6248 8.78655 5.76838C8.87903 5.91195 8.9279 6.07926 8.92724 6.25004V7.14289H11.0701V6.24754C11.0688 6.07856 11.1163 5.91278 11.2067 5.77003C11.2971 5.62728 11.4268 5.51359 11.5801 5.44254C11.7303 5.36961 11.8983 5.34158 12.064 5.36179C12.2298 5.382 12.3861 5.4496 12.5144 5.55648C13.0272 5.98482 13.4218 6.53738 13.6604 7.16148C14.0504 7.20486 14.4219 7.35083 14.7371 7.58452C15.0523 7.81822 15.2999 8.13129 15.4547 8.49184L16.4847 10.8954C16.6438 11.2659 16.9081 11.5817 17.2449 11.8034C17.5817 12.0252 17.9762 12.1432 18.3794 12.1429C18.6132 12.1377 18.8431 12.0829 19.0542 11.9822C19.2652 11.8815 19.4524 11.7371 19.6035 11.5587C19.7546 11.3803 19.8661 11.1718 19.9307 10.9471C19.9952 10.7223 20.0114 10.4865 19.978 10.255L18.6672 2.38785ZM6.42724 3.92855H4.99869V5.35711C4.99869 5.45183 4.96106 5.54267 4.89408 5.60965C4.8271 5.67663 4.73626 5.71426 4.64154 5.71426C4.54682 5.71426 4.45598 5.67663 4.389 5.60965C4.32202 5.54267 4.28439 5.45183 4.28439 5.35711V3.92855H2.85584C2.76112 3.92855 2.67027 3.89093 2.60329 3.82395C2.53632 3.75697 2.49869 3.66613 2.49869 3.57141C2.49869 3.47668 2.53632 3.38584 2.60329 3.31886C2.67027 3.25189 2.76112 3.21426 2.85584 3.21426H4.28439V1.7857C4.28439 1.69098 4.32202 1.60014 4.389 1.53316C4.45598 1.46618 4.54682 1.42855 4.64154 1.42855C4.73626 1.42855 4.8271 1.46618 4.89408 1.53316C4.96106 1.60014 4.99869 1.69098 4.99869 1.7857V3.21426H6.42724C6.52197 3.21426 6.61281 3.25189 6.67979 3.31886C6.74676 3.38584 6.78439 3.47668 6.78439 3.57141C6.78439 3.66613 6.74676 3.75697 6.67979 3.82395C6.61281 3.89093 6.52197 3.92855 6.42724 3.92855ZM14.2844 3.92855H13.5701C13.4754 3.92855 13.3845 3.89093 13.3176 3.82395C13.2506 3.75697 13.2129 3.66613 13.2129 3.57141C13.2129 3.47668 13.2506 3.38584 13.3176 3.31886C13.3845 3.25189 13.4754 3.21426 13.5701 3.21426H14.2844C14.3791 3.21426 14.47 3.25189 14.5369 3.31886C14.6039 3.38584 14.6415 3.47668 14.6415 3.57141C14.6415 3.66613 14.6039 3.75697 14.5369 3.82395C14.47 3.89093 14.3791 3.92855 14.2844 3.92855ZM15.713 5.35715C15.713 5.45187 15.6754 5.54271 15.6084 5.60969C15.5414 5.67667 15.4506 5.7143 15.3558 5.7143C15.2611 5.7143 15.1703 5.67667 15.1033 5.60969C15.0363 5.54271 14.9987 5.45187 14.9987 5.35715V4.64285C14.9987 4.54813 15.0363 4.45729 15.1033 4.39031C15.1703 4.32333 15.2611 4.2857 15.3558 4.2857C15.4506 4.2857 15.5414 4.32333 15.6084 4.39031C15.6754 4.45729 15.713 4.54813 15.713 4.64285V5.35715ZM15.713 2.5C15.713 2.59472 15.6754 2.68556 15.6084 2.75254C15.5414 2.81952 15.4506 2.85715 15.3558 2.85715C15.2611 2.85715 15.1703 2.81952 15.1033 2.75254C15.0363 2.68556 14.9987 2.59472 14.9987 2.5V1.7857C14.9987 1.69098 15.0363 1.60014 15.1033 1.53316C15.1703 1.46618 15.2611 1.42855 15.3558 1.42855C15.4506 1.42855 15.5414 1.46618 15.6084 1.53316C15.6754 1.60014 15.713 1.69098 15.713 1.7857V2.5ZM17.1415 3.92855H16.4272C16.3325 3.92855 16.2417 3.89093 16.1747 3.82395C16.1077 3.75697 16.0701 3.66613 16.0701 3.57141C16.0701 3.47668 16.1077 3.38584 16.1747 3.31886C16.2417 3.25189 16.3325 3.21426 16.4272 3.21426H17.1415C17.2363 3.21426 17.3271 3.25189 17.3941 3.31886C17.4611 3.38584 17.4987 3.47668 17.4987 3.57141C17.4987 3.66613 17.4611 3.75697 17.3941 3.82395C17.3271 3.89093 17.2363 3.92855 17.1415 3.92855Z" fill="#979797"/>
<path d="M12.0583 6.10744C12.0348 6.0876 12.0059 6.0753 11.9754 6.07211C11.9448 6.06893 11.914 6.07502 11.8869 6.08959C11.8564 6.10307 11.8305 6.12514 11.8123 6.15312C11.7942 6.18109 11.7846 6.21375 11.7847 6.24709L11.7815 7.67888C11.7817 7.84405 11.7438 8.00702 11.6707 8.15513C11.5976 8.30324 11.4913 8.43249 11.3601 8.53283L10.6411 9.07177C10.455 9.21183 10.2282 9.28739 9.99526 9.287C9.76229 9.28661 9.53579 9.2103 9.35009 9.06963L8.64114 8.53607C8.50811 8.435 8.40042 8.30435 8.32659 8.15447C8.25277 8.00459 8.21483 7.83959 8.21579 7.67252L8.21263 6.25029C8.21239 6.21639 8.20235 6.18327 8.18372 6.15495C8.16509 6.12662 8.13866 6.10429 8.10763 6.09064C8.08475 6.07913 8.05966 6.07267 8.03407 6.0717C7.99771 6.07188 7.96266 6.08534 7.93552 6.10955C7.51594 6.46039 7.19302 6.91266 6.9974 7.42341C6.80179 7.93416 6.73998 8.48644 6.81784 9.02779C6.8957 9.56915 7.11066 10.0816 7.44229 10.5165C7.77392 10.9515 8.21122 11.2944 8.71267 11.5127C8.77638 11.5406 8.83059 11.5864 8.86866 11.6445C8.90672 11.7027 8.92698 11.7707 8.92696 11.8403V18.9288C8.92696 19.5205 9.40665 20.0002 9.99841 20.0002C10.5901 20.0002 11.0699 19.5206 11.0699 18.9288V11.8403C11.0698 11.7708 11.0901 11.7027 11.1281 11.6446C11.1662 11.5864 11.2204 11.5406 11.2842 11.5128C11.7858 11.2942 12.2232 10.951 12.5548 10.5157C12.8864 10.0805 13.1012 9.56768 13.1788 9.02603C13.2563 8.48438 13.1941 7.9319 12.998 7.42108C12.8019 6.91025 12.4784 6.45805 12.0583 6.10744ZM10.3555 18.2146C10.3555 18.3093 10.3178 18.4001 10.2509 18.4671C10.1839 18.5341 10.0931 18.5717 9.99833 18.5717C9.90361 18.5717 9.81277 18.5341 9.74579 18.4671C9.67881 18.4001 9.64118 18.3093 9.64118 18.2146V12.5003C9.64118 12.4056 9.67881 12.3147 9.74579 12.2477C9.81277 12.1808 9.90361 12.1431 9.99833 12.1431C10.0931 12.1431 10.1839 12.1808 10.2509 12.2477C10.3178 12.3147 10.3555 12.4056 10.3555 12.5003V18.2146Z" fill="#979797"/>
</g>
<defs>
<clipPath id="clip0_302_10235">
<rect width="20" height="20" fill="white"/>
</clipPath>
</defs>
</svg>
