<svg width="18" height="18" viewBox="0 0 18 18" fill="none" xmlns="http://www.w3.org/2000/svg">
<g id="Notifications 1">
<g id="Group">
<path id="Vector" d="M9.00006 18C10.0791 18 11.0083 17.3482 11.416 16.418H6.58416C6.99187 17.3482 7.92108 18 9.00006 18ZM14.4493 8.7139V7.55859C14.4493 5.10391 12.8176 3.0234 10.5821 2.34387V1.58203C10.5821 0.709699 9.8724 0 9.00006 0C8.12773 0 7.41803 0.709699 7.41803 1.58203V2.34387C5.18245 3.0234 3.55084 5.10388 3.55084 7.55859V8.7139C3.55084 10.8701 2.72896 12.9146 1.23661 14.4709C1.16506 14.5455 1.11701 14.6395 1.09843 14.7412C1.07985 14.8429 1.09157 14.9478 1.13213 15.0429C1.17268 15.1379 1.24029 15.219 1.32654 15.276C1.41279 15.3329 1.51388 15.3633 1.61725 15.3633H16.3829C16.4862 15.3633 16.5873 15.3329 16.6736 15.2759C16.7598 15.219 16.8274 15.1379 16.8679 15.0428C16.9085 14.9478 16.9202 14.8429 16.9017 14.7412C16.8831 14.6395 16.8351 14.5455 16.7635 14.4709C15.2712 12.9146 14.4493 10.8701 14.4493 8.7139ZM9.52741 2.13497C9.35384 2.11823 9.17795 2.10938 9.00006 2.10938C8.82217 2.10938 8.64629 2.11823 8.47272 2.13497V1.58203C8.47272 1.29125 8.70929 1.05469 9.00006 1.05469C9.29084 1.05469 9.52741 1.29125 9.52741 1.58203V2.13497ZM15.8555 7.55859C15.8555 7.84983 16.0916 8.08594 16.3829 8.08594C16.6741 8.08594 16.9102 7.84983 16.9102 7.55859C16.9102 5.4457 16.0874 3.45927 14.5934 1.96523C14.3875 1.75932 14.0536 1.75929 13.8476 1.96523C13.6417 2.17118 13.6417 2.50506 13.8476 2.711C15.1425 4.00584 15.8555 5.72741 15.8555 7.55859ZM1.61725 8.08594C1.90849 8.08594 2.14459 7.84983 2.14459 7.55859C2.14459 5.72745 2.8577 4.00588 4.15251 2.71104C4.35845 2.50509 4.35845 2.17121 4.15251 1.96527C3.9466 1.75932 3.61268 1.75932 3.40674 1.96527C1.9127 3.4593 1.08991 5.4457 1.08991 7.55859C1.08991 7.84983 1.32602 8.08594 1.61725 8.08594Z" fill="#636363"/>
</g>
</g>
</svg>
